<svg xmlns="http://www.w3.org/2000/svg" xmlns:xlink="http://www.w3.org/1999/xlink" width="845" zoomAndPan="magnify" viewBox="0 0 633.75 289.499996" height="386" preserveAspectRatio="xMidYMid meet" version="1.2"><defs><clipPath id="40c77581d2"><path d="M 0.421875 0 L 633.078125 0 L 633.078125 289 L 0.421875 289 Z M 0.421875 0 "/></clipPath><clipPath id="d2c392d65e"><path d="M 0.421875 288 L 632.964844 288 L 632.964844 289 L 0.421875 289 Z M 0.421875 288 "/></clipPath><clipPath id="66baaeaf62"><path d="M 0.421875 230 L 632.964844 230 L 632.964844 232 L 0.421875 232 Z M 0.421875 230 "/></clipPath><clipPath id="6cba5c70ea"><path d="M 0.421875 173 L 632.964844 173 L 632.964844 174 L 0.421875 174 Z M 0.421875 173 "/></clipPath><clipPath id="1c9e8fd0f1"><path d="M 0.421875 115 L 632.964844 115 L 632.964844 116 L 0.421875 116 Z M 0.421875 115 "/></clipPath><clipPath id="4b4fac9dd3"><path d="M 0.421875 57 L 632.964844 57 L 632.964844 59 L 0.421875 59 Z M 0.421875 57 "/></clipPath><clipPath id="08f9b899a4"><path d="M 0.421875 0 L 632.964844 0 L 632.964844 1 L 0.421875 1 Z M 0.421875 0 "/></clipPath><clipPath id="abe6a28c46"><rect x="0" width="634" y="0" height="289"/></clipPath></defs><g id="ac444c7e38"><g clip-rule="nonzero" clip-path="url(#40c77581d2)"><g transform="matrix(1,0,0,1,0.000000000000000056,0)"><g clip-path="url(#abe6a28c46)"><g clip-rule="nonzero" clip-path="url(#d2c392d65e)"><path style="fill:none;stroke-width:1;stroke-linecap:butt;stroke-linejoin:miter;stroke:#000000;stroke-opacity:0.6;stroke-miterlimit:4;" d="M 0.000772207 699.078545 L 1530.094953 699.078545 " transform="matrix(0.413401,0,0,0.413401,0.421556,0.000000000000042559)"/></g><g clip-rule="nonzero" clip-path="url(#66baaeaf62)"><path style="fill:none;stroke-width:1;stroke-linecap:butt;stroke-linejoin:miter;stroke:#000000;stroke-opacity:0.251;stroke-miterlimit:4;" d="M 0.000772207 559.260946 L 1530.094953 559.260946 " transform="matrix(0.413401,0,0,0.413401,0.421556,0.000000000000042559)"/></g><g clip-rule="nonzero" clip-path="url(#6cba5c70ea)"><path style="fill:none;stroke-width:1;stroke-linecap:butt;stroke-linejoin:miter;stroke:#000000;stroke-opacity:0.251;stroke-miterlimit:4;" d="M 0.000772207 419.443347 L 1530.094953 419.443347 " transform="matrix(0.413401,0,0,0.413401,0.421556,0.000000000000042559)"/></g><g clip-rule="nonzero" clip-path="url(#1c9e8fd0f1)"><path style="fill:none;stroke-width:1;stroke-linecap:butt;stroke-linejoin:miter;stroke:#000000;stroke-opacity:0.251;stroke-miterlimit:4;" d="M 0.000772207 279.635198 L 1530.094953 279.635198 " transform="matrix(0.413401,0,0,0.413401,0.421556,0.000000000000042559)"/></g><g clip-rule="nonzero" clip-path="url(#4b4fac9dd3)"><path style="fill:none;stroke-width:1;stroke-linecap:butt;stroke-linejoin:miter;stroke:#000000;stroke-opacity:0.251;stroke-miterlimit:4;" d="M 0.000772207 139.817599 L 1530.094953 139.817599 " transform="matrix(0.413401,0,0,0.413401,0.421556,0.000000000000042559)"/></g><g clip-rule="nonzero" clip-path="url(#08f9b899a4)"><path style="fill:none;stroke-width:1;stroke-linecap:butt;stroke-linejoin:miter;stroke:#000000;stroke-opacity:0.251;stroke-miterlimit:4;" d="M 0.000772207 -0.000000000000102949 L 1530.094953 -0.000000000000102949 " transform="matrix(0.413401,0,0,0.413401,0.421556,0.000000000000042559)"/></g><path style=" stroke:none;fill-rule:nonzero;fill:#04cee2;fill-opacity:1;" d="M 79.425781 172.472656 C 97.371094 171.265625 117.410156 169.15625 139.550781 166.144531 C 183.785156 160.132812 216.355469 152.632812 237.257812 143.644531 C 237.496094 143.542969 237.730469 143.542969 237.96875 143.636719 C 238.207031 143.730469 238.378906 143.898438 238.480469 144.132812 C 238.582031 144.367188 238.585938 144.605469 238.488281 144.84375 C 238.394531 145.082031 238.230469 145.253906 237.992188 145.355469 C 216.933594 154.40625 184.203125 161.953125 139.800781 167.988281 C 117.621094 171.003906 97.535156 173.117188 79.550781 174.328125 C 79.296875 174.34375 79.070312 174.269531 78.878906 174.101562 C 78.683594 173.933594 78.578125 173.71875 78.5625 173.460938 C 78.542969 173.207031 78.621094 172.980469 78.789062 172.789062 C 78.957031 172.59375 79.171875 172.488281 79.425781 172.472656 Z M 79.425781 172.472656 "/><path style=" stroke:none;fill-rule:nonzero;fill:#04cee2;fill-opacity:1;" d="M 237.257812 143.644531 C 249.035156 138.582031 261.875 130.570312 275.773438 119.609375 C 284.128906 113.015625 296.496094 102.203125 312.871094 87.164062 C 330.640625 70.84375 344.070312 59.203125 353.164062 52.238281 C 368.355469 40.605469 382.453125 32.53125 395.457031 28.019531 C 395.699219 27.9375 395.9375 27.949219 396.167969 28.0625 C 396.398438 28.175781 396.554688 28.351562 396.640625 28.59375 C 396.726562 28.835938 396.710938 29.074219 396.597656 29.304688 C 396.488281 29.535156 396.308594 29.695312 396.066406 29.777344 C 383.25 34.222656 369.328125 42.203125 354.292969 53.714844 C 345.246094 60.644531 331.859375 72.25 314.128906 88.535156 C 297.71875 103.601562 285.316406 114.449219 276.925781 121.066406 C 262.898438 132.132812 249.921875 140.226562 237.992188 145.355469 C 237.757812 145.457031 237.519531 145.460938 237.28125 145.363281 C 237.042969 145.269531 236.871094 145.105469 236.769531 144.867188 C 236.667969 144.632812 236.667969 144.394531 236.761719 144.15625 C 236.855469 143.917969 237.023438 143.746094 237.257812 143.644531 Z M 237.257812 143.644531 "/><path style=" stroke:none;fill-rule:nonzero;fill:#04cee2;fill-opacity:1;" d="M 395.457031 28.019531 C 416.472656 20.730469 449.210938 17.574219 493.671875 18.550781 C 507.546875 18.855469 521.761719 19.554688 536.316406 20.648438 C 543.597656 21.195312 549.488281 21.710938 553.996094 22.195312 C 554.253906 22.222656 554.460938 22.335938 554.621094 22.535156 C 554.785156 22.738281 554.851562 22.964844 554.824219 23.21875 C 554.796875 23.476562 554.679688 23.683594 554.480469 23.84375 C 554.28125 24.003906 554.054688 24.074219 553.796875 24.042969 C 549.308594 23.5625 543.4375 23.046875 536.175781 22.503906 C 521.652344 21.414062 507.472656 20.714844 493.628906 20.410156 C 449.394531 19.441406 416.871094 22.5625 396.066406 29.777344 C 395.824219 29.863281 395.585938 29.847656 395.355469 29.738281 C 395.125 29.625 394.96875 29.449219 394.882812 29.203125 C 394.796875 28.960938 394.8125 28.726562 394.925781 28.496094 C 395.035156 28.261719 395.214844 28.105469 395.457031 28.019531 Z M 395.457031 28.019531 "/><path style=" stroke:none;fill-rule:nonzero;fill:#04cee2;fill-opacity:1;" d="M 81.554688 173.398438 C 81.554688 173.125 81.503906 172.863281 81.398438 172.609375 C 81.292969 172.355469 81.144531 172.132812 80.953125 171.9375 C 80.757812 171.746094 80.535156 171.59375 80.28125 171.492188 C 80.027344 171.386719 79.765625 171.332031 79.488281 171.332031 C 79.214844 171.332031 78.953125 171.386719 78.699219 171.492188 C 78.445312 171.59375 78.222656 171.746094 78.027344 171.9375 C 77.835938 172.132812 77.683594 172.355469 77.578125 172.609375 C 77.476562 172.863281 77.421875 173.125 77.421875 173.398438 C 77.421875 173.675781 77.476562 173.9375 77.578125 174.191406 C 77.683594 174.445312 77.835938 174.667969 78.027344 174.863281 C 78.222656 175.054688 78.445312 175.203125 78.699219 175.308594 C 78.953125 175.414062 79.214844 175.46875 79.488281 175.46875 C 79.765625 175.46875 80.027344 175.414062 80.28125 175.308594 C 80.535156 175.203125 80.757812 175.054688 80.953125 174.863281 C 81.144531 174.667969 81.292969 174.445312 81.398438 174.191406 C 81.503906 173.9375 81.554688 173.675781 81.554688 173.398438 Z M 81.554688 173.398438 "/><path style=" stroke:none;fill-rule:nonzero;fill:#04cee2;fill-opacity:1;" d="M 239.691406 144.5 C 239.691406 144.226562 239.640625 143.960938 239.535156 143.710938 C 239.429688 143.457031 239.28125 143.234375 239.085938 143.039062 C 238.894531 142.84375 238.667969 142.695312 238.417969 142.589844 C 238.164062 142.484375 237.898438 142.433594 237.625 142.433594 C 237.351562 142.433594 237.085938 142.484375 236.835938 142.589844 C 236.582031 142.695312 236.359375 142.84375 236.164062 143.039062 C 235.96875 143.234375 235.820312 143.457031 235.714844 143.710938 C 235.609375 143.960938 235.558594 144.226562 235.558594 144.5 C 235.558594 144.773438 235.609375 145.039062 235.714844 145.292969 C 235.820312 145.542969 235.96875 145.769531 236.164062 145.960938 C 236.359375 146.15625 236.582031 146.304688 236.835938 146.410156 C 237.085938 146.515625 237.351562 146.566406 237.625 146.566406 C 237.898438 146.566406 238.164062 146.515625 238.417969 146.410156 C 238.667969 146.304688 238.894531 146.15625 239.085938 145.960938 C 239.28125 145.769531 239.429688 145.542969 239.535156 145.292969 C 239.640625 145.039062 239.691406 144.773438 239.691406 144.5 Z M 239.691406 144.5 "/><path style=" stroke:none;fill-rule:nonzero;fill:#04cee2;fill-opacity:1;" d="M 397.828125 28.898438 C 397.828125 28.625 397.777344 28.363281 397.671875 28.109375 C 397.566406 27.855469 397.417969 27.632812 397.222656 27.4375 C 397.03125 27.246094 396.804688 27.09375 396.554688 26.992188 C 396.300781 26.886719 396.035156 26.832031 395.761719 26.832031 C 395.488281 26.832031 395.222656 26.886719 394.972656 26.992188 C 394.71875 27.09375 394.492188 27.246094 394.300781 27.4375 C 394.105469 27.632812 393.957031 27.855469 393.851562 28.109375 C 393.746094 28.363281 393.695312 28.625 393.695312 28.898438 C 393.695312 29.175781 393.746094 29.4375 393.851562 29.691406 C 393.957031 29.945312 394.105469 30.167969 394.300781 30.363281 C 394.492188 30.554688 394.71875 30.703125 394.972656 30.808594 C 395.222656 30.914062 395.488281 30.96875 395.761719 30.96875 C 396.035156 30.96875 396.300781 30.914062 396.554688 30.808594 C 396.804688 30.703125 397.03125 30.554688 397.222656 30.363281 C 397.417969 30.167969 397.566406 29.945312 397.671875 29.691406 C 397.777344 29.4375 397.828125 29.175781 397.828125 28.898438 Z M 397.828125 28.898438 "/><path style=" stroke:none;fill-rule:nonzero;fill:#04cee2;fill-opacity:1;" d="M 555.964844 23.121094 C 555.964844 22.847656 555.914062 22.582031 555.808594 22.328125 C 555.703125 22.074219 555.554688 21.851562 555.359375 21.660156 C 555.164062 21.464844 554.941406 21.316406 554.6875 21.210938 C 554.4375 21.105469 554.171875 21.054688 553.898438 21.054688 C 553.625 21.054688 553.359375 21.105469 553.105469 21.210938 C 552.851562 21.316406 552.628906 21.464844 552.4375 21.660156 C 552.242188 21.851562 552.09375 22.074219 551.988281 22.328125 C 551.882812 22.582031 551.832031 22.847656 551.832031 23.121094 C 551.832031 23.394531 551.882812 23.65625 551.988281 23.910156 C 552.09375 24.164062 552.242188 24.386719 552.4375 24.582031 C 552.628906 24.777344 552.851562 24.925781 553.105469 25.03125 C 553.359375 25.132812 553.625 25.1875 553.898438 25.1875 C 554.171875 25.1875 554.4375 25.132812 554.6875 25.03125 C 554.941406 24.925781 555.164062 24.777344 555.359375 24.582031 C 555.554688 24.386719 555.703125 24.164062 555.808594 23.910156 C 555.914062 23.65625 555.964844 23.394531 555.964844 23.121094 Z M 555.964844 23.121094 "/></g></g></g></g></svg>