<svg width="1440" height="201" viewBox="0 0 1440 201" fill="none" xmlns="http://www.w3.org/2000/svg">
<path d="M42.8432 197.812L0 0H39.5893L59.9262 104.469L69.6879 158.467H71.5861L107.921 0H152.392L189.269 159.01H191.167L200.387 104.74L220.181 0H259.771L216.927 197.812H167.305L130.97 47.4858H129.072L92.1942 197.812H42.8432Z" fill="#16161A"/>
<path d="M318.697 200.254C304.054 200.254 291.581 197.27 281.277 191.3C271.154 185.149 263.38 176.557 257.957 165.522C252.534 154.306 249.822 141.282 249.822 126.448C249.822 111.072 252.534 97.7756 257.957 86.5599C263.38 75.1633 271.154 66.3897 281.277 60.2391C291.4 54.0886 303.422 51.0133 317.341 51.0133C333.249 51.0133 346.265 54.5409 356.388 61.5959C366.692 68.47 374.104 78.0576 378.623 90.3587C383.142 102.66 384.679 116.77 383.233 132.689H282.904C282.904 141.915 284.35 149.693 287.242 156.025C290.316 162.175 294.473 166.879 299.716 170.135C305.139 173.21 311.466 174.748 318.697 174.748C327.193 174.748 334.243 172.758 339.847 168.778C345.451 164.617 349.067 159.281 350.694 152.769H382.419C381.335 162.537 377.9 171.039 372.115 178.275C366.331 185.33 358.828 190.757 349.609 194.556C340.39 198.355 330.086 200.254 318.697 200.254ZM282.904 114.509L279.921 110.981H353.405L350.151 114.78C350.513 105.916 349.338 98.68 346.626 93.0722C343.915 87.4643 340.028 83.3037 334.966 80.5902C329.905 77.8767 324.03 76.52 317.341 76.52C310.472 76.52 304.506 77.9672 299.445 80.8616C294.383 83.7559 290.406 88.0975 287.514 93.8862C284.621 99.4941 283.085 106.368 282.904 114.509Z" fill="#16161A"/>
<path d="M504.528 200.254C493.862 200.254 484.191 198.536 475.514 195.099C466.837 191.481 459.335 186.416 453.008 179.903C446.681 173.21 441.89 165.341 438.636 156.296C435.382 147.07 433.755 136.85 433.755 125.634C433.755 110.438 436.648 97.3233 442.432 86.2885C448.398 75.0728 456.713 66.3897 467.379 60.2391C478.225 53.9077 490.97 50.742 505.613 50.742C517.724 50.742 528.48 53.0032 537.88 57.5257C547.281 62.0481 554.783 68.3796 560.387 76.52C566.171 84.4795 569.335 93.7958 569.877 104.469H536.796C535.892 98.8609 533.903 94.1576 530.83 90.3587C527.938 86.5599 524.232 83.6655 519.713 81.6756C515.193 79.6857 510.222 78.6908 504.799 78.6908C497.026 78.6908 490.337 80.6807 484.733 84.6604C479.129 88.4593 474.881 93.8862 471.989 100.941C469.277 107.996 467.921 116.227 467.921 125.634C467.921 135.945 469.458 144.538 472.531 151.412C475.604 158.286 479.852 163.532 485.276 167.15C490.88 170.587 497.297 172.306 504.528 172.306C510.855 172.306 516.368 171.22 521.069 169.05C525.769 166.698 529.475 163.532 532.186 159.552C535.078 155.392 536.796 150.688 537.338 145.442H570.42C569.696 156.477 566.443 166.155 560.658 174.476C554.873 182.617 547.19 188.948 537.609 193.471C528.028 197.993 517.001 200.254 504.528 200.254Z" fill="#16161A"/>
<path d="M645.899 200.254C635.053 200.254 625.291 198.626 616.614 195.37C607.937 191.933 600.345 186.958 593.837 180.446C587.51 173.934 582.629 166.065 579.194 156.839C575.94 147.613 574.313 137.211 574.313 125.634C574.313 110.8 577.115 97.7756 582.719 86.5599C588.504 75.3442 596.729 66.5706 607.395 60.2391C618.06 53.9077 630.895 50.742 645.899 50.742C656.565 50.742 666.236 52.4605 674.913 55.8976C683.59 59.3347 691.002 64.3094 697.148 70.8217C703.475 77.334 708.356 85.2031 711.791 94.4289C715.226 103.474 716.943 113.876 716.943 125.634C716.943 140.287 714.051 153.221 708.266 164.437C702.662 175.652 694.527 184.426 683.862 190.757C673.377 197.089 660.723 200.254 645.899 200.254ZM645.628 172.306C653.04 172.306 659.548 170.587 665.152 167.15C670.756 163.532 675.094 158.286 678.167 151.412C681.24 144.357 682.777 135.764 682.777 125.634C682.777 118.036 681.873 111.343 680.065 105.554C678.438 99.5845 675.998 94.6098 672.744 90.6301C669.49 86.6503 665.604 83.6655 661.084 81.6756C656.565 79.6857 651.503 78.6908 645.899 78.6908C638.488 78.6908 631.889 80.4998 626.105 84.1177C620.501 87.5548 616.162 92.8009 613.089 99.8559C610.016 106.73 608.479 115.323 608.479 125.634C608.479 133.232 609.293 140.015 610.92 145.985C612.728 151.774 615.258 156.658 618.512 160.638C621.766 164.437 625.653 167.331 630.172 169.321C634.872 171.311 640.024 172.306 645.628 172.306Z" fill="#16161A"/>
<path d="M730.704 197.812V53.4555H763.243L764.599 80.8616H766.226C770.384 70.7313 776.711 63.224 785.207 58.3397C793.704 53.2746 803.194 50.742 813.679 50.742C820.91 50.742 827.599 51.9178 833.745 54.2695C840.072 56.4403 845.495 59.9678 850.014 64.8521C854.715 69.5554 858.33 75.7964 860.861 83.575C863.572 91.1728 864.928 100.399 864.928 111.252V197.812H831.033V118.579C831.033 109.534 829.949 102.117 827.779 96.3284C825.61 90.3587 822.266 85.9267 817.746 83.0323C813.408 80.138 807.714 78.6908 800.663 78.6908C793.071 78.6908 786.563 80.4998 781.14 84.1177C775.898 87.7357 771.83 92.5295 768.938 98.4992C766.045 104.469 764.599 111.072 764.599 118.308V197.812H730.704Z" fill="#16161A"/>
<path d="M886.356 197.812V53.4555H918.895L920.251 80.8616H921.878C926.036 70.7313 932.363 63.224 940.859 58.3397C949.356 53.2746 958.846 50.742 969.331 50.742C976.562 50.742 983.25 51.9178 989.397 54.2695C995.724 56.4403 1001.15 59.9678 1005.67 64.8521C1010.37 69.5554 1013.98 75.7964 1016.51 83.575C1019.22 91.1728 1020.58 100.399 1020.58 111.252V197.812H986.685V118.579C986.685 109.534 985.6 102.117 983.431 96.3284C981.262 90.3587 977.918 85.9267 973.398 83.0323C969.06 80.138 963.365 78.6908 956.315 78.6908C948.723 78.6908 942.215 80.4998 936.792 84.1177C931.549 87.7357 927.482 92.5295 924.59 98.4992C921.697 104.469 920.251 111.072 920.251 118.308V197.812H886.356Z" fill="#16161A"/>
<path d="M1101.93 200.254C1087.29 200.254 1074.82 197.27 1064.51 191.3C1054.39 185.149 1046.62 176.557 1041.19 165.522C1035.77 154.306 1033.06 141.282 1033.06 126.448C1033.06 111.072 1035.77 97.7756 1041.19 86.5599C1046.62 75.1633 1054.39 66.3897 1064.51 60.2391C1074.64 54.0886 1086.66 51.0133 1100.58 51.0133C1116.49 51.0133 1129.5 54.5409 1139.63 61.5959C1149.93 68.47 1157.34 78.0576 1161.86 90.3587C1166.38 102.66 1167.92 116.77 1166.47 132.689H1066.14C1066.14 141.915 1067.59 149.693 1070.48 156.025C1073.55 162.175 1077.71 166.879 1082.95 170.135C1088.38 173.21 1094.7 174.748 1101.93 174.748C1110.43 174.748 1117.48 172.758 1123.08 168.778C1128.69 164.617 1132.3 159.281 1133.93 152.769H1165.66C1164.57 162.537 1161.14 171.039 1155.35 178.275C1149.57 185.33 1142.07 190.757 1132.85 194.556C1123.63 198.355 1113.32 200.254 1101.93 200.254ZM1066.14 114.509L1063.16 110.981H1136.64L1133.39 114.78C1133.75 105.916 1132.58 98.68 1129.86 93.0722C1127.15 87.4643 1123.27 83.3037 1118.2 80.5902C1113.14 77.8767 1107.27 76.52 1100.58 76.52C1093.71 76.52 1087.74 77.9672 1082.68 80.8616C1077.62 83.7559 1073.64 88.0975 1070.75 93.8862C1067.86 99.4941 1066.32 106.368 1066.14 114.509Z" fill="#16161A"/>
<path d="M1244.92 200.254C1234.25 200.254 1224.58 198.536 1215.91 195.099C1207.23 191.481 1199.73 186.416 1193.4 179.903C1187.07 173.21 1182.28 165.341 1179.03 156.296C1175.77 147.07 1174.15 136.85 1174.15 125.634C1174.15 110.438 1177.04 97.3233 1182.82 86.2885C1188.79 75.0728 1197.11 66.3897 1207.77 60.2391C1218.62 53.9077 1231.36 50.742 1246 50.742C1258.12 50.742 1268.87 53.0032 1278.27 57.5257C1287.67 62.0481 1295.17 68.3796 1300.78 76.52C1306.56 84.4795 1309.73 93.7958 1310.27 104.469H1277.19C1276.28 98.8609 1274.3 94.1576 1271.22 90.3587C1268.33 86.5599 1264.62 83.6655 1260.1 81.6756C1255.59 79.6857 1250.61 78.6908 1245.19 78.6908C1237.42 78.6908 1230.73 80.6807 1225.13 84.6604C1219.52 88.4593 1215.27 93.8862 1212.38 100.941C1209.67 107.996 1208.31 116.227 1208.31 125.634C1208.31 135.945 1209.85 144.538 1212.92 151.412C1216 158.286 1220.24 163.532 1225.67 167.15C1231.27 170.587 1237.69 172.306 1244.92 172.306C1251.25 172.306 1256.76 171.22 1261.46 169.05C1266.16 166.698 1269.87 163.532 1272.58 159.552C1275.47 155.392 1277.19 150.688 1277.73 145.442H1310.81C1310.09 156.477 1306.83 166.155 1301.05 174.476C1295.27 182.617 1287.58 188.948 1278 193.471C1268.42 197.993 1257.39 200.254 1244.92 200.254Z" fill="#16161A"/>
<path d="M1368.39 197.812C1359.54 197.812 1352.58 196.546 1347.52 194.013C1342.63 191.3 1339.2 187.501 1337.21 182.617C1335.22 177.733 1334.23 171.853 1334.23 164.979V80.8616H1307.66V53.4555H1334.23V12.7533L1367.85 9.22581V53.4555H1398.49V80.8616H1367.85V158.738C1367.85 163.261 1368.85 166.336 1370.84 167.964C1372.82 169.411 1375.9 170.135 1380.05 170.135H1398.49V197.812H1368.39Z" fill="#16161A"/>
<path d="M1407.19 197.812V165.251H1440V197.812H1407.19Z" fill="#16161A"/>
</svg>
