<svg xmlns="http://www.w3.org/2000/svg" xmlns:xlink="http://www.w3.org/1999/xlink" width="1318" zoomAndPan="magnify" viewBox="0 0 988.5 424.499987" height="566" preserveAspectRatio="xMidYMid meet" version="1.2"><defs><clipPath id="00aae83ba6"><path d="M 0.332031 0 L 959 0 L 959 424 L 0.332031 424 Z M 0.332031 0 "/></clipPath><clipPath id="0b90e05570"><path d="M 598 317 L 610 317 L 610 329 L 598 329 Z M 598 317 "/></clipPath><clipPath id="8c81f4e77e"><path d="M 612.007812 324.40625 L 603.304688 330.8125 L 596.902344 322.109375 L 605.605469 315.703125 Z M 612.007812 324.40625 "/></clipPath><clipPath id="375afe2316"><path d="M 612.003906 324.402344 L 603.078125 330.972656 L 596.507812 322.042969 L 605.4375 315.476562 Z M 612.003906 324.402344 "/></clipPath><clipPath id="a2c5f2313b"><path d="M 607.59375 327.648438 C 610.03125 325.855469 610.546875 322.421875 608.746094 319.972656 C 606.945312 317.527344 603.507812 316.996094 601.074219 318.789062 C 598.636719 320.582031 598.121094 324.019531 599.921875 326.464844 C 601.722656 328.914062 605.15625 329.441406 607.59375 327.648438 Z M 607.59375 327.648438 "/></clipPath><clipPath id="c28c54210c"><path d="M 860 185 L 872 185 L 872 197 L 860 197 Z M 860 185 "/></clipPath><clipPath id="0205d4b726"><path d="M 873.210938 193.996094 L 862.960938 197.410156 L 859.542969 187.160156 L 869.796875 183.742188 Z M 873.210938 193.996094 "/></clipPath><clipPath id="88cfcb3257"><path d="M 873.210938 193.988281 L 862.695312 197.496094 L 859.191406 186.980469 L 869.707031 183.472656 Z M 873.210938 193.988281 "/></clipPath><clipPath id="16ae190b62"><path d="M 868.015625 195.722656 C 870.882812 194.765625 872.433594 191.652344 871.472656 188.769531 C 870.511719 185.890625 867.40625 184.328125 864.535156 185.285156 C 861.664062 186.242188 860.117188 189.351562 861.078125 192.234375 C 862.039062 195.117188 865.144531 196.679688 868.015625 195.722656 Z M 868.015625 195.722656 "/></clipPath><clipPath id="00d234e334"><path d="M 576 282 L 581 282 L 581 287 L 576 287 Z M 576 282 "/></clipPath><clipPath id="3948046d05"><path d="M 580.78125 283.53125 L 578.707031 287.164062 L 576.058594 285.648438 L 578.132812 282.019531 Z M 580.78125 283.53125 "/></clipPath><clipPath id="8d4fb1fcd7"><path d="M 579.746094 285.34375 C 580.320312 284.34375 580.191406 283.195312 579.457031 282.777344 C 578.726562 282.355469 577.671875 282.828125 577.097656 283.828125 C 576.527344 284.832031 576.65625 285.980469 577.386719 286.398438 C 578.117188 286.816406 579.175781 286.34375 579.746094 285.34375 Z M 579.746094 285.34375 "/></clipPath><clipPath id="4117abbb5c"><path d="M 0.375 0.148438 L 4.449219 0.148438 L 4.449219 4.941406 L 0.375 4.941406 Z M 0.375 0.148438 "/></clipPath><clipPath id="3896ada2c8"><path d="M 4.78125 1.53125 L 2.707031 5.164062 L 0.0585938 3.648438 L 2.132812 0.0195312 Z M 4.78125 1.53125 "/></clipPath><clipPath id="209115e5fa"><path d="M 3.746094 3.34375 C 4.320312 2.34375 4.191406 1.195312 3.457031 0.777344 C 2.726562 0.355469 1.671875 0.828125 1.097656 1.828125 C 0.527344 2.832031 0.65625 3.980469 1.386719 4.398438 C 2.117188 4.816406 3.175781 4.34375 3.746094 3.34375 Z M 3.746094 3.34375 "/></clipPath><clipPath id="850950ef5d"><rect x="0" width="5" y="0" height="5"/></clipPath><clipPath id="c297f96743"><path d="M 850 150 L 854 150 L 854 155 L 850 155 Z M 850 150 "/></clipPath><clipPath id="e1b827930a"><path d="M 854.644531 151.050781 L 852.566406 154.679688 L 849.917969 153.167969 L 851.996094 149.535156 Z M 854.644531 151.050781 "/></clipPath><clipPath id="53265cdf60"><path d="M 853.609375 152.863281 C 854.179688 151.859375 854.050781 150.710938 853.320312 150.292969 C 852.585938 149.875 851.53125 150.347656 850.957031 151.347656 C 850.386719 152.347656 850.515625 153.496094 851.246094 153.917969 C 851.976562 154.335938 853.035156 153.863281 853.609375 152.863281 Z M 853.609375 152.863281 "/></clipPath><clipPath id="46da91dce1"><path d="M 0.371094 0 L 4 0 L 4 4.378906 L 0.371094 4.378906 Z M 0.371094 0 "/></clipPath><clipPath id="c04e4b5e74"><path d="M 4.644531 1.050781 L 2.566406 4.679688 L -0.0820312 3.167969 L 1.996094 -0.464844 Z M 4.644531 1.050781 "/></clipPath><clipPath id="4c5308ac60"><path d="M 3.609375 2.863281 C 4.179688 1.859375 4.050781 0.710938 3.320312 0.292969 C 2.585938 -0.125 1.53125 0.347656 0.957031 1.347656 C 0.386719 2.347656 0.515625 3.496094 1.246094 3.917969 C 1.976562 4.335938 3.035156 3.863281 3.609375 2.863281 Z M 3.609375 2.863281 "/></clipPath><clipPath id="528e6dead1"><rect x="0" width="4" y="0" height="5"/></clipPath><clipPath id="4ab58d23a9"><path d="M 660 79 L 671 79 L 671 91 L 660 91 Z M 660 79 "/></clipPath><clipPath id="271a7c86f6"><path d="M 671.875 88.976562 L 661.253906 90.980469 L 659.25 80.363281 L 669.867188 78.359375 Z M 671.875 88.976562 "/></clipPath><clipPath id="81802a22a6"><path d="M 671.867188 88.976562 L 661.40625 90.953125 L 659.433594 80.492188 L 669.894531 78.515625 Z M 671.867188 88.976562 "/></clipPath><clipPath id="01a16f6632"><path d="M 666.648438 89.960938 C 669.53125 89.417969 671.433594 86.664062 670.894531 83.816406 C 670.355469 80.964844 667.582031 79.09375 664.699219 79.640625 C 661.816406 80.183594 659.914062 82.9375 660.453125 85.785156 C 660.992188 88.636719 663.765625 90.507812 666.648438 89.960938 Z M 666.648438 89.960938 "/></clipPath><clipPath id="01cdce7129"><path d="M 674 123 L 679 123 L 679 127 L 674 127 Z M 674 123 "/></clipPath><clipPath id="9e57cd27bd"><path d="M 674.4375 123.535156 L 678.371094 123.015625 L 678.773438 126.039062 L 674.835938 126.558594 Z M 674.4375 123.535156 "/></clipPath><clipPath id="7bd982f4d0"><path d="M 676.402344 123.277344 C 675.316406 123.417969 674.527344 124.210938 674.636719 125.046875 C 674.75 125.882812 675.714844 126.445312 676.800781 126.300781 C 677.882812 126.15625 678.671875 125.363281 678.5625 124.527344 C 678.453125 123.691406 677.484375 123.132812 676.402344 123.277344 Z M 676.402344 123.277344 "/></clipPath><clipPath id="59437b32ba"><path d="M 0.417969 0 L 4.734375 0 L 4.734375 3.570312 L 0.417969 3.570312 Z M 0.417969 0 "/></clipPath><clipPath id="b7f402ba07"><path d="M 0.4375 0.535156 L 4.371094 0.015625 L 4.773438 3.039062 L 0.835938 3.558594 Z M 0.4375 0.535156 "/></clipPath><clipPath id="6b92c31f0b"><path d="M 2.402344 0.277344 C 1.316406 0.417969 0.527344 1.210938 0.636719 2.046875 C 0.75 2.882812 1.714844 3.445312 2.800781 3.300781 C 3.882812 3.15625 4.671875 2.363281 4.5625 1.527344 C 4.453125 0.691406 3.484375 0.132812 2.402344 0.277344 Z M 2.402344 0.277344 "/></clipPath><clipPath id="56d9b64d2e"><rect x="0" width="5" y="0" height="4"/></clipPath><clipPath id="1476fbc75c"><path d="M 0.332031 315 L 371 315 L 371 424 L 0.332031 424 Z M 0.332031 315 "/></clipPath><clipPath id="72726e00d8"><rect x="0" width="39" y="0" height="30"/></clipPath><clipPath id="9a1e88d730"><rect x="0" width="58" y="0" height="30"/></clipPath><clipPath id="e605568afd"><rect x="0" width="38" y="0" height="31"/></clipPath><clipPath id="8515d4429d"><rect x="0" width="57" y="0" height="30"/></clipPath><clipPath id="d5818c782b"><rect x="0" width="39" y="0" height="30"/></clipPath><clipPath id="3d73303d20"><rect x="0" width="57" y="0" height="30"/></clipPath><clipPath id="df0f93ae5c"><path d="M 370 313 L 374 313 L 374 318 L 370 318 Z M 370 313 "/></clipPath><clipPath id="81371b8df7"><path d="M 374.097656 314.476562 L 372.019531 318.105469 L 369.371094 316.59375 L 371.449219 312.960938 Z M 374.097656 314.476562 "/></clipPath><clipPath id="e232cedd8e"><path d="M 373.0625 316.289062 C 373.632812 315.285156 373.503906 314.136719 372.773438 313.71875 C 372.042969 313.300781 370.984375 313.773438 370.414062 314.773438 C 369.839844 315.773438 369.96875 316.921875 370.703125 317.339844 C 371.433594 317.761719 372.488281 317.289062 373.0625 316.289062 Z M 373.0625 316.289062 "/></clipPath><clipPath id="e4b8e2ee26"><path d="M 0 0.0703125 L 3.8125 0.0703125 L 3.8125 4.867188 L 0 4.867188 Z M 0 0.0703125 "/></clipPath><clipPath id="c76cc60399"><path d="M 4.097656 1.476562 L 2.019531 5.105469 L -0.628906 3.59375 L 1.449219 -0.0390625 Z M 4.097656 1.476562 "/></clipPath><clipPath id="236ed96428"><path d="M 3.0625 3.289062 C 3.632812 2.285156 3.503906 1.136719 2.773438 0.71875 C 2.042969 0.300781 0.984375 0.773438 0.414062 1.773438 C -0.160156 2.773438 -0.03125 3.921875 0.703125 4.339844 C 1.433594 4.761719 2.488281 4.289062 3.0625 3.289062 Z M 3.0625 3.289062 "/></clipPath><clipPath id="769dc7f044"><rect x="0" width="4" y="0" height="5"/></clipPath><clipPath id="e93e1af742"><rect x="0" width="39" y="0" height="30"/></clipPath><clipPath id="1e183d6554"><rect x="0" width="57" y="0" height="31"/></clipPath><clipPath id="a0375170bf"><path d="M 340 271 L 352 271 L 352 283 L 340 283 Z M 340 271 "/></clipPath><clipPath id="66463ff841"><path d="M 353.597656 278.09375 L 344.894531 284.496094 L 338.488281 275.792969 L 347.191406 269.390625 Z M 353.597656 278.09375 "/></clipPath><clipPath id="9407617039"><path d="M 353.59375 278.089844 L 344.664062 284.660156 L 338.097656 275.730469 L 347.023438 269.160156 Z M 353.59375 278.089844 "/></clipPath><clipPath id="51e01dc92d"><path d="M 349.179688 281.335938 C 351.617188 279.542969 352.132812 276.105469 350.332031 273.660156 C 348.53125 271.210938 345.097656 270.679688 342.660156 272.472656 C 340.222656 274.265625 339.707031 277.703125 341.507812 280.152344 C 343.308594 282.597656 346.746094 283.128906 349.179688 281.335938 Z M 349.179688 281.335938 "/></clipPath><clipPath id="1224f5e1e1"><rect x="0" width="959" y="0" height="424"/></clipPath></defs><g id="71e9437da0"><g clip-rule="nonzero" clip-path="url(#00aae83ba6)"><g transform="matrix(1,0,0,1,0.000000000000000056,0)"><g clip-path="url(#1224f5e1e1)"><g clip-rule="nonzero" clip-path="url(#0b90e05570)"><g clip-rule="nonzero" clip-path="url(#8c81f4e77e)"><g clip-rule="nonzero" clip-path="url(#375afe2316)"><g clip-rule="nonzero" clip-path="url(#a2c5f2313b)"><path style="fill:none;stroke-width:2.495845;stroke-linecap:butt;stroke-linejoin:miter;stroke:#ffbd59;stroke-opacity:1;stroke-miterlimit:4;" d="M 4.5615 0.000993447 C 2.041132 0.000655869 0.000272282 2.0497 -0.000608692 4.581786 C 0.000438582 7.111251 2.044391 9.164522 4.562137 9.162932 C 7.082505 9.163269 9.125293 7.111604 9.124246 4.582139 C 9.125127 2.050053 7.081867 0.00133102 4.5615 0.000993447 Z M 4.5615 0.000993447 " transform="matrix(-0.967026,0.711521,-0.711521,-0.967026,612.005544,324.403794)"/>
<!-- Q2 Yıldız -->
<g class="quarter-star" data-quarter="q2" style="cursor:pointer;">
  <path id="star-q2" style="fill:#ffae1e;fill-opacity:0.8;" d="M 612 319.4 L 614.5 326.9 L 622.5 326.9 L 616.25 331.4 L 618.75 338.9 L 612 334.4 L 605.25 338.9 L 607.75 331.4 L 601.5 326.9 L 609.5 326.9 Z"/>
</g></g></g></g></g><g clip-rule="nonzero" clip-path="url(#c28c54210c)"><g clip-rule="nonzero" clip-path="url(#0205d4b726)"><g clip-rule="nonzero" clip-path="url(#88cfcb3257)"><g clip-rule="nonzero" clip-path="url(#16ae190b62)"><path style="fill:none;stroke-width:2.495845;stroke-linecap:butt;stroke-linejoin:miter;stroke:#ffbd59;stroke-opacity:1;stroke-miterlimit:4;" d="M 4.561204 -0.000766623 C 2.043518 0.000305768 0.00121297 2.05297 -0.00182997 4.583003 C -0.0007574 7.110978 2.041618 9.163571 4.562391 9.163528 C 7.083164 9.163484 9.12444 7.113907 9.124396 4.582845 C 9.124352 2.051784 7.081976 -0.000810182 4.561204 -0.000766623 Z M 4.561204 -0.000766623 " transform="matrix(-1.13898,0.379638,-0.379638,-1.13898,873.210455,193.990176)"/>
<!-- Q3 Yıldız -->
<path id="star-q3" style="fill:#ffae1e;fill-opacity:0.8;cursor:pointer;" d="M 873 194 l3 -8 l3 8 l-8 -3 l8 -3 l-8 3 l8 3 l-3 -8 z" class="quarter-star" data-quarter="q3"/></g></g></g></g><path style="fill:none;stroke-width:1;stroke-linecap:butt;stroke-linejoin:miter;stroke:#ffbd59;stroke-opacity:1;stroke-miterlimit:4;" d="M -0.00120778 0.499872 L 34.185776 0.501706 " transform="matrix(0.65957,1.003179,-1.003179,0.65957,579.025696,284.167604)"/><path style="fill:none;stroke-width:1;stroke-linecap:butt;stroke-linejoin:miter;stroke:#ffbd59;stroke-opacity:1;stroke-miterlimit:4;" d="M -0.00168304 0.500094 L 29.503276 0.498565 " transform="matrix(0.411816,1.127745,-1.127745,0.411816,852.951391,151.803764)"/><g clip-rule="nonzero" clip-path="url(#00d234e334)"><g clip-rule="nonzero" clip-path="url(#3948046d05)"><g clip-rule="nonzero" clip-path="url(#8d4fb1fcd7)"><g transform="matrix(1,0,0,1,576,282)"><g id="52ea46ec39" clip-path="url(#850950ef5d)"><g clip-rule="nonzero" clip-path="url(#4117abbb5c)"><g clip-rule="nonzero" clip-path="url(#3896ada2c8)"><g clip-rule="nonzero" clip-path="url(#209115e5fa)"><path style=" stroke:none;fill-rule:nonzero;fill:#ffbd59;fill-opacity:1;" d="M 4.78125 1.53125 L 2.710938 5.152344 L 0.0625 3.640625 L 2.132812 0.0195312 Z M 4.78125 1.53125 "/></g></g></g></g></g></g></g></g><g clip-rule="nonzero" clip-path="url(#c297f96743)"><g clip-rule="nonzero" clip-path="url(#e1b827930a)"><g clip-rule="nonzero" clip-path="url(#53265cdf60)"><g transform="matrix(1,0,0,1,850,150)"><g id="5b227b41fe" clip-path="url(#528e6dead1)"><g clip-rule="nonzero" clip-path="url(#46da91dce1)"><g clip-rule="nonzero" clip-path="url(#c04e4b5e74)"><g clip-rule="nonzero" clip-path="url(#4c5308ac60)"><path style=" stroke:none;fill-rule:nonzero;fill:#ffbd59;fill-opacity:1;" d="M 4.644531 1.050781 L 2.574219 4.671875 L -0.0742188 3.15625 L 1.996094 -0.464844 Z M 4.644531 1.050781 "/></g></g></g></g></g></g></g></g><path style="fill:none;stroke-width:1;stroke-linecap:butt;stroke-linejoin:miter;stroke:#ffbd59;stroke-opacity:1;stroke-miterlimit:4;" d="M -0.000867418 0.498473 L 30.124418 0.499859 " transform="matrix(-0.325647,-1.155576,1.155576,-0.325647,675.872913,124.942574)"/><g clip-rule="nonzero" clip-path="url(#4ab58d23a9)"><g clip-rule="nonzero" clip-path="url(#271a7c86f6)"><g clip-rule="nonzero" clip-path="url(#81802a22a6)"><g clip-rule="nonzero" clip-path="url(#01a16f6632)"><path style="fill:none;stroke-width:2.495845;stroke-linecap:butt;stroke-linejoin:miter;stroke:#ffbd59;stroke-opacity:1;stroke-miterlimit:4;" d="M 4.424481 0.000591927 C 1.981086 -0.000545518 -0.00152987 1.959422 -0.000431049 4.373439 C 0.0000640596 6.790653 1.980847 8.750711 4.424845 8.748651 C 6.86824 8.749788 8.850856 6.789821 8.849757 4.375804 C 8.849262 1.95859 6.86848 -0.00146775 4.424481 0.000591927 Z M 4.424481 0.000591927 " transform="matrix(-1.179735,0.222768,-0.222768,-1.179735,671.868286,88.976002)"/>
<!-- Q4 Yıldız -->
<path id="star-q4" style="fill:#ffae1e;fill-opacity:0.8;cursor:pointer;" d="M 672 89 l3 -8 l3 8 l-8 -3 l8 -3 l-8 3 l8 3 l-3 -8 z" class="quarter-star" data-quarter="q4"/></g></g></g></g><g clip-rule="nonzero" clip-path="url(#01cdce7129)"><g clip-rule="nonzero" clip-path="url(#9e57cd27bd)"><g clip-rule="nonzero" clip-path="url(#7bd982f4d0)"><g transform="matrix(1,0,0,1,674,123)"><g id="dc23998bf9" clip-path="url(#56d9b64d2e)"><g clip-rule="nonzero" clip-path="url(#59437b32ba)"><g clip-rule="nonzero" clip-path="url(#b7f402ba07)"><g clip-rule="nonzero" clip-path="url(#6b92c31f0b)"><path style=" stroke:none;fill-rule:nonzero;fill:#ffbd59;fill-opacity:1;" d="M 0.4375 0.535156 L 4.359375 0.015625 L 4.761719 3.042969 L 0.835938 3.558594 Z M 0.4375 0.535156 "/></g></g></g></g></g></g></g></g><g clip-rule="nonzero" clip-path="url(#1476fbc75c)"><path style=" stroke:none;fill-rule:nonzero;fill:#ffbd59;fill-opacity:1;" d="M 370.910156 316.621094 L 367.449219 317.621094 L 367.117188 316.464844 L 370.578125 315.46875 M 366.296875 317.953125 L 362.835938 318.953125 L 362.503906 317.796875 L 365.960938 316.800781 M 361.683594 319.285156 L 358.222656 320.285156 L 357.886719 319.128906 L 361.347656 318.132812 M 357.066406 320.617188 L 353.609375 321.617188 L 353.273438 320.464844 L 356.734375 319.464844 M 352.453125 321.949219 L 348.992188 322.949219 L 348.660156 321.796875 L 352.121094 320.796875 M 347.839844 323.28125 L 344.378906 324.28125 L 344.046875 323.128906 L 347.507812 322.128906 M 343.226562 324.613281 L 339.765625 325.613281 L 339.433594 324.460938 L 342.894531 323.460938 M 338.613281 325.945312 L 335.152344 326.945312 L 334.820312 325.792969 L 338.28125 324.792969 M 334 327.277344 L 330.539062 328.277344 L 330.207031 327.125 L 333.664062 326.125 M 329.386719 328.609375 L 325.925781 329.609375 L 325.589844 328.457031 L 329.050781 327.457031 M 324.769531 329.941406 L 321.308594 330.941406 L 320.976562 329.789062 L 324.4375 328.789062 M 320.15625 331.273438 L 316.695312 332.273438 L 316.363281 331.121094 L 319.824219 330.121094 M 315.542969 332.605469 L 312.082031 333.605469 L 311.75 332.453125 L 315.210938 331.453125 M 310.929688 333.9375 L 307.46875 334.9375 L 307.136719 333.785156 L 310.597656 332.785156 M 306.316406 335.269531 L 302.855469 336.269531 L 302.523438 335.117188 L 305.980469 334.117188 M 301.703125 336.601562 L 298.242188 337.601562 L 297.90625 336.449219 L 301.367188 335.449219 M 297.085938 337.933594 L 293.628906 338.933594 L 293.292969 337.78125 L 296.753906 336.78125 M 292.472656 339.265625 L 289.011719 340.265625 L 288.679688 339.113281 L 292.140625 338.113281 M 287.859375 340.601562 L 284.398438 341.597656 L 284.066406 340.445312 L 287.527344 339.445312 M 283.246094 341.933594 L 279.785156 342.929688 L 279.453125 341.777344 L 282.914062 340.777344 M 278.632812 343.265625 L 275.171875 344.261719 L 274.839844 343.109375 L 278.300781 342.109375 M 274.019531 344.597656 L 270.558594 345.59375 L 270.226562 344.441406 L 273.683594 343.441406 M 269.40625 345.929688 L 265.945312 346.925781 L 265.609375 345.773438 L 269.070312 344.773438 M 264.789062 347.261719 L 261.332031 348.257812 L 260.996094 347.105469 L 264.457031 346.105469 M 260.175781 348.59375 L 256.714844 349.589844 L 256.382812 348.4375 L 259.84375 347.4375 M 255.5625 349.925781 L 252.101562 350.925781 L 251.769531 349.769531 L 255.230469 348.769531 M 250.949219 351.257812 L 247.488281 352.257812 L 247.15625 351.101562 L 250.617188 350.101562 M 246.335938 352.589844 L 242.875 353.589844 L 242.542969 352.433594 L 246.003906 351.4375 M 241.722656 353.921875 L 238.261719 354.921875 L 237.929688 353.765625 L 241.386719 352.769531 M 237.109375 355.253906 L 233.648438 356.253906 L 233.3125 355.097656 L 236.773438 354.101562 M 232.492188 356.585938 L 229.03125 357.585938 L 228.699219 356.429688 L 232.160156 355.433594 M 227.878906 357.917969 L 224.417969 358.917969 L 224.085938 357.761719 L 227.546875 356.765625 M 223.265625 359.25 L 219.804688 360.25 L 219.472656 359.09375 L 222.933594 358.097656 M 218.652344 360.582031 L 215.191406 361.582031 L 214.859375 360.425781 L 218.320312 359.429688 M 214.039062 361.914062 L 210.578125 362.914062 L 210.246094 361.761719 L 213.703125 360.761719 M 209.425781 363.246094 L 205.964844 364.246094 L 205.628906 363.09375 L 209.089844 362.09375 M 204.808594 364.578125 L 201.351562 365.578125 L 201.015625 364.425781 L 204.476562 363.425781 M 200.195312 365.910156 L 196.734375 366.910156 L 196.402344 365.757812 L 199.863281 364.757812 M 195.582031 367.242188 L 192.121094 368.242188 L 191.789062 367.089844 L 195.25 366.089844 M 190.96875 368.574219 L 187.507812 369.574219 L 187.175781 368.421875 L 190.636719 367.421875 M 186.355469 369.90625 L 182.894531 370.90625 L 182.5625 369.753906 L 186.023438 368.753906 M 181.742188 371.238281 L 178.28125 372.238281 L 177.949219 371.085938 L 181.40625 370.085938 M 177.128906 372.570312 L 173.667969 373.570312 L 173.332031 372.417969 L 176.792969 371.417969 M 172.511719 373.902344 L 169.054688 374.902344 L 168.71875 373.75 L 172.179688 372.75 M 167.898438 375.234375 L 164.4375 376.234375 L 164.105469 375.082031 L 167.566406 374.082031 M 163.285156 376.566406 L 159.824219 377.566406 L 159.492188 376.414062 L 162.953125 375.414062 M 158.671875 377.898438 L 155.210938 378.898438 L 154.878906 377.746094 L 158.339844 376.746094 M 154.058594 379.230469 L 150.597656 380.230469 L 150.265625 379.078125 L 153.726562 378.078125 M 149.445312 380.5625 L 145.984375 381.5625 L 145.652344 380.410156 L 149.109375 379.410156 M 144.832031 381.898438 L 141.371094 382.894531 L 141.035156 381.742188 L 144.496094 380.742188 M 140.214844 383.230469 L 136.753906 384.226562 L 136.421875 383.074219 L 139.882812 382.074219 M 135.601562 384.5625 L 132.140625 385.558594 L 131.808594 384.40625 L 135.269531 383.40625 M 130.988281 385.894531 L 127.527344 386.890625 L 127.195312 385.738281 L 130.65625 384.738281 M 126.375 387.226562 L 122.914062 388.222656 L 122.582031 387.070312 L 126.042969 386.070312 M 121.761719 388.558594 L 118.300781 389.554688 L 117.96875 388.402344 L 121.425781 387.402344 M 117.148438 389.890625 L 113.6875 390.886719 L 113.351562 389.734375 L 116.8125 388.734375 M 112.53125 391.222656 L 109.074219 392.222656 L 108.738281 391.066406 L 112.199219 390.066406 M 107.917969 392.554688 L 104.457031 393.554688 L 104.125 392.398438 L 107.585938 391.398438 M 103.304688 393.886719 L 99.84375 394.886719 L 99.511719 393.730469 L 102.972656 392.734375 M 98.691406 395.21875 L 95.230469 396.21875 L 94.898438 395.0625 L 98.359375 394.066406 M 94.078125 396.550781 L 90.617188 397.550781 L 90.285156 396.394531 L 93.746094 395.398438 M 89.464844 397.882812 L 86.003906 398.882812 L 85.671875 397.726562 L 89.128906 396.730469 M 84.851562 399.214844 L 81.390625 400.214844 L 81.054688 399.058594 L 84.515625 398.0625 M 80.234375 400.546875 L 76.777344 401.546875 L 76.441406 400.390625 L 79.902344 399.394531 M 75.621094 401.878906 L 72.160156 402.878906 L 71.828125 401.722656 L 75.289062 400.726562 M 71.007812 403.210938 L 67.546875 404.210938 L 67.214844 403.058594 L 70.675781 402.058594 M 66.394531 404.542969 L 62.933594 405.542969 L 62.601562 404.390625 L 66.0625 403.390625 M 61.78125 405.875 L 58.320312 406.875 L 57.988281 405.722656 L 61.449219 404.722656 M 57.167969 407.207031 L 53.707031 408.207031 L 53.375 407.054688 L 56.832031 406.054688 M 52.554688 408.539062 L 49.09375 409.539062 L 48.757812 408.386719 L 52.21875 407.386719 M 47.9375 409.871094 L 44.476562 410.871094 L 44.144531 409.71875 L 47.605469 408.71875 M 43.324219 411.203125 L 39.863281 412.203125 L 39.53125 411.050781 L 42.992188 410.050781 M 38.710938 412.535156 L 35.25 413.535156 L 34.917969 412.382812 L 38.378906 411.382812 M 34.097656 413.867188 L 30.636719 414.867188 L 30.304688 413.714844 L 33.765625 412.714844 M 29.484375 415.199219 L 26.023438 416.199219 L 25.691406 415.046875 L 29.148438 414.046875 M 24.871094 416.53125 L 21.410156 417.53125 L 21.074219 416.378906 L 24.535156 415.378906 M 20.253906 417.863281 L 16.796875 418.863281 L 16.460938 417.710938 L 19.921875 416.710938 M 15.640625 419.195312 L 12.179688 420.195312 L 11.847656 419.042969 L 15.308594 418.042969 M 11.027344 420.527344 L 7.566406 421.527344 L 7.234375 420.375 L 10.695312 419.375 M 6.414062 421.859375 L 2.953125 422.859375 L 2.621094 421.707031 L 6.082031 420.707031 M 1.800781 423.195312 L 0.660156 423.523438 L 0.328125 422.367188 L 1.46875 422.039062 "/></g><path style=" stroke:none;fill-rule:nonzero;fill:#ffbd59;fill-opacity:1;" d="M 577.011719 284.785156 L 573.453125 285.332031 L 573.269531 284.144531 L 576.832031 283.601562 M 572.265625 285.515625 L 568.707031 286.058594 L 568.523438 284.875 L 572.082031 284.328125 M 567.519531 286.242188 L 563.957031 286.789062 L 563.777344 285.601562 L 567.335938 285.054688 M 562.773438 286.96875 L 559.210938 287.515625 L 559.03125 286.328125 L 562.589844 285.785156 M 558.023438 287.699219 L 554.464844 288.246094 L 554.28125 287.058594 L 557.84375 286.511719 M 553.277344 288.425781 L 549.71875 288.972656 L 549.535156 287.785156 L 553.097656 287.238281 M 548.53125 289.15625 L 544.972656 289.699219 L 544.789062 288.511719 L 548.347656 287.96875 M 543.785156 289.882812 L 540.222656 290.429688 L 540.042969 289.242188 L 543.601562 288.695312 M 539.039062 290.609375 L 535.476562 291.15625 L 535.296875 289.96875 L 538.855469 289.421875 M 534.292969 291.339844 L 530.730469 291.882812 L 530.550781 290.699219 L 534.109375 290.152344 M 529.542969 292.066406 L 525.984375 292.613281 L 525.800781 291.425781 L 529.363281 290.878906 M 524.796875 292.792969 L 521.238281 293.339844 L 521.054688 292.152344 L 524.617188 291.609375 M 520.050781 293.523438 L 516.492188 294.066406 L 516.308594 292.882812 L 519.867188 292.335938 M 515.304688 294.25 L 511.742188 294.796875 L 511.5625 293.609375 L 515.121094 293.0625 M 510.558594 294.976562 L 506.996094 295.523438 L 506.816406 294.335938 L 510.375 293.792969 M 505.808594 295.707031 L 502.25 296.253906 L 502.066406 295.066406 L 505.628906 294.519531 M 501.0625 296.433594 L 497.503906 296.980469 L 497.320312 295.792969 L 500.882812 295.246094 M 496.316406 297.164062 L 492.757812 297.707031 L 492.574219 296.523438 L 496.132812 295.976562 M 491.570312 297.890625 L 488.007812 298.4375 L 487.828125 297.25 L 491.386719 296.703125 M 486.824219 298.617188 L 483.261719 299.164062 L 483.082031 297.976562 L 486.640625 297.429688 M 482.074219 299.347656 L 478.515625 299.890625 L 478.332031 298.707031 L 481.894531 298.160156 M 477.328125 300.074219 L 473.769531 300.621094 L 473.585938 299.433594 L 477.148438 298.886719 M 472.582031 300.800781 L 469.023438 301.347656 L 468.839844 300.160156 L 472.398438 299.617188 M 467.835938 301.53125 L 464.273438 302.074219 L 464.09375 300.890625 L 467.652344 300.34375 M 463.089844 302.257812 L 459.527344 302.804688 L 459.347656 301.617188 L 462.90625 301.070312 M 458.339844 302.984375 L 454.78125 303.53125 L 454.597656 302.34375 L 458.160156 301.800781 M 453.59375 303.714844 L 450.035156 304.261719 L 449.851562 303.074219 L 453.414062 302.527344 M 448.847656 304.441406 L 445.289062 304.988281 L 445.105469 303.800781 L 448.667969 303.253906 M 444.101562 305.171875 L 440.542969 305.714844 L 440.359375 304.53125 L 443.917969 303.984375 M 439.355469 305.898438 L 435.792969 306.445312 L 435.613281 305.257812 L 439.171875 304.710938 M 434.609375 306.625 L 431.046875 307.171875 L 430.867188 305.984375 L 434.425781 305.4375 M 429.859375 307.355469 L 426.300781 307.898438 L 426.117188 306.714844 L 429.679688 306.167969 M 425.113281 308.082031 L 421.554688 308.628906 L 421.371094 307.441406 L 424.933594 306.894531 M 420.367188 308.808594 L 416.808594 309.355469 L 416.625 308.167969 L 420.183594 307.625 M 415.621094 309.539062 L 412.058594 310.085938 L 411.878906 308.898438 L 415.4375 308.351562 M 410.875 310.265625 L 407.3125 310.8125 L 407.132812 309.625 L 410.691406 309.078125 M 406.125 310.992188 L 402.566406 311.539062 L 402.382812 310.351562 L 405.945312 309.808594 M 401.378906 311.722656 L 397.820312 312.269531 L 397.636719 311.082031 L 401.199219 310.535156 M 396.632812 312.449219 L 393.074219 312.996094 L 392.890625 311.808594 L 396.449219 311.261719 M 391.886719 313.179688 L 388.324219 313.722656 L 388.144531 312.539062 L 391.703125 311.992188 M 387.140625 313.90625 L 383.578125 314.453125 L 383.398438 313.265625 L 386.957031 312.71875 M 382.390625 314.632812 L 378.832031 315.179688 L 378.648438 313.992188 L 382.210938 313.445312 M 377.644531 315.363281 L 374.085938 315.90625 L 373.902344 314.722656 L 377.464844 314.175781 M 372.898438 316.089844 L 372.640625 316.128906 L 372.460938 314.941406 L 372.714844 314.902344 "/><path style=" stroke:none;fill-rule:nonzero;fill:#ffbd59;fill-opacity:1;" d="M 676.230469 126.527344 L 674.34375 129.59375 L 673.320312 128.96875 L 675.207031 125.898438 M 673.71875 130.617188 L 671.832031 133.6875 L 670.808594 133.058594 L 672.695312 129.992188 M 671.203125 134.710938 L 669.316406 137.78125 L 668.296875 137.152344 L 670.179688 134.082031 M 668.691406 138.800781 L 666.804688 141.871094 L 665.78125 141.242188 L 667.667969 138.175781 M 666.175781 142.894531 L 664.289062 145.964844 L 663.269531 145.335938 L 665.152344 142.265625 M 663.664062 146.988281 L 661.777344 150.054688 L 660.753906 149.425781 L 662.640625 146.359375 M 661.148438 151.078125 L 659.261719 154.148438 L 658.242188 153.519531 L 660.125 150.449219 M 658.636719 155.171875 L 656.75 158.238281 L 655.726562 157.609375 L 657.613281 154.542969 M 656.121094 159.261719 L 654.234375 162.332031 L 653.214844 161.703125 L 655.097656 158.632812 M 653.609375 163.355469 L 651.722656 166.421875 L 650.699219 165.792969 L 652.585938 162.726562 M 651.09375 167.445312 L 649.207031 170.515625 L 648.1875 169.886719 L 650.070312 166.816406 M 648.582031 171.539062 L 646.695312 174.605469 L 645.671875 173.980469 L 647.558594 170.910156 M 646.066406 175.628906 L 644.183594 178.699219 L 643.160156 178.070312 L 645.042969 175 M 643.554688 179.722656 L 641.667969 182.792969 L 640.644531 182.164062 L 642.53125 179.09375 M 641.039062 183.8125 L 639.15625 186.882812 L 638.132812 186.253906 L 640.015625 183.1875 M 638.527344 187.90625 L 636.640625 190.976562 L 635.617188 190.347656 L 637.503906 187.277344 M 636.011719 191.996094 L 634.128906 195.066406 L 633.105469 194.4375 L 634.988281 191.371094 M 633.5 196.089844 L 631.613281 199.160156 L 630.589844 198.53125 L 632.476562 195.460938 M 630.984375 200.183594 L 629.101562 203.25 L 628.078125 202.621094 L 629.960938 199.554688 M 628.472656 204.273438 L 626.585938 207.34375 L 625.5625 206.714844 L 627.449219 203.644531 M 625.957031 208.367188 L 624.074219 211.433594 L 623.050781 210.804688 L 624.933594 207.738281 M 623.445312 212.457031 L 621.558594 215.527344 L 620.535156 214.898438 L 622.421875 211.828125 M 620.929688 216.550781 L 619.046875 219.617188 L 618.023438 218.992188 L 619.90625 215.921875 M 618.417969 220.640625 L 616.53125 223.710938 L 615.507812 223.082031 L 617.394531 220.011719 M 615.902344 224.734375 L 614.019531 227.800781 L 612.996094 227.175781 L 614.878906 224.105469 M 613.390625 228.824219 L 611.503906 231.894531 L 610.480469 231.265625 L 612.367188 228.195312 M 610.875 232.917969 L 608.992188 235.988281 L 607.96875 235.359375 L 609.851562 232.289062 M 608.363281 237.007812 L 606.476562 240.078125 L 605.453125 239.449219 L 607.339844 236.382812 M 605.847656 241.101562 L 603.964844 244.171875 L 602.941406 243.542969 L 604.824219 240.472656 M 603.335938 245.195312 L 601.449219 248.261719 L 600.425781 247.632812 L 602.3125 244.566406 M 600.820312 249.285156 L 598.9375 252.355469 L 597.914062 251.726562 L 599.796875 248.65625 M 598.308594 253.378906 L 596.421875 256.445312 L 595.398438 255.816406 L 597.285156 252.75 M 595.792969 257.46875 L 593.910156 260.539062 L 592.886719 259.910156 L 594.769531 256.839844 M 593.28125 261.5625 L 591.394531 264.628906 L 590.371094 264 L 592.257812 260.933594 M 590.765625 265.652344 L 588.882812 268.722656 L 587.859375 268.09375 L 589.742188 265.023438 M 588.253906 269.746094 L 586.367188 272.8125 L 585.34375 272.1875 L 587.230469 269.117188 M 585.738281 273.835938 L 583.855469 276.90625 L 582.832031 276.277344 L 584.71875 273.207031 M 583.226562 277.929688 L 581.339844 280.996094 L 580.316406 280.371094 L 582.203125 277.300781 M 580.710938 282.019531 L 580.027344 283.132812 L 579.007812 282.503906 L 579.691406 281.394531 "/><path style=" stroke:none;fill-rule:nonzero;fill:#ffbd59;fill-opacity:1;" d="M 850.632812 152.460938 L 847.074219 151.90625 L 847.257812 150.71875 L 850.820312 151.273438 M 845.890625 151.722656 L 842.328125 151.167969 L 842.515625 149.980469 L 846.074219 150.535156 M 841.144531 150.984375 L 837.585938 150.429688 L 837.769531 149.242188 L 841.328125 149.796875 M 836.398438 150.246094 L 832.839844 149.691406 L 833.023438 148.507812 L 836.582031 149.058594 M 831.652344 149.507812 L 828.09375 148.953125 L 828.277344 147.769531 L 831.835938 148.320312 M 826.90625 148.769531 L 823.347656 148.214844 L 823.53125 147.03125 L 827.09375 147.582031 M 822.164062 148.03125 L 818.601562 147.480469 L 818.789062 146.292969 L 822.347656 146.847656 M 817.417969 147.292969 L 813.859375 146.742188 L 814.042969 145.554688 L 817.601562 146.109375 M 812.671875 146.554688 L 809.113281 146.003906 L 809.296875 144.816406 L 812.855469 145.371094 M 807.925781 145.820312 L 804.367188 145.265625 L 804.550781 144.078125 L 808.109375 144.632812 M 803.179688 145.082031 L 799.621094 144.527344 L 799.804688 143.339844 L 803.367188 143.894531 M 798.4375 144.34375 L 794.875 143.789062 L 795.0625 142.601562 L 798.621094 143.15625 M 793.691406 143.605469 L 790.132812 143.050781 L 790.316406 141.863281 L 793.875 142.417969 M 788.945312 142.867188 L 785.386719 142.3125 L 785.570312 141.128906 L 789.128906 141.679688 M 784.199219 142.128906 L 780.640625 141.574219 L 780.824219 140.390625 L 784.382812 140.941406 M 779.453125 141.390625 L 775.894531 140.835938 L 776.078125 139.652344 L 779.640625 140.203125 M 774.710938 140.652344 L 771.148438 140.097656 L 771.335938 138.914062 L 774.894531 139.464844 M 769.964844 139.914062 L 766.40625 139.363281 L 766.589844 138.175781 L 770.148438 138.730469 M 765.21875 139.175781 L 761.660156 138.625 L 761.84375 137.4375 L 765.402344 137.992188 M 760.472656 138.4375 L 756.914062 137.886719 L 757.097656 136.699219 L 760.65625 137.253906 M 755.726562 137.703125 L 752.167969 137.148438 L 752.351562 135.960938 L 755.914062 136.515625 M 750.984375 136.964844 L 747.421875 136.410156 L 747.609375 135.222656 L 751.167969 135.777344 M 746.238281 136.226562 L 742.679688 135.671875 L 742.863281 134.484375 L 746.421875 135.039062 M 741.492188 135.488281 L 737.933594 134.933594 L 738.117188 133.746094 L 741.675781 134.300781 M 736.746094 134.75 L 733.1875 134.195312 L 733.371094 133.011719 L 736.929688 133.5625 M 732 134.011719 L 728.441406 133.457031 L 728.625 132.273438 L 732.1875 132.824219 M 727.257812 133.273438 L 723.695312 132.71875 L 723.882812 131.535156 L 727.441406 132.085938 M 722.511719 132.535156 L 718.953125 131.984375 L 719.136719 130.796875 L 722.695312 131.351562 M 717.765625 131.796875 L 714.207031 131.246094 L 714.390625 130.058594 L 717.949219 130.613281 M 713.019531 131.058594 L 709.460938 130.507812 L 709.644531 129.320312 L 713.203125 129.875 M 708.273438 130.324219 L 704.714844 129.769531 L 704.902344 128.582031 L 708.460938 129.136719 M 703.53125 129.585938 L 699.96875 129.03125 L 700.15625 127.84375 L 703.714844 128.398438 M 698.785156 128.847656 L 695.226562 128.292969 L 695.410156 127.105469 L 698.96875 127.660156 M 694.039062 128.109375 L 690.480469 127.554688 L 690.664062 126.367188 L 694.222656 126.921875 M 689.292969 127.371094 L 685.734375 126.816406 L 685.917969 125.632812 L 689.476562 126.183594 M 684.546875 126.632812 L 680.988281 126.078125 L 681.175781 124.894531 L 684.734375 125.445312 M 679.804688 125.894531 L 678.398438 125.675781 L 678.582031 124.488281 L 679.988281 124.707031 "/><path style=" stroke:none;fill-rule:nonzero;fill:#ffbd59;fill-opacity:1;" d="M 957.894531 0.683594 L 955.847656 3.648438 L 954.859375 2.964844 L 956.90625 0 M 955.164062 4.632812 L 953.113281 7.597656 L 952.128906 6.914062 L 954.175781 3.953125 M 952.433594 8.585938 L 950.382812 11.546875 L 949.394531 10.863281 L 951.445312 7.902344 M 949.699219 12.535156 L 947.652344 15.496094 L 946.664062 14.8125 L 948.714844 11.851562 M 946.96875 16.484375 L 944.921875 19.445312 L 943.933594 18.765625 L 945.980469 15.800781 M 944.238281 20.433594 L 942.191406 23.398438 L 941.203125 22.714844 L 943.25 19.75 M 941.507812 24.382812 L 939.457031 27.347656 L 938.472656 26.664062 L 940.519531 23.703125 M 938.777344 28.335938 L 936.726562 31.296875 L 935.738281 30.613281 L 937.789062 27.652344 M 936.042969 32.285156 L 933.996094 35.246094 L 933.007812 34.5625 L 935.058594 31.601562 M 933.3125 36.234375 L 931.265625 39.195312 L 930.277344 38.515625 L 932.324219 35.550781 M 930.582031 40.183594 L 928.535156 43.148438 L 927.546875 42.464844 L 929.59375 39.503906 M 927.851562 44.136719 L 925.800781 47.097656 L 924.816406 46.414062 L 926.863281 43.453125 M 925.121094 48.085938 L 923.070312 51.046875 L 922.082031 50.363281 L 924.132812 47.402344 M 922.386719 52.035156 L 920.339844 54.996094 L 919.351562 54.316406 L 921.402344 51.351562 M 919.65625 55.984375 L 917.609375 58.949219 L 916.621094 58.265625 L 918.667969 55.300781 M 916.925781 59.933594 L 914.878906 62.898438 L 913.890625 62.214844 L 915.9375 59.253906 M 914.195312 63.886719 L 912.144531 66.847656 L 911.160156 66.164062 L 913.207031 63.203125 M 911.464844 67.835938 L 909.414062 70.796875 L 908.425781 70.113281 L 910.476562 67.152344 M 908.730469 71.785156 L 906.683594 74.746094 L 905.695312 74.066406 L 907.746094 71.101562 M 906 75.734375 L 903.953125 78.699219 L 902.964844 78.015625 L 905.011719 75.050781 M 903.269531 79.683594 L 901.222656 82.648438 L 900.234375 81.964844 L 902.28125 79.003906 M 900.539062 83.636719 L 898.488281 86.597656 L 897.503906 85.914062 L 899.550781 82.953125 M 897.808594 87.585938 L 895.757812 90.546875 L 894.769531 89.863281 L 896.820312 86.902344 M 895.074219 91.535156 L 893.027344 94.496094 L 892.039062 93.816406 L 894.089844 90.851562 M 892.34375 95.484375 L 890.296875 98.449219 L 889.308594 97.765625 L 891.355469 94.800781 M 889.613281 99.433594 L 887.566406 102.398438 L 886.578125 101.714844 L 888.625 98.753906 M 886.882812 103.386719 L 884.832031 106.347656 L 883.847656 105.664062 L 885.894531 102.703125 M 884.152344 107.335938 L 882.101562 110.296875 L 881.113281 109.613281 L 883.164062 106.652344 M 881.417969 111.285156 L 879.371094 114.246094 L 878.382812 113.566406 L 880.433594 110.601562 M 878.6875 115.234375 L 876.640625 118.199219 L 875.652344 117.515625 L 877.699219 114.550781 M 875.957031 119.183594 L 873.910156 122.148438 L 872.921875 121.464844 L 874.96875 118.503906 M 873.226562 123.136719 L 871.175781 126.097656 L 870.191406 125.414062 L 872.238281 122.453125 M 870.496094 127.085938 L 868.445312 130.046875 L 867.457031 129.363281 L 869.507812 126.402344 M 867.761719 131.035156 L 865.714844 133.996094 L 864.726562 133.316406 L 866.777344 130.351562 M 865.03125 134.984375 L 862.984375 137.949219 L 861.996094 137.265625 L 864.042969 134.300781 M 862.300781 138.933594 L 860.253906 141.898438 L 859.265625 141.214844 L 861.3125 138.253906 M 859.570312 142.886719 L 857.519531 145.847656 L 856.535156 145.164062 L 858.582031 142.203125 M 856.839844 146.835938 L 854.789062 149.796875 L 853.800781 149.113281 L 855.851562 146.152344 M 854.105469 150.785156 L 854.074219 150.835938 L 853.085938 150.152344 L 853.121094 150.101562 "/><g transform="matrix(1,0,0,1,814,175)"><g id="a03c12854f" clip-path="url(#72726e00d8)"><g style="fill:#ffbd59;fill-opacity:1;"><g transform="translate(0.991953, 23.105113)"><path style="stroke:none" d="M 15.625 -8.296875 C 15.625 -6.585938 15.347656 -5.113281 14.796875 -3.875 C 14.253906 -2.632812 13.492188 -1.664062 12.515625 -0.96875 L 15.671875 1.53125 L 14.078125 3 L 10.34375 0.03125 C 9.75 0.175781 9.128906 0.25 8.484375 0.25 C 7.085938 0.25 5.847656 -0.09375 4.765625 -0.78125 C 3.679688 -1.46875 2.84375 -2.445312 2.25 -3.71875 C 1.65625 -4.988281 1.347656 -6.460938 1.328125 -8.140625 L 1.328125 -9.421875 C 1.328125 -11.128906 1.625 -12.632812 2.21875 -13.9375 C 2.8125 -15.25 3.648438 -16.253906 4.734375 -16.953125 C 5.816406 -17.648438 7.0625 -18 8.46875 -18 C 9.894531 -18 11.148438 -17.648438 12.234375 -16.953125 C 13.316406 -16.265625 14.148438 -15.269531 14.734375 -13.96875 C 15.328125 -12.675781 15.625 -11.164062 15.625 -9.4375 Z M 13.28125 -9.453125 C 13.28125 -11.535156 12.863281 -13.144531 12.03125 -14.28125 C 11.195312 -15.414062 10.007812 -15.984375 8.46875 -15.984375 C 6.988281 -15.984375 5.820312 -15.421875 4.96875 -14.296875 C 4.125 -13.171875 3.691406 -11.609375 3.671875 -9.609375 L 3.671875 -8.296875 C 3.671875 -6.265625 4.09375 -4.664062 4.9375 -3.5 C 5.789062 -2.332031 6.972656 -1.75 8.484375 -1.75 C 9.992188 -1.75 11.160156 -2.296875 11.984375 -3.390625 C 12.816406 -4.492188 13.25 -6.070312 13.28125 -8.125 Z M 13.28125 -9.453125 "/></g></g><g style="fill:#ffbd59;fill-opacity:1;"><g transform="translate(18.156549, 23.105113)"><path style="stroke:none" d="M 11 -5.96875 L 13.453125 -5.96875 L 13.453125 -4.125 L 11 -4.125 L 11 0 L 8.734375 0 L 8.734375 -4.125 L 0.640625 -4.125 L 0.640625 -5.453125 L 8.59375 -17.75 L 11 -17.75 Z M 3.203125 -5.96875 L 8.734375 -5.96875 L 8.734375 -14.671875 L 8.46875 -14.171875 Z M 3.203125 -5.96875 "/></g></g><g style="fill:#ffbd59;fill-opacity:1;"><g transform="translate(32.185678, 23.105113)"><path style="stroke:none" d=""/></g></g></g></g><g transform="matrix(1,0,0,1,889,175)"><g id="91a92d99c6" clip-path="url(#9a1e88d730)"><g style="fill:#ffbd59;fill-opacity:1;"><g transform="translate(1.044172, 22.886991)"><path style="stroke:none" d="M 13.109375 0 L 1.46875 0 L 1.46875 -1.625 L 7.625 -8.453125 C 8.53125 -9.484375 9.15625 -10.320312 9.5 -10.96875 C 9.84375 -11.613281 10.015625 -12.28125 10.015625 -12.96875 C 10.015625 -13.894531 9.734375 -14.65625 9.171875 -15.25 C 8.617188 -15.84375 7.875 -16.140625 6.9375 -16.140625 C 5.8125 -16.140625 4.9375 -15.820312 4.3125 -15.1875 C 3.695312 -14.550781 3.390625 -13.660156 3.390625 -12.515625 L 1.140625 -12.515625 C 1.140625 -14.148438 1.664062 -15.472656 2.71875 -16.484375 C 3.769531 -17.492188 5.175781 -18 6.9375 -18 C 8.582031 -18 9.882812 -17.5625 10.84375 -16.6875 C 11.8125 -15.820312 12.296875 -14.671875 12.296875 -13.234375 C 12.296875 -11.492188 11.179688 -9.414062 8.953125 -7 L 4.1875 -1.84375 L 13.109375 -1.84375 Z M 13.109375 0 "/></g></g><g style="fill:#ffbd59;fill-opacity:1;"><g transform="translate(15.063551, 22.886991)"><path style="stroke:none" d="M 12.609375 -7.578125 C 12.609375 -4.929688 12.15625 -2.960938 11.25 -1.671875 C 10.351562 -0.390625 8.941406 0.25 7.015625 0.25 C 5.128906 0.25 3.726562 -0.375 2.8125 -1.625 C 1.90625 -2.882812 1.4375 -4.765625 1.40625 -7.265625 L 1.40625 -10.28125 C 1.40625 -12.882812 1.851562 -14.820312 2.75 -16.09375 C 3.65625 -17.363281 5.070312 -18 7 -18 C 8.90625 -18 10.304688 -17.382812 11.203125 -16.15625 C 12.109375 -14.9375 12.578125 -13.050781 12.609375 -10.5 Z M 10.34375 -10.65625 C 10.34375 -12.5625 10.070312 -13.953125 9.53125 -14.828125 C 9 -15.703125 8.15625 -16.140625 7 -16.140625 C 5.84375 -16.140625 5 -15.703125 4.46875 -14.828125 C 3.945312 -13.960938 3.675781 -12.628906 3.65625 -10.828125 L 3.65625 -7.21875 C 3.65625 -5.300781 3.929688 -3.882812 4.484375 -2.96875 C 5.046875 -2.050781 5.890625 -1.59375 7.015625 -1.59375 C 8.128906 -1.59375 8.957031 -2.023438 9.5 -2.890625 C 10.039062 -3.753906 10.320312 -5.113281 10.34375 -6.96875 Z M 10.34375 -10.65625 "/></g></g><g style="fill:#ffbd59;fill-opacity:1;"><g transform="translate(29.082929, 22.886991)"><path style="stroke:none" d="M 13.109375 0 L 1.46875 0 L 1.46875 -1.625 L 7.625 -8.453125 C 8.53125 -9.484375 9.15625 -10.320312 9.5 -10.96875 C 9.84375 -11.613281 10.015625 -12.28125 10.015625 -12.96875 C 10.015625 -13.894531 9.734375 -14.65625 9.171875 -15.25 C 8.617188 -15.84375 7.875 -16.140625 6.9375 -16.140625 C 5.8125 -16.140625 4.9375 -15.820312 4.3125 -15.1875 C 3.695312 -14.550781 3.390625 -13.660156 3.390625 -12.515625 L 1.140625 -12.515625 C 1.140625 -14.148438 1.664062 -15.472656 2.71875 -16.484375 C 3.769531 -17.492188 5.175781 -18 6.9375 -18 C 8.582031 -18 9.882812 -17.5625 10.84375 -16.6875 C 11.8125 -15.820312 12.296875 -14.671875 12.296875 -13.234375 C 12.296875 -11.492188 11.179688 -9.414062 8.953125 -7 L 4.1875 -1.84375 L 13.109375 -1.84375 Z M 13.109375 0 "/></g></g><g style="fill:#ffbd59;fill-opacity:1;"><g transform="translate(43.102308, 22.886991)"><path style="stroke:none" d="M 12.234375 -13.125 C 12.234375 -12.238281 12 -11.445312 11.53125 -10.75 C 11.070312 -10.0625 10.441406 -9.519531 9.640625 -9.125 C 10.566406 -8.726562 11.300781 -8.148438 11.84375 -7.390625 C 12.382812 -6.628906 12.65625 -5.765625 12.65625 -4.796875 C 12.65625 -3.253906 12.132812 -2.023438 11.09375 -1.109375 C 10.0625 -0.203125 8.703125 0.25 7.015625 0.25 C 5.304688 0.25 3.9375 -0.207031 2.90625 -1.125 C 1.875 -2.039062 1.359375 -3.265625 1.359375 -4.796875 C 1.359375 -5.753906 1.617188 -6.617188 2.140625 -7.390625 C 2.671875 -8.160156 3.398438 -8.742188 4.328125 -9.140625 C 3.535156 -9.535156 2.910156 -10.078125 2.453125 -10.765625 C 2.003906 -11.453125 1.78125 -12.238281 1.78125 -13.125 C 1.78125 -14.613281 2.257812 -15.796875 3.21875 -16.671875 C 4.175781 -17.554688 5.441406 -18 7.015625 -18 C 8.566406 -18 9.820312 -17.554688 10.78125 -16.671875 C 11.75 -15.796875 12.234375 -14.613281 12.234375 -13.125 Z M 10.40625 -4.84375 C 10.40625 -5.832031 10.085938 -6.640625 9.453125 -7.265625 C 8.828125 -7.890625 8.003906 -8.203125 6.984375 -8.203125 C 5.972656 -8.203125 5.160156 -7.894531 4.546875 -7.28125 C 3.929688 -6.664062 3.625 -5.851562 3.625 -4.84375 C 3.625 -3.832031 3.921875 -3.035156 4.515625 -2.453125 C 5.109375 -1.878906 5.941406 -1.59375 7.015625 -1.59375 C 8.066406 -1.59375 8.894531 -1.882812 9.5 -2.46875 C 10.101562 -3.050781 10.40625 -3.84375 10.40625 -4.84375 Z M 7.015625 -16.140625 C 6.128906 -16.140625 5.410156 -15.863281 4.859375 -15.3125 C 4.304688 -14.769531 4.03125 -14.023438 4.03125 -13.078125 C 4.03125 -12.179688 4.300781 -11.453125 4.84375 -10.890625 C 5.382812 -10.335938 6.101562 -10.0625 7 -10.0625 C 7.90625 -10.0625 8.628906 -10.335938 9.171875 -10.890625 C 9.710938 -11.453125 9.984375 -12.179688 9.984375 -13.078125 C 9.984375 -13.984375 9.703125 -14.71875 9.140625 -15.28125 C 8.578125 -15.851562 7.867188 -16.140625 7.015625 -16.140625 Z M 7.015625 -16.140625 "/></g></g></g></g><g transform="matrix(1,0,0,1,617,71)"><g id="60d8c0da2d" clip-path="url(#e605568afd)"><g style="fill:#ffbd59;fill-opacity:1;"><g transform="translate(0.208756, 23.216761)"><path style="stroke:none" d="M 15.625 -8.296875 C 15.625 -6.585938 15.347656 -5.113281 14.796875 -3.875 C 14.253906 -2.632812 13.492188 -1.664062 12.515625 -0.96875 L 15.671875 1.53125 L 14.078125 3 L 10.34375 0.03125 C 9.75 0.175781 9.128906 0.25 8.484375 0.25 C 7.085938 0.25 5.847656 -0.09375 4.765625 -0.78125 C 3.679688 -1.46875 2.84375 -2.445312 2.25 -3.71875 C 1.65625 -4.988281 1.347656 -6.460938 1.328125 -8.140625 L 1.328125 -9.421875 C 1.328125 -11.128906 1.625 -12.632812 2.21875 -13.9375 C 2.8125 -15.25 3.648438 -16.253906 4.734375 -16.953125 C 5.816406 -17.648438 7.0625 -18 8.46875 -18 C 9.894531 -18 11.148438 -17.648438 12.234375 -16.953125 C 13.316406 -16.265625 14.148438 -15.269531 14.734375 -13.96875 C 15.328125 -12.675781 15.625 -11.164062 15.625 -9.4375 Z M 13.28125 -9.453125 C 13.28125 -11.535156 12.863281 -13.144531 12.03125 -14.28125 C 11.195312 -15.414062 10.007812 -15.984375 8.46875 -15.984375 C 6.988281 -15.984375 5.820312 -15.421875 4.96875 -14.296875 C 4.125 -13.171875 3.691406 -11.609375 3.671875 -9.609375 L 3.671875 -8.296875 C 3.671875 -6.265625 4.09375 -4.664062 4.9375 -3.5 C 5.789062 -2.332031 6.972656 -1.75 8.484375 -1.75 C 9.992188 -1.75 11.160156 -2.296875 11.984375 -3.390625 C 12.816406 -4.492188 13.25 -6.070312 13.28125 -8.125 Z M 13.28125 -9.453125 "/></g></g><g style="fill:#ffbd59;fill-opacity:1;"><g transform="translate(17.373352, 23.216761)"><path style="stroke:none" d="M 4.75 -9.96875 L 6.453125 -9.96875 C 7.515625 -9.988281 8.347656 -10.269531 8.953125 -10.8125 C 9.566406 -11.351562 9.875 -12.085938 9.875 -13.015625 C 9.875 -15.097656 8.835938 -16.140625 6.765625 -16.140625 C 5.785156 -16.140625 5.003906 -15.859375 4.421875 -15.296875 C 3.847656 -14.742188 3.5625 -14.007812 3.5625 -13.09375 L 1.296875 -13.09375 C 1.296875 -14.5 1.8125 -15.664062 2.84375 -16.59375 C 3.875 -17.53125 5.179688 -18 6.765625 -18 C 8.441406 -18 9.753906 -17.554688 10.703125 -16.671875 C 11.648438 -15.785156 12.125 -14.550781 12.125 -12.96875 C 12.125 -12.195312 11.875 -11.445312 11.375 -10.71875 C 10.875 -10 10.195312 -9.460938 9.34375 -9.109375 C 10.3125 -8.796875 11.0625 -8.28125 11.59375 -7.5625 C 12.132812 -6.851562 12.40625 -5.984375 12.40625 -4.953125 C 12.40625 -3.359375 11.882812 -2.09375 10.84375 -1.15625 C 9.800781 -0.21875 8.445312 0.25 6.78125 0.25 C 5.113281 0.25 3.753906 -0.203125 2.703125 -1.109375 C 1.660156 -2.015625 1.140625 -3.207031 1.140625 -4.6875 L 3.40625 -4.6875 C 3.40625 -3.75 3.710938 -3 4.328125 -2.4375 C 4.941406 -1.875 5.757812 -1.59375 6.78125 -1.59375 C 7.863281 -1.59375 8.691406 -1.875 9.265625 -2.4375 C 9.847656 -3.007812 10.140625 -3.832031 10.140625 -4.90625 C 10.140625 -5.9375 9.820312 -6.726562 9.1875 -7.28125 C 8.550781 -7.832031 7.640625 -8.113281 6.453125 -8.125 L 4.75 -8.125 Z M 4.75 -9.96875 "/></g></g><g style="fill:#ffbd59;fill-opacity:1;"><g transform="translate(31.402481, 23.216761)"><path style="stroke:none" d=""/></g></g></g></g><g transform="matrix(1,0,0,1,681,71)"><g id="5bdd6355b6" clip-path="url(#8515d4429d)"><g style="fill:#ffbd59;fill-opacity:1;"><g transform="translate(0.712346, 23.039599)"><path style="stroke:none" d="M 13.109375 0 L 1.46875 0 L 1.46875 -1.625 L 7.625 -8.453125 C 8.53125 -9.484375 9.15625 -10.320312 9.5 -10.96875 C 9.84375 -11.613281 10.015625 -12.28125 10.015625 -12.96875 C 10.015625 -13.894531 9.734375 -14.65625 9.171875 -15.25 C 8.617188 -15.84375 7.875 -16.140625 6.9375 -16.140625 C 5.8125 -16.140625 4.9375 -15.820312 4.3125 -15.1875 C 3.695312 -14.550781 3.390625 -13.660156 3.390625 -12.515625 L 1.140625 -12.515625 C 1.140625 -14.148438 1.664062 -15.472656 2.71875 -16.484375 C 3.769531 -17.492188 5.175781 -18 6.9375 -18 C 8.582031 -18 9.882812 -17.5625 10.84375 -16.6875 C 11.8125 -15.820312 12.296875 -14.671875 12.296875 -13.234375 C 12.296875 -11.492188 11.179688 -9.414062 8.953125 -7 L 4.1875 -1.84375 L 13.109375 -1.84375 Z M 13.109375 0 "/></g></g><g style="fill:#ffbd59;fill-opacity:1;"><g transform="translate(14.731724, 23.039599)"><path style="stroke:none" d="M 12.609375 -7.578125 C 12.609375 -4.929688 12.15625 -2.960938 11.25 -1.671875 C 10.351562 -0.390625 8.941406 0.25 7.015625 0.25 C 5.128906 0.25 3.726562 -0.375 2.8125 -1.625 C 1.90625 -2.882812 1.4375 -4.765625 1.40625 -7.265625 L 1.40625 -10.28125 C 1.40625 -12.882812 1.851562 -14.820312 2.75 -16.09375 C 3.65625 -17.363281 5.070312 -18 7 -18 C 8.90625 -18 10.304688 -17.382812 11.203125 -16.15625 C 12.109375 -14.9375 12.578125 -13.050781 12.609375 -10.5 Z M 10.34375 -10.65625 C 10.34375 -12.5625 10.070312 -13.953125 9.53125 -14.828125 C 9 -15.703125 8.15625 -16.140625 7 -16.140625 C 5.84375 -16.140625 5 -15.703125 4.46875 -14.828125 C 3.945312 -13.960938 3.675781 -12.628906 3.65625 -10.828125 L 3.65625 -7.21875 C 3.65625 -5.300781 3.929688 -3.882812 4.484375 -2.96875 C 5.046875 -2.050781 5.890625 -1.59375 7.015625 -1.59375 C 8.128906 -1.59375 8.957031 -2.023438 9.5 -2.890625 C 10.039062 -3.753906 10.320312 -5.113281 10.34375 -6.96875 Z M 10.34375 -10.65625 "/></g></g><g style="fill:#ffbd59;fill-opacity:1;"><g transform="translate(28.751103, 23.039599)"><path style="stroke:none" d="M 13.109375 0 L 1.46875 0 L 1.46875 -1.625 L 7.625 -8.453125 C 8.53125 -9.484375 9.15625 -10.320312 9.5 -10.96875 C 9.84375 -11.613281 10.015625 -12.28125 10.015625 -12.96875 C 10.015625 -13.894531 9.734375 -14.65625 9.171875 -15.25 C 8.617188 -15.84375 7.875 -16.140625 6.9375 -16.140625 C 5.8125 -16.140625 4.9375 -15.820312 4.3125 -15.1875 C 3.695312 -14.550781 3.390625 -13.660156 3.390625 -12.515625 L 1.140625 -12.515625 C 1.140625 -14.148438 1.664062 -15.472656 2.71875 -16.484375 C 3.769531 -17.492188 5.175781 -18 6.9375 -18 C 8.582031 -18 9.882812 -17.5625 10.84375 -16.6875 C 11.8125 -15.820312 12.296875 -14.671875 12.296875 -13.234375 C 12.296875 -11.492188 11.179688 -9.414062 8.953125 -7 L 4.1875 -1.84375 L 13.109375 -1.84375 Z M 13.109375 0 "/></g></g><g style="fill:#ffbd59;fill-opacity:1;"><g transform="translate(42.770481, 23.039599)"><path style="stroke:none" d="M 12.9375 -16.484375 L 5.578125 0 L 3.21875 0 L 10.546875 -15.890625 L 0.9375 -15.890625 L 0.9375 -17.75 L 12.9375 -17.75 Z M 12.9375 -16.484375 "/></g></g></g></g><g transform="matrix(1,0,0,1,551,308)"><g id="dce01a82f0" clip-path="url(#d5818c782b)"><g style="fill:#ffbd59;fill-opacity:1;"><g transform="translate(1.076902, 22.816972)"><path style="stroke:none" d="M 15.625 -8.296875 C 15.625 -6.585938 15.347656 -5.113281 14.796875 -3.875 C 14.253906 -2.632812 13.492188 -1.664062 12.515625 -0.96875 L 15.671875 1.53125 L 14.078125 3 L 10.34375 0.03125 C 9.75 0.175781 9.128906 0.25 8.484375 0.25 C 7.085938 0.25 5.847656 -0.09375 4.765625 -0.78125 C 3.679688 -1.46875 2.84375 -2.445312 2.25 -3.71875 C 1.65625 -4.988281 1.347656 -6.460938 1.328125 -8.140625 L 1.328125 -9.421875 C 1.328125 -11.128906 1.625 -12.632812 2.21875 -13.9375 C 2.8125 -15.25 3.648438 -16.253906 4.734375 -16.953125 C 5.816406 -17.648438 7.0625 -18 8.46875 -18 C 9.894531 -18 11.148438 -17.648438 12.234375 -16.953125 C 13.316406 -16.265625 14.148438 -15.269531 14.734375 -13.96875 C 15.328125 -12.675781 15.625 -11.164062 15.625 -9.4375 Z M 13.28125 -9.453125 C 13.28125 -11.535156 12.863281 -13.144531 12.03125 -14.28125 C 11.195312 -15.414062 10.007812 -15.984375 8.46875 -15.984375 C 6.988281 -15.984375 5.820312 -15.421875 4.96875 -14.296875 C 4.125 -13.171875 3.691406 -11.609375 3.671875 -9.609375 L 3.671875 -8.296875 C 3.671875 -6.265625 4.09375 -4.664062 4.9375 -3.5 C 5.789062 -2.332031 6.972656 -1.75 8.484375 -1.75 C 9.992188 -1.75 11.160156 -2.296875 11.984375 -3.390625 C 12.816406 -4.492188 13.25 -6.070312 13.28125 -8.125 Z M 13.28125 -9.453125 "/></g></g><g style="fill:#ffbd59;fill-opacity:1;"><g transform="translate(18.241498, 22.816972)"><path style="stroke:none" d="M 13.109375 0 L 1.46875 0 L 1.46875 -1.625 L 7.625 -8.453125 C 8.53125 -9.484375 9.15625 -10.320312 9.5 -10.96875 C 9.84375 -11.613281 10.015625 -12.28125 10.015625 -12.96875 C 10.015625 -13.894531 9.734375 -14.65625 9.171875 -15.25 C 8.617188 -15.84375 7.875 -16.140625 6.9375 -16.140625 C 5.8125 -16.140625 4.9375 -15.820312 4.3125 -15.1875 C 3.695312 -14.550781 3.390625 -13.660156 3.390625 -12.515625 L 1.140625 -12.515625 C 1.140625 -14.148438 1.664062 -15.472656 2.71875 -16.484375 C 3.769531 -17.492188 5.175781 -18 6.9375 -18 C 8.582031 -18 9.882812 -17.5625 10.84375 -16.6875 C 11.8125 -15.820312 12.296875 -14.671875 12.296875 -13.234375 C 12.296875 -11.492188 11.179688 -9.414062 8.953125 -7 L 4.1875 -1.84375 L 13.109375 -1.84375 Z M 13.109375 0 "/></g></g><g style="fill:#ffbd59;fill-opacity:1;"><g transform="translate(32.270627, 22.816972)"><path style="stroke:none" d=""/></g></g></g></g><g transform="matrix(1,0,0,1,624,308)"><g id="77906eba20" clip-path="url(#3d73303d20)"><g style="fill:#ffbd59;fill-opacity:1;"><g transform="translate(0.463609, 22.606604)"><path style="stroke:none" d="M 13.109375 0 L 1.46875 0 L 1.46875 -1.625 L 7.625 -8.453125 C 8.53125 -9.484375 9.15625 -10.320312 9.5 -10.96875 C 9.84375 -11.613281 10.015625 -12.28125 10.015625 -12.96875 C 10.015625 -13.894531 9.734375 -14.65625 9.171875 -15.25 C 8.617188 -15.84375 7.875 -16.140625 6.9375 -16.140625 C 5.8125 -16.140625 4.9375 -15.820312 4.3125 -15.1875 C 3.695312 -14.550781 3.390625 -13.660156 3.390625 -12.515625 L 1.140625 -12.515625 C 1.140625 -14.148438 1.664062 -15.472656 2.71875 -16.484375 C 3.769531 -17.492188 5.175781 -18 6.9375 -18 C 8.582031 -18 9.882812 -17.5625 10.84375 -16.6875 C 11.8125 -15.820312 12.296875 -14.671875 12.296875 -13.234375 C 12.296875 -11.492188 11.179688 -9.414062 8.953125 -7 L 4.1875 -1.84375 L 13.109375 -1.84375 Z M 13.109375 0 "/></g></g><g style="fill:#ffbd59;fill-opacity:1;"><g transform="translate(14.482987, 22.606604)"><path style="stroke:none" d="M 12.609375 -7.578125 C 12.609375 -4.929688 12.15625 -2.960938 11.25 -1.671875 C 10.351562 -0.390625 8.941406 0.25 7.015625 0.25 C 5.128906 0.25 3.726562 -0.375 2.8125 -1.625 C 1.90625 -2.882812 1.4375 -4.765625 1.40625 -7.265625 L 1.40625 -10.28125 C 1.40625 -12.882812 1.851562 -14.820312 2.75 -16.09375 C 3.65625 -17.363281 5.070312 -18 7 -18 C 8.90625 -18 10.304688 -17.382812 11.203125 -16.15625 C 12.109375 -14.9375 12.578125 -13.050781 12.609375 -10.5 Z M 10.34375 -10.65625 C 10.34375 -12.5625 10.070312 -13.953125 9.53125 -14.828125 C 9 -15.703125 8.15625 -16.140625 7 -16.140625 C 5.84375 -16.140625 5 -15.703125 4.46875 -14.828125 C 3.945312 -13.960938 3.675781 -12.628906 3.65625 -10.828125 L 3.65625 -7.21875 C 3.65625 -5.300781 3.929688 -3.882812 4.484375 -2.96875 C 5.046875 -2.050781 5.890625 -1.59375 7.015625 -1.59375 C 8.128906 -1.59375 8.957031 -2.023438 9.5 -2.890625 C 10.039062 -3.753906 10.320312 -5.113281 10.34375 -6.96875 Z M 10.34375 -10.65625 "/></g></g><g style="fill:#ffbd59;fill-opacity:1;"><g transform="translate(28.502366, 22.606604)"><path style="stroke:none" d="M 13.109375 0 L 1.46875 0 L 1.46875 -1.625 L 7.625 -8.453125 C 8.53125 -9.484375 9.15625 -10.320312 9.5 -10.96875 C 9.84375 -11.613281 10.015625 -12.28125 10.015625 -12.96875 C 10.015625 -13.894531 9.734375 -14.65625 9.171875 -15.25 C 8.617188 -15.84375 7.875 -16.140625 6.9375 -16.140625 C 5.8125 -16.140625 4.9375 -15.820312 4.3125 -15.1875 C 3.695312 -14.550781 3.390625 -13.660156 3.390625 -12.515625 L 1.140625 -12.515625 C 1.140625 -14.148438 1.664062 -15.472656 2.71875 -16.484375 C 3.769531 -17.492188 5.175781 -18 6.9375 -18 C 8.582031 -18 9.882812 -17.5625 10.84375 -16.6875 C 11.8125 -15.820312 12.296875 -14.671875 12.296875 -13.234375 C 12.296875 -11.492188 11.179688 -9.414062 8.953125 -7 L 4.1875 -1.84375 L 13.109375 -1.84375 Z M 13.109375 0 "/></g></g><g style="fill:#ffbd59;fill-opacity:1;"><g transform="translate(42.521744, 22.606604)"><path style="stroke:none" d="M 12.9375 -16.484375 L 5.578125 0 L 3.21875 0 L 10.546875 -15.890625 L 0.9375 -15.890625 L 0.9375 -17.75 L 12.9375 -17.75 Z M 12.9375 -16.484375 "/></g></g></g></g><g clip-rule="nonzero" clip-path="url(#df0f93ae5c)"><g clip-rule="nonzero" clip-path="url(#81371b8df7)"><g clip-rule="nonzero" clip-path="url(#e232cedd8e)"><g transform="matrix(1,0,0,1,370,313)"><g id="bc07af700d" clip-path="url(#769dc7f044)"><g clip-rule="nonzero" clip-path="url(#e4b8e2ee26)"><g clip-rule="nonzero" clip-path="url(#c76cc60399)"><g clip-rule="nonzero" clip-path="url(#236ed96428)"><path style=" stroke:none;fill-rule:nonzero;fill:#ffbd59;fill-opacity:1;" d="M 4.097656 1.476562 L 2.027344 5.097656 L -0.621094 3.582031 L 1.449219 -0.0390625 Z M 4.097656 1.476562 "/></g></g></g></g></g></g></g></g><path style="fill:none;stroke-width:1;stroke-linecap:butt;stroke-linejoin:miter;stroke:#ffbd59;stroke-opacity:1;stroke-miterlimit:4;" d="M 0.000943669 0.499248 L 34.185208 0.499294 " transform="matrix(0.65957,1.003179,-1.003179,0.65957,349.258026,280.626795)"/><g transform="matrix(1,0,0,1,293,262)"><g id="85d86b752c" clip-path="url(#e93e1af742)"><g style="fill:#ffbd59;fill-opacity:1;"><g transform="translate(0.632299, 23.26819)"><path style="stroke:none" d="M 15.625 -8.296875 C 15.625 -6.585938 15.347656 -5.113281 14.796875 -3.875 C 14.253906 -2.632812 13.492188 -1.664062 12.515625 -0.96875 L 15.671875 1.53125 L 14.078125 3 L 10.34375 0.03125 C 9.75 0.175781 9.128906 0.25 8.484375 0.25 C 7.085938 0.25 5.847656 -0.09375 4.765625 -0.78125 C 3.679688 -1.46875 2.84375 -2.445312 2.25 -3.71875 C 1.65625 -4.988281 1.347656 -6.460938 1.328125 -8.140625 L 1.328125 -9.421875 C 1.328125 -11.128906 1.625 -12.632812 2.21875 -13.9375 C 2.8125 -15.25 3.648438 -16.253906 4.734375 -16.953125 C 5.816406 -17.648438 7.0625 -18 8.46875 -18 C 9.894531 -18 11.148438 -17.648438 12.234375 -16.953125 C 13.316406 -16.265625 14.148438 -15.269531 14.734375 -13.96875 C 15.328125 -12.675781 15.625 -11.164062 15.625 -9.4375 Z M 13.28125 -9.453125 C 13.28125 -11.535156 12.863281 -13.144531 12.03125 -14.28125 C 11.195312 -15.414062 10.007812 -15.984375 8.46875 -15.984375 C 6.988281 -15.984375 5.820312 -15.421875 4.96875 -14.296875 C 4.125 -13.171875 3.691406 -11.609375 3.671875 -9.609375 L 3.671875 -8.296875 C 3.671875 -6.265625 4.09375 -4.664062 4.9375 -3.5 C 5.789062 -2.332031 6.972656 -1.75 8.484375 -1.75 C 9.992188 -1.75 11.160156 -2.296875 11.984375 -3.390625 C 12.816406 -4.492188 13.25 -6.070312 13.28125 -8.125 Z M 13.28125 -9.453125 "/></g></g><g style="fill:#ffbd59;fill-opacity:1;"><g transform="translate(17.79045, 23.26819)"><path style="stroke:none" d="M 13.109375 0 L 1.46875 0 L 1.46875 -1.625 L 7.625 -8.453125 C 8.53125 -9.484375 9.15625 -10.320312 9.5 -10.96875 C 9.84375 -11.613281 10.015625 -12.28125 10.015625 -12.96875 C 10.015625 -13.894531 9.734375 -14.65625 9.171875 -15.25 C 8.617188 -15.84375 7.875 -16.140625 6.9375 -16.140625 C 5.8125 -16.140625 4.9375 -15.820312 4.3125 -15.1875 C 3.695312 -14.550781 3.390625 -13.660156 3.390625 -12.515625 L 1.140625 -12.515625 C 1.140625 -14.148438 1.664062 -15.472656 2.71875 -16.484375 C 3.769531 -17.492188 5.175781 -18 6.9375 -18 C 8.582031 -18 9.882812 -17.5625 10.84375 -16.6875 C 11.8125 -15.820312 12.296875 -14.671875 12.296875 -13.234375 C 12.296875 -11.492188 11.179688 -9.414062 8.953125 -7 L 4.1875 -1.84375 L 13.109375 -1.84375 Z M 13.109375 0 "/></g></g><g style="fill:#ffbd59;fill-opacity:1;"><g transform="translate(31.820331, 23.26819)"><path style="stroke:none" d=""/></g></g></g></g><g transform="matrix(1,0,0,1,362,261)"><g id="2754a2b02c" clip-path="url(#1e183d6554)"><g style="fill:#ffbd59;fill-opacity:1;"><g transform="translate(0.494436, 24.068006)"><path style="stroke:none" d="M 13.109375 0 L 1.46875 0 L 1.46875 -1.625 L 7.625 -8.453125 C 8.53125 -9.484375 9.15625 -10.320312 9.5 -10.96875 C 9.84375 -11.613281 10.015625 -12.28125 10.015625 -12.96875 C 10.015625 -13.894531 9.734375 -14.65625 9.171875 -15.25 C 8.617188 -15.84375 7.875 -16.140625 6.9375 -16.140625 C 5.8125 -16.140625 4.9375 -15.820312 4.3125 -15.1875 C 3.695312 -14.550781 3.390625 -13.660156 3.390625 -12.515625 L 1.140625 -12.515625 C 1.140625 -14.148438 1.664062 -15.472656 2.71875 -16.484375 C 3.769531 -17.492188 5.175781 -18 6.9375 -18 C 8.582031 -18 9.882812 -17.5625 10.84375 -16.6875 C 11.8125 -15.820312 12.296875 -14.671875 12.296875 -13.234375 C 12.296875 -11.492188 11.179688 -9.414062 8.953125 -7 L 4.1875 -1.84375 L 13.109375 -1.84375 Z M 13.109375 0 "/></g></g><g style="fill:#ffbd59;fill-opacity:1;"><g transform="translate(14.508551, 24.068006)"><path style="stroke:none" d="M 12.609375 -7.578125 C 12.609375 -4.929688 12.15625 -2.960938 11.25 -1.671875 C 10.351562 -0.390625 8.941406 0.25 7.015625 0.25 C 5.128906 0.25 3.726562 -0.375 2.8125 -1.625 C 1.90625 -2.882812 1.4375 -4.765625 1.40625 -7.265625 L 1.40625 -10.28125 C 1.40625 -12.882812 1.851562 -14.820312 2.75 -16.09375 C 3.65625 -17.363281 5.070312 -18 7 -18 C 8.90625 -18 10.304688 -17.382812 11.203125 -16.15625 C 12.109375 -14.9375 12.578125 -13.050781 12.609375 -10.5 Z M 10.34375 -10.65625 C 10.34375 -12.5625 10.070312 -13.953125 9.53125 -14.828125 C 9 -15.703125 8.15625 -16.140625 7 -16.140625 C 5.84375 -16.140625 5 -15.703125 4.46875 -14.828125 C 3.945312 -13.960938 3.675781 -12.628906 3.65625 -10.828125 L 3.65625 -7.21875 C 3.65625 -5.300781 3.929688 -3.882812 4.484375 -2.96875 C 5.046875 -2.050781 5.890625 -1.59375 7.015625 -1.59375 C 8.128906 -1.59375 8.957031 -2.023438 9.5 -2.890625 C 10.039062 -3.753906 10.320312 -5.113281 10.34375 -6.96875 Z M 10.34375 -10.65625 "/></g></g><g style="fill:#ffbd59;fill-opacity:1;"><g transform="translate(28.522666, 24.068006)"><path style="stroke:none" d="M 13.109375 0 L 1.46875 0 L 1.46875 -1.625 L 7.625 -8.453125 C 8.53125 -9.484375 9.15625 -10.320312 9.5 -10.96875 C 9.84375 -11.613281 10.015625 -12.28125 10.015625 -12.96875 C 10.015625 -13.894531 9.734375 -14.65625 9.171875 -15.25 C 8.617188 -15.84375 7.875 -16.140625 6.9375 -16.140625 C 5.8125 -16.140625 4.9375 -15.820312 4.3125 -15.1875 C 3.695312 -14.550781 3.390625 -13.660156 3.390625 -12.515625 L 1.140625 -12.515625 C 1.140625 -14.148438 1.664062 -15.472656 2.71875 -16.484375 C 3.769531 -17.492188 5.175781 -18 6.9375 -18 C 8.582031 -18 9.882812 -17.5625 10.84375 -16.6875 C 11.8125 -15.820312 12.296875 -14.671875 12.296875 -13.234375 C 12.296875 -11.492188 11.179688 -9.414062 8.953125 -7 L 4.1875 -1.84375 L 13.109375 -1.84375 Z M 13.109375 0 "/></g></g><g style="fill:#ffbd59;fill-opacity:1;"><g transform="translate(42.536781, 24.068006)"><path style="stroke:none" d="M 12.9375 -16.484375 L 5.578125 0 L 3.21875 0 L 10.546875 -15.890625 L 0.9375 -15.890625 L 0.9375 -17.75 L 12.9375 -17.75 Z M 12.9375 -16.484375 "/></g></g></g></g><g clip-rule="nonzero" clip-path="url(#a0375170bf)"><g clip-rule="nonzero" clip-path="url(#66463ff841)"><g clip-rule="nonzero" clip-path="url(#9407617039)"><g clip-rule="nonzero" clip-path="url(#51e01dc92d)"><path style="fill:none;stroke-width:2.495845;stroke-linecap:butt;stroke-linejoin:miter;stroke:#ffbd59;stroke-opacity:1;stroke-miterlimit:4;" d="M 4.56348 0.000666275 C 2.043112 0.000328698 0.000323964 2.051994 0.00137124 4.581459 C 0.000490263 7.113545 2.041822 9.164888 4.562189 9.165225 C 7.082557 9.165563 9.125345 7.113898 9.126226 4.581812 C 9.125178 2.052346 7.081226 -0.000924396 4.56348 0.000666275 Z M 4.56348 0.000666275 " transform="matrix(-0.967026,0.711521,-0.711521,-0.967026,353.593163,278.089569)"/>
<!-- Q1 Yıldız -->
<path id="star-q1" style="fill:#ffae1e;fill-opacity:0.8;" d="M 353.593163 278.089569 l2 -6 l2 6 l-6 -2 l6 -2 l-6 2 l6 2 l-2 -6 z" class="quarter-star" data-quarter="q1"/>
</g></g></g></g></g></g></g></g></svg>