<svg xmlns="http://www.w3.org/2000/svg" xmlns:xlink="http://www.w3.org/1999/xlink" width="1213" zoomAndPan="magnify" viewBox="0 0 909.75 461.249995" height="615" preserveAspectRatio="xMidYMid meet" version="1.2"><defs><clipPath id="31dc010e35"><path d="M 0.613281 0 L 908.886719 0 L 908.886719 460.5 L 0.613281 460.5 Z M 0.613281 0 "/></clipPath><filter x="0%" y="0%" width="100%" filterUnits="objectBoundingBox" id="854ac94d90" height="100%"><feColorMatrix values="0 0 0 0 1 0 0 0 0 1 0 0 0 0 1 0 0 0 1 0" type="matrix" in="SourceGraphic"/></filter><clipPath id="bb502676d5"><path d="M 0.613281 0 L 908.738281 0 L 908.738281 460.5 L 0.613281 460.5 Z M 0.613281 0 "/></clipPath><clipPath id="66ba252c5f"><rect x="0" width="909" y="0" height="461"/></clipPath><clipPath id="ab478916c5"><rect x="0" width="909" y="0" height="461"/></clipPath></defs><g id="5122f9962b"><g clip-rule="nonzero" clip-path="url(#31dc010e35)"><path style=" stroke:none;fill-rule:nonzero;fill:#ffffff;fill-opacity:1;" d="M 0.613281 0 L 908.886719 0 L 908.886719 460.5 L 0.613281 460.5 Z M 0.613281 0 "/><g mask="url(#da08991f41)" transform="matrix(1,0,0,1,0.000000000000000111,-0.000000000000033144)"><g clip-path="url(#ab478916c5)"><g clip-rule="nonzero" clip-path="url(#bb502676d5)"><g transform="matrix(1,0,0,1,0.000000000000000111,-0.000000000000033144)"><g id="c3e4cb3bcf" clip-path="url(#66ba252c5f)"><path style=" stroke:none;fill-rule:nonzero;fill:#ffae1e;fill-opacity:1;" d="M 99.871094 357.316406 C 119.285156 346.203125 141.207031 334.246094 165.636719 321.4375 C 214.585938 295.777344 251.6875 278.679688 276.945312 270.140625 C 277.386719 269.988281 277.839844 269.929688 278.308594 269.960938 C 278.773438 269.992188 279.214844 270.109375 279.632812 270.316406 C 280.050781 270.523438 280.414062 270.804688 280.722656 271.15625 C 281.03125 271.507812 281.257812 271.90625 281.410156 272.347656 C 281.558594 272.789062 281.617188 273.242188 281.585938 273.710938 C 281.554688 274.175781 281.4375 274.617188 281.230469 275.035156 C 281.023438 275.457031 280.742188 275.820312 280.390625 276.125 C 280.039062 276.433594 279.644531 276.664062 279.199219 276.8125 C 254.292969 285.234375 217.53125 302.1875 168.910156 327.675781 C 144.554688 340.441406 122.707031 352.363281 103.367188 363.429688 C 102.964844 363.664062 102.53125 363.808594 102.066406 363.867188 C 101.601562 363.925781 101.144531 363.894531 100.695312 363.773438 C 100.246094 363.648438 99.835938 363.445312 99.464844 363.160156 C 99.09375 362.875 98.792969 362.527344 98.5625 362.125 C 98.332031 361.71875 98.183594 361.285156 98.125 360.820312 C 98.066406 360.355469 98.097656 359.902344 98.222656 359.449219 C 98.34375 359 98.546875 358.589844 98.832031 358.21875 C 99.117188 357.851562 99.464844 357.550781 99.871094 357.316406 Z M 99.871094 357.316406 "/><path style=" stroke:none;fill-rule:nonzero;fill:#ffae1e;fill-opacity:1;" d="M 276.945312 270.140625 C 288.707031 266.160156 302.148438 262.984375 317.273438 260.609375 C 326.292969 259.191406 339.875 257.585938 358.019531 255.785156 C 379.78125 253.625 395.988281 251.5625 406.632812 249.597656 C 424.242188 246.339844 439.714844 241.648438 453.054688 235.515625 C 453.480469 235.320312 453.925781 235.214844 454.390625 235.195312 C 454.859375 235.179688 455.308594 235.25 455.746094 235.414062 C 456.1875 235.574219 456.578125 235.816406 456.917969 236.132812 C 457.261719 236.449219 457.53125 236.820312 457.726562 237.246094 C 457.921875 237.667969 458.027344 238.113281 458.046875 238.582031 C 458.0625 239.046875 457.992188 239.5 457.828125 239.9375 C 457.667969 240.375 457.425781 240.765625 457.109375 241.109375 C 456.792969 241.453125 456.421875 241.722656 455.996094 241.914062 C 442.125 248.292969 426.097656 253.160156 407.910156 256.523438 C 397.074219 258.527344 380.675781 260.617188 358.714844 262.792969 C 340.703125 264.582031 327.253906 266.171875 318.367188 267.570312 C 303.636719 269.882812 290.582031 272.964844 279.199219 276.8125 C 278.757812 276.960938 278.304688 277.019531 277.835938 276.988281 C 277.371094 276.957031 276.929688 276.839844 276.511719 276.632812 C 276.09375 276.425781 275.730469 276.144531 275.421875 275.792969 C 275.113281 275.441406 274.886719 275.046875 274.734375 274.601562 C 274.585938 274.160156 274.527344 273.707031 274.558594 273.242188 C 274.589844 272.773438 274.707031 272.332031 274.914062 271.914062 C 275.121094 271.496094 275.402344 271.132812 275.753906 270.824219 C 276.105469 270.515625 276.5 270.289062 276.945312 270.140625 Z M 276.945312 270.140625 "/><path style=" stroke:none;fill-rule:nonzero;fill:#ffae1e;fill-opacity:1;" d="M 453.054688 235.515625 C 467.671875 228.792969 483.574219 218.476562 500.757812 204.5625 C 511.140625 196.15625 526.519531 182.402344 546.898438 163.300781 C 564.648438 146.664062 578.058594 134.53125 587.125 126.894531 C 602.328125 114.105469 616.359375 104.011719 629.222656 96.625 C 629.628906 96.390625 630.0625 96.246094 630.527344 96.183594 C 630.988281 96.125 631.445312 96.15625 631.898438 96.277344 C 632.347656 96.398438 632.757812 96.601562 633.128906 96.886719 C 633.5 97.171875 633.800781 97.519531 634.03125 97.921875 C 634.265625 98.328125 634.410156 98.761719 634.472656 99.226562 C 634.53125 99.6875 634.5 100.144531 634.378906 100.597656 C 634.257812 101.046875 634.054688 101.457031 633.769531 101.828125 C 633.484375 102.199219 633.136719 102.5 632.734375 102.730469 C 620.230469 109.910156 606.542969 119.761719 591.664062 132.285156 C 582.6875 139.839844 569.375 151.890625 551.71875 168.4375 C 531.214844 187.65625 515.707031 201.523438 505.1875 210.039062 C 487.546875 224.324219 471.152344 234.949219 455.996094 241.914062 C 455.574219 242.109375 455.125 242.21875 454.660156 242.234375 C 454.195312 242.253906 453.742188 242.179688 453.304688 242.019531 C 452.863281 241.855469 452.472656 241.617188 452.132812 241.300781 C 451.789062 240.980469 451.519531 240.613281 451.324219 240.1875 C 451.128906 239.761719 451.023438 239.316406 451.007812 238.851562 C 450.988281 238.382812 451.058594 237.929688 451.222656 237.492188 C 451.382812 237.054688 451.625 236.664062 451.941406 236.324219 C 452.257812 235.980469 452.628906 235.710938 453.054688 235.515625 Z M 453.054688 235.515625 "/><path style=" stroke:none;fill-rule:nonzero;fill:#ffae1e;fill-opacity:1;" d="M 629.222656 96.625 C 652.960938 82.992188 689.621094 67.261719 739.210938 49.429688 C 763.960938 40.53125 786.355469 32.984375 806.390625 26.792969 C 806.839844 26.65625 807.292969 26.609375 807.757812 26.652344 C 808.222656 26.695312 808.664062 26.828125 809.074219 27.042969 C 809.488281 27.261719 809.84375 27.550781 810.144531 27.910156 C 810.441406 28.269531 810.660156 28.671875 810.796875 29.121094 C 810.933594 29.566406 810.980469 30.019531 810.9375 30.484375 C 810.894531 30.953125 810.765625 31.390625 810.546875 31.804688 C 810.328125 32.214844 810.039062 32.570312 809.679688 32.871094 C 809.320312 33.167969 808.917969 33.386719 808.472656 33.523438 C 788.535156 39.683594 766.242188 47.195312 741.597656 56.058594 C 692.394531 73.75 656.109375 89.308594 632.734375 102.730469 C 632.328125 102.964844 631.894531 103.109375 631.429688 103.171875 C 630.96875 103.230469 630.511719 103.199219 630.058594 103.078125 C 629.609375 102.957031 629.199219 102.753906 628.828125 102.46875 C 628.457031 102.183594 628.15625 101.835938 627.925781 101.433594 C 627.691406 101.027344 627.546875 100.59375 627.484375 100.128906 C 627.425781 99.667969 627.457031 99.210938 627.578125 98.757812 C 627.699219 98.308594 627.902344 97.898438 628.1875 97.527344 C 628.472656 97.15625 628.820312 96.855469 629.222656 96.625 Z M 629.222656 96.625 "/><path style=" stroke:none;fill-rule:nonzero;fill:#ffae1e;fill-opacity:1;" d="M 108.664062 360.375 C 108.664062 359.910156 108.617188 359.453125 108.527344 359 C 108.4375 358.546875 108.304688 358.105469 108.128906 357.679688 C 107.949219 357.25 107.734375 356.84375 107.476562 356.460938 C 107.21875 356.074219 106.925781 355.71875 106.601562 355.394531 C 106.273438 355.066406 105.917969 354.773438 105.53125 354.515625 C 105.148438 354.261719 104.742188 354.042969 104.316406 353.867188 C 103.886719 353.6875 103.449219 353.554688 102.992188 353.464844 C 102.539062 353.375 102.082031 353.328125 101.621094 353.328125 C 101.15625 353.328125 100.699219 353.375 100.246094 353.464844 C 99.792969 353.554688 99.351562 353.6875 98.921875 353.867188 C 98.496094 354.042969 98.089844 354.261719 97.707031 354.515625 C 97.320312 354.773438 96.964844 355.066406 96.636719 355.394531 C 96.3125 355.71875 96.019531 356.074219 95.761719 356.460938 C 95.503906 356.84375 95.289062 357.25 95.113281 357.679688 C 94.933594 358.105469 94.800781 358.546875 94.710938 359 C 94.621094 359.453125 94.574219 359.910156 94.574219 360.375 C 94.574219 360.835938 94.621094 361.292969 94.710938 361.75 C 94.800781 362.203125 94.933594 362.640625 95.113281 363.070312 C 95.289062 363.496094 95.503906 363.902344 95.761719 364.289062 C 96.019531 364.671875 96.3125 365.027344 96.636719 365.355469 C 96.964844 365.683594 97.320312 365.972656 97.707031 366.230469 C 98.089844 366.488281 98.496094 366.703125 98.921875 366.882812 C 99.351562 367.058594 99.792969 367.191406 100.246094 367.28125 C 100.699219 367.371094 101.15625 367.417969 101.621094 367.417969 C 102.082031 367.417969 102.539062 367.371094 102.992188 367.28125 C 103.445312 367.191406 103.886719 367.058594 104.316406 366.882812 C 104.742188 366.703125 105.148438 366.488281 105.53125 366.230469 C 105.917969 365.972656 106.273438 365.683594 106.601562 365.355469 C 106.925781 365.027344 107.21875 364.671875 107.476562 364.289062 C 107.734375 363.902344 107.949219 363.496094 108.128906 363.070312 C 108.304688 362.640625 108.4375 362.203125 108.527344 361.75 C 108.617188 361.292969 108.664062 360.835938 108.664062 360.375 Z M 108.664062 360.375 "/><path style=" stroke:none;fill-rule:nonzero;fill:#ffae1e;fill-opacity:1;" d="M 285.117188 273.476562 C 285.117188 273.011719 285.070312 272.554688 284.980469 272.101562 C 284.890625 271.648438 284.757812 271.207031 284.582031 270.78125 C 284.402344 270.351562 284.1875 269.945312 283.929688 269.5625 C 283.671875 269.175781 283.378906 268.820312 283.054688 268.496094 C 282.726562 268.167969 282.371094 267.875 281.984375 267.617188 C 281.601562 267.363281 281.195312 267.144531 280.769531 266.96875 C 280.339844 266.789062 279.898438 266.65625 279.445312 266.566406 C 278.992188 266.476562 278.535156 266.429688 278.074219 266.429688 C 277.609375 266.429688 277.152344 266.476562 276.699219 266.566406 C 276.246094 266.65625 275.804688 266.789062 275.375 266.96875 C 274.949219 267.144531 274.542969 267.363281 274.160156 267.617188 C 273.773438 267.875 273.417969 268.167969 273.089844 268.496094 C 272.765625 268.820312 272.472656 269.175781 272.214844 269.5625 C 271.957031 269.945312 271.742188 270.351562 271.566406 270.78125 C 271.386719 271.207031 271.253906 271.648438 271.164062 272.101562 C 271.074219 272.554688 271.027344 273.011719 271.027344 273.476562 C 271.027344 273.9375 271.074219 274.394531 271.164062 274.847656 C 271.253906 275.304688 271.386719 275.742188 271.566406 276.171875 C 271.742188 276.597656 271.957031 277.003906 272.214844 277.390625 C 272.472656 277.773438 272.765625 278.128906 273.089844 278.457031 C 273.417969 278.785156 273.773438 279.074219 274.160156 279.332031 C 274.542969 279.589844 274.949219 279.804688 275.375 279.984375 C 275.804688 280.160156 276.246094 280.292969 276.699219 280.382812 C 277.152344 280.472656 277.609375 280.519531 278.074219 280.519531 C 278.535156 280.519531 278.992188 280.472656 279.445312 280.382812 C 279.898438 280.292969 280.339844 280.160156 280.769531 279.984375 C 281.195312 279.804688 281.601562 279.589844 281.984375 279.332031 C 282.371094 279.074219 282.726562 278.785156 283.054688 278.457031 C 283.378906 278.128906 283.671875 277.773438 283.929688 277.390625 C 284.1875 277.003906 284.402344 276.597656 284.582031 276.171875 C 284.757812 275.742188 284.890625 275.304688 284.980469 274.847656 C 285.070312 274.394531 285.117188 273.9375 285.117188 273.476562 Z M 285.117188 273.476562 "/><path style=" stroke:none;fill-rule:nonzero;fill:#ffae1e;fill-opacity:1;" d="M 461.570312 238.714844 C 461.570312 238.253906 461.523438 237.796875 461.433594 237.339844 C 461.34375 236.886719 461.210938 236.449219 461.035156 236.019531 C 460.855469 235.59375 460.640625 235.1875 460.382812 234.800781 C 460.125 234.417969 459.832031 234.0625 459.507812 233.734375 C 459.179688 233.40625 458.824219 233.117188 458.4375 232.859375 C 458.054688 232.601562 457.648438 232.386719 457.222656 232.207031 C 456.792969 232.03125 456.351562 231.898438 455.898438 231.808594 C 455.445312 231.71875 454.988281 231.671875 454.527344 231.671875 C 454.0625 231.671875 453.605469 231.71875 453.152344 231.808594 C 452.699219 231.898438 452.257812 232.03125 451.828125 232.207031 C 451.402344 232.386719 450.996094 232.601562 450.613281 232.859375 C 450.226562 233.117188 449.871094 233.40625 449.542969 233.734375 C 449.21875 234.0625 448.925781 234.417969 448.667969 234.800781 C 448.410156 235.1875 448.195312 235.59375 448.019531 236.019531 C 447.839844 236.449219 447.707031 236.886719 447.617188 237.339844 C 447.527344 237.796875 447.480469 238.253906 447.480469 238.714844 C 447.480469 239.179688 447.527344 239.636719 447.617188 240.089844 C 447.707031 240.542969 447.839844 240.984375 448.019531 241.410156 C 448.195312 241.839844 448.410156 242.246094 448.667969 242.628906 C 448.925781 243.015625 449.21875 243.371094 449.542969 243.695312 C 449.871094 244.023438 450.226562 244.316406 450.613281 244.574219 C 450.996094 244.828125 451.402344 245.046875 451.828125 245.222656 C 452.257812 245.402344 452.699219 245.535156 453.152344 245.625 C 453.605469 245.714844 454.0625 245.761719 454.527344 245.761719 C 454.988281 245.761719 455.445312 245.714844 455.898438 245.625 C 456.351562 245.535156 456.792969 245.402344 457.222656 245.222656 C 457.648438 245.046875 458.054688 244.828125 458.4375 244.574219 C 458.824219 244.316406 459.179688 244.023438 459.507812 243.695312 C 459.832031 243.371094 460.125 243.015625 460.382812 242.628906 C 460.640625 242.246094 460.855469 241.839844 461.035156 241.410156 C 461.210938 240.984375 461.34375 240.542969 461.433594 240.089844 C 461.523438 239.636719 461.570312 239.179688 461.570312 238.714844 Z M 461.570312 238.714844 "/><path style=" stroke:none;fill-rule:nonzero;fill:#ffae1e;fill-opacity:1;" d="M 638.023438 99.679688 C 638.023438 99.214844 637.976562 98.757812 637.886719 98.304688 C 637.796875 97.851562 637.664062 97.410156 637.488281 96.980469 C 637.308594 96.554688 637.09375 96.148438 636.835938 95.765625 C 636.578125 95.378906 636.285156 95.023438 635.960938 94.695312 C 635.632812 94.371094 635.277344 94.078125 634.890625 93.820312 C 634.507812 93.5625 634.101562 93.347656 633.675781 93.171875 C 633.246094 92.992188 632.804688 92.859375 632.351562 92.769531 C 631.898438 92.679688 631.441406 92.632812 630.980469 92.632812 C 630.515625 92.632812 630.058594 92.679688 629.605469 92.769531 C 629.152344 92.859375 628.710938 92.992188 628.28125 93.171875 C 627.855469 93.347656 627.449219 93.5625 627.066406 93.820312 C 626.679688 94.078125 626.324219 94.371094 625.996094 94.695312 C 625.671875 95.023438 625.378906 95.378906 625.121094 95.765625 C 624.863281 96.148438 624.648438 96.554688 624.46875 96.980469 C 624.292969 97.410156 624.160156 97.851562 624.070312 98.304688 C 623.980469 98.757812 623.933594 99.214844 623.933594 99.679688 C 623.933594 100.140625 623.980469 100.597656 624.070312 101.050781 C 624.160156 101.503906 624.292969 101.945312 624.46875 102.375 C 624.648438 102.800781 624.863281 103.207031 625.121094 103.589844 C 625.378906 103.976562 625.671875 104.332031 625.996094 104.660156 C 626.324219 104.984375 626.679688 105.277344 627.066406 105.535156 C 627.449219 105.792969 627.855469 106.007812 628.28125 106.1875 C 628.710938 106.363281 629.152344 106.496094 629.605469 106.585938 C 630.058594 106.675781 630.515625 106.722656 630.980469 106.722656 C 631.441406 106.722656 631.898438 106.675781 632.351562 106.585938 C 632.804688 106.496094 633.246094 106.363281 633.675781 106.1875 C 634.101562 106.007812 634.507812 105.792969 634.890625 105.535156 C 635.277344 105.277344 635.632812 104.984375 635.960938 104.660156 C 636.285156 104.332031 636.578125 103.976562 636.835938 103.589844 C 637.09375 103.207031 637.308594 102.800781 637.488281 102.375 C 637.664062 101.945312 637.796875 101.503906 637.886719 101.050781 C 637.976562 100.597656 638.023438 100.140625 638.023438 99.679688 Z M 638.023438 99.679688 "/><path style=" stroke:none;fill-rule:nonzero;fill:#ffae1e;fill-opacity:1;" d="M 814.476562 30.160156 C 814.476562 29.695312 814.429688 29.238281 814.339844 28.785156 C 814.25 28.332031 814.117188 27.890625 813.9375 27.464844 C 813.761719 27.035156 813.546875 26.628906 813.289062 26.246094 C 813.03125 25.859375 812.738281 25.503906 812.414062 25.179688 C 812.085938 24.851562 811.730469 24.558594 811.34375 24.300781 C 810.960938 24.046875 810.554688 23.828125 810.128906 23.652344 C 809.699219 23.472656 809.257812 23.339844 808.804688 23.25 C 808.351562 23.160156 807.894531 23.113281 807.433594 23.113281 C 806.96875 23.113281 806.511719 23.160156 806.058594 23.25 C 805.605469 23.339844 805.164062 23.472656 804.734375 23.652344 C 804.308594 23.828125 803.902344 24.046875 803.519531 24.300781 C 803.132812 24.558594 802.777344 24.851562 802.449219 25.179688 C 802.125 25.503906 801.832031 25.859375 801.574219 26.246094 C 801.316406 26.628906 801.101562 27.035156 800.921875 27.464844 C 800.746094 27.890625 800.613281 28.332031 800.523438 28.785156 C 800.433594 29.238281 800.386719 29.695312 800.386719 30.160156 C 800.386719 30.621094 800.433594 31.078125 800.523438 31.535156 C 800.613281 31.988281 800.746094 32.425781 800.921875 32.855469 C 801.101562 33.28125 801.316406 33.6875 801.574219 34.074219 C 801.832031 34.457031 802.125 34.8125 802.449219 35.140625 C 802.777344 35.46875 803.132812 35.757812 803.519531 36.015625 C 803.902344 36.273438 804.308594 36.488281 804.734375 36.667969 C 805.164062 36.84375 805.605469 36.976562 806.058594 37.066406 C 806.511719 37.15625 806.96875 37.203125 807.433594 37.203125 C 807.894531 37.203125 808.351562 37.15625 808.804688 37.066406 C 809.257812 36.976562 809.699219 36.84375 810.128906 36.667969 C 810.554688 36.488281 810.960938 36.273438 811.34375 36.015625 C 811.730469 35.757812 812.085938 35.46875 812.414062 35.140625 C 812.738281 34.8125 813.03125 34.457031 813.289062 34.074219 C 813.546875 33.6875 813.761719 33.28125 813.941406 32.855469 C 814.117188 32.425781 814.25 31.988281 814.339844 31.535156 C 814.429688 31.078125 814.476562 30.621094 814.476562 30.160156 Z M 814.476562 30.160156 "/></g></g></g></g><mask id="da08991f41"><g filter="url(#854ac94d90)"><rect x="0" width="909.75" y="0" height="461.249995" style="fill:#000000;fill-opacity:0.7;stroke:none;"/></g></mask></g></g></g></svg>