<svg xmlns="http://www.w3.org/2000/svg" xmlns:xlink="http://www.w3.org/1999/xlink" width="1920" zoomAndPan="magnify" viewBox="0 0 1440 558" height="744" preserveAspectRatio="xMidYMid meet" version="1.2"><defs><clipPath id="6ee89623ff"><path d="M 1.289062 0 L 1438.710938 0 L 1438.710938 557 L 1.289062 557 Z M 1.289062 0 "/></clipPath><clipPath id="d3631d6552"><path d="M 2 0 L 298.503906 0 L 298.503906 352.617188 L 2 352.617188 Z M 2 0 "/></clipPath><clipPath id="57d475e8ef"><path d="M 568 204 L 864.394531 204 L 864.394531 556.449219 L 568 556.449219 Z M 568 204 "/></clipPath><clipPath id="6a7b37e6e1"><path d="M 0.113281 0.113281 L 296.394531 0.113281 L 296.394531 352.449219 L 0.113281 352.449219 Z M 0.113281 0.113281 "/></clipPath><clipPath id="0692059e6b"><rect x="0" width="297" y="0" height="353"/></clipPath><clipPath id="d23b4458ac"><path d="M 1142 0 L 1438.40625 0 L 1438.40625 352.617188 L 1142 352.617188 Z M 1142 0 "/></clipPath><clipPath id="7d081c97de"><rect x="0" width="49" y="0" height="129"/></clipPath><clipPath id="56621fb5f4"><path d="M 0.34375 21 L 69 21 L 69 104 L 0.34375 104 Z M 0.34375 21 "/></clipPath><clipPath id="b628ed15ba"><rect x="0" width="71" y="0" height="128"/></clipPath><clipPath id="27549a5fd7"><rect x="0" width="72" y="0" height="129"/></clipPath><clipPath id="97d33c1e1a"><rect x="0" width="120" y="0" height="62"/></clipPath><clipPath id="ff79532038"><rect x="0" width="117" y="0" height="62"/></clipPath><clipPath id="7859a32b51"><rect x="0" width="117" y="0" height="62"/></clipPath></defs><g id="8203f6d8e6"><g clip-rule="nonzero" clip-path="url(#6ee89623ff)"><path style=" stroke:none;fill-rule:nonzero;fill:#ffffff;fill-opacity:1;" d="M 1.289062 0 L 1438.710938 0 L 1438.710938 557 L 1.289062 557 Z M 1.289062 0 "/></g><path style=" stroke:none;fill-rule:nonzero;fill:#9ae064;fill-opacity:1;" d="M 155.148438 46.328125 C 101.421875 46.328125 57.863281 89.882812 57.863281 143.605469 C 57.863281 197.332031 101.421875 240.867188 155.148438 240.867188 C 208.875 240.867188 252.40625 197.335938 252.40625 143.605469 C 252.40625 89.878906 208.871094 46.328125 155.148438 46.328125 Z M 155.148438 46.328125 "/><g clip-rule="nonzero" clip-path="url(#d3631d6552)"><path style=" stroke:none;fill-rule:evenodd;fill:#000000;fill-opacity:1;" d="M 298.703125 146.734375 C 298.703125 65.820312 234.292969 0 155.132812 0 C 80.730469 0 19.375 58.125 12.238281 132.253906 C 11.691406 132.457031 11.160156 132.6875 10.644531 132.953125 C 10.125 133.214844 9.625 133.503906 9.140625 133.824219 C 8.652344 134.144531 8.1875 134.492188 7.746094 134.867188 C 7.300781 135.238281 6.878906 135.636719 6.476562 136.058594 C 6.078125 136.480469 5.703125 136.925781 5.355469 137.390625 C 5.007812 137.855469 4.6875 138.335938 4.394531 138.839844 C 4.101562 139.339844 3.835938 139.855469 3.605469 140.390625 C 3.371094 140.921875 3.167969 141.464844 2.996094 142.019531 C 2.824219 142.574219 2.6875 143.136719 2.578125 143.707031 C 2.472656 144.28125 2.398438 144.855469 2.359375 145.433594 C 2.316406 146.015625 2.308594 146.59375 2.335938 147.175781 C 2.359375 147.753906 2.421875 148.332031 2.511719 148.90625 C 2.605469 149.480469 2.730469 150.046875 2.886719 150.605469 C 3.042969 151.164062 3.230469 151.714844 3.449219 152.25 C 3.671875 152.789062 3.921875 153.3125 4.199219 153.820312 C 4.480469 154.328125 4.789062 154.820312 5.125 155.296875 C 5.460938 155.769531 5.824219 156.222656 6.210938 156.652344 C 6.601562 157.085938 7.011719 157.492188 7.449219 157.878906 C 7.882812 158.265625 8.339844 158.621094 8.816406 158.953125 C 9.292969 159.289062 9.785156 159.59375 10.296875 159.867188 C 10.808594 160.144531 11.332031 160.390625 11.871094 160.605469 C 12.414062 160.820312 12.960938 161.003906 13.523438 161.15625 C 14.082031 161.308594 14.652344 161.429688 15.226562 161.515625 C 15.800781 161.605469 16.378906 161.660156 16.957031 161.679688 C 17.539062 161.699219 18.117188 161.6875 18.699219 161.644531 C 19.277344 161.597656 19.851562 161.519531 20.421875 161.40625 C 20.992188 161.296875 21.554688 161.152344 22.105469 160.976562 C 22.660156 160.800781 23.203125 160.59375 23.734375 160.355469 C 24.261719 160.117188 24.777344 159.851562 25.277344 159.554688 C 25.777344 159.257812 26.257812 158.933594 26.71875 158.578125 C 27.179688 158.226562 27.621094 157.851562 28.039062 157.449219 C 28.457031 157.042969 28.851562 156.621094 29.222656 156.171875 C 29.59375 155.722656 29.933594 155.253906 30.25 154.769531 C 30.566406 154.28125 30.855469 153.777344 31.113281 153.257812 C 31.371094 152.738281 31.601562 152.203125 31.796875 151.65625 C 31.996094 151.109375 32.160156 150.554688 32.292969 149.988281 C 32.425781 149.421875 32.527344 148.851562 32.59375 148.273438 C 32.664062 147.699219 32.699219 147.121094 32.699219 146.539062 C 32.699219 145.957031 32.667969 145.378906 32.605469 144.800781 C 32.539062 144.222656 32.441406 143.652344 32.3125 143.085938 C 32.179688 142.519531 32.015625 141.964844 31.824219 141.414062 C 31.628906 140.867188 31.402344 140.332031 31.148438 139.8125 C 30.890625 139.289062 30.605469 138.785156 30.292969 138.296875 C 29.980469 137.808594 29.640625 137.335938 29.269531 136.886719 C 28.902344 136.4375 28.511719 136.011719 28.09375 135.605469 C 27.679688 135.199219 27.238281 134.820312 26.777344 134.46875 C 26.320312 134.113281 25.839844 133.785156 25.34375 133.484375 C 24.84375 133.1875 24.332031 132.917969 23.800781 132.675781 C 30.707031 64.890625 86.964844 11.804688 155.109375 11.804688 C 227.894531 11.804688 287.140625 72.332031 287.140625 146.734375 C 287.140625 221.140625 227.914062 281.644531 155.132812 281.644531 C 154.746094 281.648438 154.367188 281.691406 153.988281 281.769531 C 153.613281 281.847656 153.246094 281.960938 152.890625 282.113281 C 152.539062 282.261719 152.203125 282.445312 151.882812 282.664062 C 151.566406 282.882812 151.269531 283.128906 151 283.402344 C 150.730469 283.675781 150.492188 283.976562 150.28125 284.296875 C 150.070312 284.621094 149.894531 284.960938 149.75 285.316406 C 149.605469 285.675781 149.5 286.042969 149.429688 286.421875 C 149.355469 286.800781 149.324219 287.179688 149.328125 287.566406 L 149.328125 306.121094 L 120.285156 306.402344 C 119.367188 306.394531 118.484375 306.582031 117.644531 306.960938 C 116.804688 307.339844 116.085938 307.878906 115.480469 308.570312 C 115.234375 308.855469 115.019531 309.15625 114.832031 309.480469 C 114.644531 309.800781 114.492188 310.140625 114.367188 310.492188 C 114.246094 310.84375 114.160156 311.207031 114.105469 311.574219 C 114.050781 311.945312 114.035156 312.316406 114.050781 312.6875 C 114.070312 313.0625 114.121094 313.429688 114.210938 313.789062 C 114.296875 314.152344 114.417969 314.503906 114.574219 314.84375 C 114.730469 315.183594 114.914062 315.503906 115.128906 315.808594 C 115.347656 316.113281 115.589844 316.394531 115.859375 316.652344 L 150.742188 350.324219 C 151.03125 350.59375 151.339844 350.835938 151.675781 351.050781 C 152.011719 351.265625 152.363281 351.445312 152.730469 351.589844 C 153.097656 351.738281 153.476562 351.847656 153.867188 351.921875 C 154.257812 351.996094 154.648438 352.035156 155.046875 352.035156 C 155.441406 352.035156 155.835938 351.996094 156.226562 351.921875 C 156.613281 351.847656 156.992188 351.738281 157.363281 351.589844 C 157.730469 351.445312 158.082031 351.265625 158.414062 351.050781 C 158.75 350.835938 159.0625 350.59375 159.351562 350.324219 L 194.222656 316.652344 C 194.515625 316.347656 194.78125 316.019531 195.011719 315.667969 C 195.246094 315.316406 195.445312 314.945312 195.609375 314.554688 C 195.773438 314.167969 195.902344 313.765625 195.992188 313.355469 C 196.082031 312.941406 196.132812 312.523438 196.148438 312.101562 C 196.164062 311.679688 196.136719 311.261719 196.074219 310.84375 C 196.011719 310.425781 195.910156 310.019531 195.773438 309.621094 C 195.632812 309.222656 195.460938 308.839844 195.25 308.472656 C 195.039062 308.105469 194.800781 307.761719 194.527344 307.4375 C 193.949219 306.878906 193.285156 306.449219 192.539062 306.152344 C 191.792969 305.851562 191.019531 305.703125 190.214844 305.707031 L 160.890625 305.988281 L 160.890625 293.332031 C 237.421875 290.234375 298.738281 225.660156 298.703125 146.734375 Z M 298.703125 146.734375 "/></g><g clip-rule="nonzero" clip-path="url(#57d475e8ef)"><g transform="matrix(1,0,0,1,568,204)"><g clip-path="url(#0692059e6b)"><path style=" stroke:none;fill-rule:nonzero;fill:#9ae064;fill-opacity:1;" d="M 153.039062 306.121094 C 99.308594 306.121094 55.753906 262.566406 55.753906 208.84375 C 55.753906 155.121094 99.308594 111.582031 153.039062 111.582031 C 206.765625 111.582031 250.292969 155.117188 250.292969 208.84375 C 250.292969 262.570312 206.761719 306.121094 153.039062 306.121094 Z M 153.039062 306.121094 "/><g clip-rule="nonzero" clip-path="url(#6a7b37e6e1)"><path style=" stroke:none;fill-rule:evenodd;fill:#000000;fill-opacity:1;" d="M 296.59375 205.714844 C 296.59375 286.628906 232.179688 352.449219 153.023438 352.449219 C 78.621094 352.449219 17.265625 294.324219 10.128906 220.195312 C 9.582031 219.992188 9.050781 219.761719 8.53125 219.5 C 8.015625 219.238281 7.511719 218.945312 7.027344 218.625 C 6.542969 218.304688 6.078125 217.957031 5.632812 217.585938 C 5.1875 217.210938 4.765625 216.8125 4.367188 216.390625 C 3.96875 215.96875 3.59375 215.527344 3.246094 215.0625 C 2.898438 214.597656 2.578125 214.113281 2.285156 213.609375 C 1.992188 213.109375 1.726562 212.59375 1.492188 212.0625 C 1.257812 211.527344 1.058594 210.984375 0.886719 210.429688 C 0.714844 209.875 0.574219 209.3125 0.46875 208.742188 C 0.363281 208.171875 0.289062 207.59375 0.246094 207.015625 C 0.207031 206.4375 0.199219 205.855469 0.226562 205.277344 C 0.25 204.695312 0.308594 204.117188 0.402344 203.542969 C 0.492188 202.972656 0.617188 202.40625 0.773438 201.84375 C 0.933594 201.285156 1.121094 200.738281 1.339844 200.199219 C 1.5625 199.660156 1.808594 199.136719 2.089844 198.628906 C 2.371094 198.121094 2.679688 197.628906 3.015625 197.15625 C 3.351562 196.679688 3.714844 196.230469 4.101562 195.796875 C 4.492188 195.363281 4.902344 194.957031 5.335938 194.570312 C 5.773438 194.1875 6.230469 193.828125 6.703125 193.496094 C 7.179688 193.164062 7.675781 192.859375 8.1875 192.582031 C 8.699219 192.308594 9.222656 192.0625 9.761719 191.84375 C 10.300781 191.628906 10.851562 191.445312 11.414062 191.292969 C 11.972656 191.140625 12.539062 191.019531 13.113281 190.933594 C 13.6875 190.847656 14.265625 190.792969 14.847656 190.769531 C 15.429688 190.75 16.007812 190.761719 16.585938 190.808594 C 17.167969 190.851562 17.742188 190.929688 18.3125 191.042969 C 18.882812 191.152344 19.441406 191.296875 19.996094 191.472656 C 20.550781 191.648438 21.09375 191.855469 21.621094 192.09375 C 22.152344 192.332031 22.667969 192.597656 23.167969 192.898438 C 23.664062 193.195312 24.144531 193.519531 24.609375 193.871094 C 25.070312 194.222656 25.511719 194.601562 25.929688 195.003906 C 26.347656 195.40625 26.742188 195.832031 27.113281 196.277344 C 27.480469 196.726562 27.824219 197.195312 28.140625 197.683594 C 28.457031 198.167969 28.746094 198.671875 29.003906 199.195312 C 29.261719 199.714844 29.488281 200.246094 29.6875 200.792969 C 29.882812 201.339844 30.050781 201.894531 30.183594 202.460938 C 30.316406 203.027344 30.417969 203.597656 30.484375 204.175781 C 30.550781 204.753906 30.585938 205.332031 30.589844 205.910156 C 30.589844 206.492188 30.558594 207.070312 30.492188 207.648438 C 30.429688 208.226562 30.332031 208.796875 30.199219 209.363281 C 30.070312 209.929688 29.90625 210.488281 29.710938 211.035156 C 29.519531 211.582031 29.292969 212.117188 29.039062 212.636719 C 28.78125 213.160156 28.496094 213.664062 28.183594 214.152344 C 27.867188 214.644531 27.527344 215.113281 27.160156 215.5625 C 26.792969 216.011719 26.402344 216.4375 25.984375 216.84375 C 25.566406 217.25 25.128906 217.628906 24.667969 217.984375 C 24.207031 218.335938 23.730469 218.664062 23.230469 218.964844 C 22.734375 219.265625 22.222656 219.535156 21.691406 219.773438 C 28.597656 287.558594 84.851562 340.644531 152.996094 340.644531 C 225.785156 340.644531 285.03125 280.121094 285.03125 205.714844 C 285.03125 131.308594 225.804688 70.804688 153.023438 70.804688 C 152.636719 70.800781 152.253906 70.761719 151.878906 70.679688 C 151.5 70.601562 151.136719 70.488281 150.78125 70.335938 C 150.425781 70.1875 150.089844 70.003906 149.773438 69.785156 C 149.453125 69.570312 149.160156 69.324219 148.890625 69.046875 C 148.621094 68.773438 148.382812 68.472656 148.171875 68.152344 C 147.960938 67.828125 147.785156 67.488281 147.640625 67.132812 C 147.496094 66.777344 147.386719 66.40625 147.316406 66.027344 C 147.246094 65.652344 147.214844 65.269531 147.21875 64.882812 L 147.21875 46.328125 L 118.175781 46.050781 C 117.253906 46.054688 116.375 45.867188 115.535156 45.488281 C 114.695312 45.109375 113.972656 44.574219 113.371094 43.878906 C 113.125 43.597656 112.910156 43.292969 112.722656 42.972656 C 112.535156 42.648438 112.378906 42.3125 112.257812 41.957031 C 112.136719 41.605469 112.046875 41.246094 111.996094 40.875 C 111.941406 40.507812 111.921875 40.136719 111.941406 39.761719 C 111.957031 39.390625 112.011719 39.023438 112.097656 38.660156 C 112.1875 38.296875 112.308594 37.945312 112.464844 37.605469 C 112.617188 37.265625 112.804688 36.945312 113.019531 36.640625 C 113.238281 36.335938 113.480469 36.054688 113.75 35.800781 L 148.632812 2.128906 C 148.917969 1.855469 149.230469 1.613281 149.566406 1.398438 C 149.898438 1.1875 150.25 1.007812 150.621094 0.859375 C 150.988281 0.714844 151.367188 0.601562 151.757812 0.527344 C 152.144531 0.453125 152.539062 0.417969 152.933594 0.417969 C 153.332031 0.417969 153.726562 0.453125 154.113281 0.527344 C 154.503906 0.601562 154.882812 0.714844 155.25 0.859375 C 155.621094 1.007812 155.972656 1.1875 156.304688 1.398438 C 156.640625 1.613281 156.953125 1.855469 157.238281 2.128906 L 192.113281 35.800781 C 192.40625 36.101562 192.667969 36.429688 192.902344 36.78125 C 193.132812 37.136719 193.332031 37.503906 193.496094 37.894531 C 193.664062 38.28125 193.789062 38.683594 193.882812 39.09375 C 193.972656 39.507812 194.023438 39.925781 194.039062 40.347656 C 194.050781 40.769531 194.027344 41.1875 193.964844 41.605469 C 193.902344 42.023438 193.800781 42.429688 193.660156 42.828125 C 193.523438 43.230469 193.347656 43.613281 193.140625 43.976562 C 192.929688 44.34375 192.691406 44.691406 192.417969 45.011719 C 191.839844 45.570312 191.175781 46 190.429688 46.300781 C 189.683594 46.597656 188.90625 46.746094 188.101562 46.742188 L 158.78125 46.460938 L 158.78125 59.121094 C 235.308594 62.214844 296.628906 126.792969 296.59375 205.714844 Z M 296.59375 205.714844 "/></g></g></g></g><path style=" stroke:none;fill-rule:nonzero;fill:#9ae064;fill-opacity:1;" d="M 1295.046875 46.328125 C 1241.320312 46.328125 1197.761719 89.882812 1197.761719 143.605469 C 1197.761719 197.332031 1241.320312 240.867188 1295.046875 240.867188 C 1348.777344 240.867188 1392.304688 197.335938 1392.304688 143.605469 C 1392.304688 89.878906 1348.773438 46.328125 1295.046875 46.328125 Z M 1295.046875 46.328125 "/><g clip-rule="nonzero" clip-path="url(#d23b4458ac)"><path style=" stroke:none;fill-rule:evenodd;fill:#000000;fill-opacity:1;" d="M 1438.601562 146.734375 C 1438.601562 65.820312 1374.191406 0 1295.03125 0 C 1220.632812 0 1159.277344 58.125 1152.136719 132.253906 C 1151.59375 132.457031 1151.0625 132.6875 1150.542969 132.953125 C 1150.027344 133.214844 1149.523438 133.503906 1149.039062 133.824219 C 1148.554688 134.144531 1148.089844 134.492188 1147.644531 134.867188 C 1147.199219 135.238281 1146.777344 135.636719 1146.378906 136.058594 C 1145.980469 136.480469 1145.605469 136.925781 1145.257812 137.390625 C 1144.90625 137.855469 1144.585938 138.335938 1144.292969 138.839844 C 1144 139.339844 1143.738281 139.855469 1143.503906 140.390625 C 1143.269531 140.921875 1143.066406 141.464844 1142.894531 142.019531 C 1142.726562 142.574219 1142.585938 143.136719 1142.480469 143.707031 C 1142.371094 144.28125 1142.296875 144.855469 1142.257812 145.433594 C 1142.21875 146.015625 1142.210938 146.59375 1142.234375 147.175781 C 1142.261719 147.753906 1142.320312 148.332031 1142.414062 148.90625 C 1142.503906 149.480469 1142.628906 150.046875 1142.785156 150.605469 C 1142.941406 151.164062 1143.132812 151.714844 1143.351562 152.25 C 1143.570312 152.789062 1143.820312 153.3125 1144.101562 153.820312 C 1144.382812 154.328125 1144.6875 154.820312 1145.027344 155.296875 C 1145.363281 155.769531 1145.722656 156.222656 1146.113281 156.652344 C 1146.5 157.085938 1146.914062 157.492188 1147.347656 157.878906 C 1147.785156 158.265625 1148.238281 158.621094 1148.714844 158.953125 C 1149.191406 159.289062 1149.6875 159.59375 1150.195312 159.867188 C 1150.707031 160.144531 1151.234375 160.390625 1151.773438 160.605469 C 1152.3125 160.820312 1152.863281 161.003906 1153.421875 161.15625 C 1153.984375 161.308594 1154.550781 161.429688 1155.125 161.515625 C 1155.699219 161.605469 1156.277344 161.660156 1156.859375 161.679688 C 1157.4375 161.699219 1158.019531 161.6875 1158.597656 161.644531 C 1159.175781 161.597656 1159.75 161.519531 1160.320312 161.40625 C 1160.890625 161.296875 1161.453125 161.152344 1162.007812 160.976562 C 1162.5625 160.800781 1163.101562 160.59375 1163.632812 160.355469 C 1164.164062 160.117188 1164.675781 159.851562 1165.175781 159.554688 C 1165.675781 159.257812 1166.15625 158.933594 1166.617188 158.578125 C 1167.082031 158.226562 1167.519531 157.851562 1167.941406 157.449219 C 1168.359375 157.042969 1168.753906 156.621094 1169.121094 156.171875 C 1169.492188 155.722656 1169.835938 155.253906 1170.152344 154.769531 C 1170.46875 154.28125 1170.753906 153.777344 1171.015625 153.257812 C 1171.273438 152.738281 1171.5 152.203125 1171.699219 151.65625 C 1171.894531 151.109375 1172.058594 150.554688 1172.195312 149.988281 C 1172.328125 149.421875 1172.425781 148.851562 1172.496094 148.273438 C 1172.5625 147.699219 1172.597656 147.121094 1172.597656 146.539062 C 1172.601562 145.957031 1172.570312 145.378906 1172.503906 144.800781 C 1172.4375 144.222656 1172.339844 143.652344 1172.210938 143.085938 C 1172.082031 142.519531 1171.917969 141.964844 1171.722656 141.414062 C 1171.527344 140.867188 1171.304688 140.332031 1171.046875 139.8125 C 1170.792969 139.289062 1170.507812 138.785156 1170.195312 138.296875 C 1169.878906 137.808594 1169.539062 137.335938 1169.171875 136.886719 C 1168.804688 136.4375 1168.410156 136.011719 1167.996094 135.605469 C 1167.578125 135.199219 1167.140625 134.820312 1166.679688 134.46875 C 1166.21875 134.113281 1165.738281 133.785156 1165.242188 133.484375 C 1164.746094 133.1875 1164.230469 132.917969 1163.703125 132.675781 C 1170.609375 64.890625 1226.863281 11.804688 1295.007812 11.804688 C 1367.796875 11.804688 1427.042969 72.332031 1427.042969 146.734375 C 1427.042969 221.140625 1367.816406 281.644531 1295.03125 281.644531 C 1294.648438 281.648438 1294.265625 281.691406 1293.890625 281.769531 C 1293.511719 281.847656 1293.148438 281.960938 1292.792969 282.113281 C 1292.4375 282.261719 1292.101562 282.445312 1291.785156 282.664062 C 1291.464844 282.882812 1291.171875 283.128906 1290.902344 283.402344 C 1290.632812 283.675781 1290.390625 283.976562 1290.183594 284.296875 C 1289.972656 284.621094 1289.792969 284.960938 1289.648438 285.316406 C 1289.507812 285.675781 1289.398438 286.042969 1289.328125 286.421875 C 1289.257812 286.800781 1289.222656 287.179688 1289.226562 287.566406 L 1289.226562 306.121094 L 1260.1875 306.402344 C 1259.265625 306.394531 1258.386719 306.582031 1257.546875 306.960938 C 1256.707031 307.339844 1255.984375 307.878906 1255.378906 308.570312 C 1255.136719 308.855469 1254.917969 309.15625 1254.734375 309.480469 C 1254.546875 309.800781 1254.390625 310.140625 1254.269531 310.492188 C 1254.148438 310.84375 1254.058594 311.207031 1254.003906 311.574219 C 1253.953125 311.945312 1253.933594 312.316406 1253.953125 312.6875 C 1253.96875 313.0625 1254.023438 313.429688 1254.109375 313.789062 C 1254.199219 314.152344 1254.320312 314.503906 1254.472656 314.84375 C 1254.628906 315.183594 1254.816406 315.503906 1255.03125 315.808594 C 1255.246094 316.113281 1255.492188 316.394531 1255.761719 316.652344 L 1290.640625 350.324219 C 1290.929688 350.59375 1291.242188 350.835938 1291.574219 351.050781 C 1291.910156 351.265625 1292.261719 351.445312 1292.628906 351.589844 C 1293 351.738281 1293.378906 351.847656 1293.765625 351.921875 C 1294.15625 351.996094 1294.550781 352.035156 1294.945312 352.035156 C 1295.34375 352.035156 1295.734375 351.996094 1296.125 351.921875 C 1296.515625 351.847656 1296.894531 351.738281 1297.261719 351.589844 C 1297.628906 351.445312 1297.980469 351.265625 1298.316406 351.050781 C 1298.652344 350.835938 1298.960938 350.59375 1299.25 350.324219 L 1334.125 316.652344 C 1334.417969 316.347656 1334.679688 316.019531 1334.914062 315.667969 C 1335.144531 315.316406 1335.34375 314.945312 1335.507812 314.554688 C 1335.671875 314.167969 1335.800781 313.765625 1335.890625 313.355469 C 1335.984375 312.941406 1336.035156 312.523438 1336.050781 312.101562 C 1336.0625 311.679688 1336.039062 311.261719 1335.976562 310.84375 C 1335.910156 310.425781 1335.808594 310.019531 1335.671875 309.621094 C 1335.535156 309.222656 1335.359375 308.839844 1335.148438 308.472656 C 1334.941406 308.105469 1334.699219 307.761719 1334.429688 307.4375 C 1333.847656 306.878906 1333.1875 306.449219 1332.441406 306.152344 C 1331.695312 305.851562 1330.917969 305.703125 1330.113281 305.707031 L 1300.792969 305.988281 L 1300.792969 293.332031 C 1377.320312 290.234375 1438.640625 225.660156 1438.601562 146.734375 Z M 1438.601562 146.734375 "/></g><g transform="matrix(1,0,0,1,132,77)"><g clip-path="url(#7d081c97de)"><g style="fill:#808080;fill-opacity:1;"><g transform="translate(5.171219, 100.762197)"><path style="stroke:none" d="M 36.132812 -72.996094 L 36.132812 3.910156 L 11.417969 3.910156 L 11.417969 -59.441406 L 15.328125 -59.441406 L 15.328125 -55.527344 L -3.179688 -55.527344 L -3.179688 -76.90625 L 36.132812 -76.90625 Z M 28.3125 -72.996094 L 32.222656 -72.996094 L 32.222656 -69.085938 L 0.730469 -69.085938 L 0.730469 -72.996094 L 4.640625 -72.996094 L 4.640625 -59.441406 L 0.730469 -59.441406 L 0.730469 -63.351562 L 19.238281 -63.351562 L 19.238281 0 L 15.328125 0 L 15.328125 -3.910156 L 32.222656 -3.910156 L 32.222656 0 L 28.3125 0 Z M 28.3125 -72.996094 "/></g></g><g style="fill:#ffffff;fill-opacity:1;"><g transform="translate(5.171219, 100.762197)"><path style="stroke:none" d="M 32.21875 -73 L 32.21875 0 L 15.328125 0 L 15.328125 -59.4375 L 0.734375 -59.4375 L 0.734375 -73 Z M 32.21875 -73 "/></g></g></g></g><g transform="matrix(1,0,0,1,683,344)"><g clip-path="url(#b628ed15ba)"><g clip-rule="nonzero" clip-path="url(#56621fb5f4)"><g style="fill:#808080;fill-opacity:1;"><g transform="translate(6.21994, 100.02338)"><path style="stroke:none" d="M 62.515625 -13.765625 L 62.515625 3.910156 L -0.46875 3.910156 L -0.46875 -12.636719 L 28.910156 -40.382812 C 31.570312 -42.917969 33.320312 -45.011719 34.160156 -46.664062 C 34.917969 -48.160156 35.296875 -49.601562 35.296875 -50.992188 C 35.296875 -52.648438 34.804688 -53.867188 33.8125 -54.648438 C 32.542969 -55.652344 30.449219 -56.15625 27.53125 -56.15625 C 24.917969 -56.15625 22.589844 -55.671875 20.546875 -54.707031 C 18.585938 -53.777344 16.933594 -52.375 15.589844 -50.492188 L 13.425781 -47.460938 L -5.367188 -59.5625 L -3.140625 -62.871094 C 0.105469 -67.703125 4.550781 -71.472656 10.199219 -74.175781 C 15.738281 -76.832031 22.035156 -78.15625 29.09375 -78.15625 C 35.058594 -78.15625 40.324219 -77.164062 44.890625 -75.171875 C 49.632812 -73.105469 53.34375 -70.15625 56.023438 -66.320312 C 58.753906 -62.414062 60.117188 -57.863281 60.117188 -52.660156 C 60.117188 -48.105469 59.15625 -43.820312 57.230469 -39.8125 C 55.347656 -35.890625 51.824219 -31.535156 46.664062 -26.75 L 29.902344 -10.921875 L 27.21875 -13.765625 L 27.21875 -17.675781 L 62.515625 -17.675781 Z M 54.695312 -13.765625 L 58.605469 -13.765625 L 58.605469 -9.855469 L 17.378906 -9.855469 L 41.347656 -32.484375 C 45.78125 -36.59375 48.722656 -40.167969 50.179688 -43.195312 C 51.589844 -46.136719 52.296875 -49.292969 52.296875 -52.660156 C 52.296875 -56.21875 51.402344 -59.28125 49.613281 -61.839844 C 47.773438 -64.46875 45.160156 -66.523438 41.765625 -68.003906 C 38.195312 -69.558594 33.972656 -70.335938 29.09375 -70.335938 C 23.222656 -70.335938 18.050781 -69.265625 13.578125 -67.125 C 9.214844 -65.03125 5.804688 -62.160156 3.351562 -58.507812 L 0.105469 -60.691406 L 2.222656 -63.980469 L 14.527344 -56.054688 L 12.410156 -52.765625 L 9.226562 -55.039062 C 11.359375 -58.023438 14.019531 -60.269531 17.203125 -61.777344 C 20.304688 -63.242188 23.746094 -63.976562 27.53125 -63.976562 C 32.257812 -63.976562 35.96875 -62.914062 38.660156 -60.789062 C 41.632812 -58.441406 43.121094 -55.175781 43.121094 -50.992188 C 43.121094 -48.351562 42.457031 -45.726562 41.128906 -43.121094 C 39.886719 -40.671875 37.601562 -37.863281 34.28125 -34.699219 L 6.125 -8.105469 L 3.441406 -10.949219 L 7.351562 -10.949219 L 7.351562 0 L 3.441406 0 L 3.441406 -3.910156 L 58.605469 -3.910156 L 58.605469 0 L 54.695312 0 Z M 54.695312 -13.765625 "/></g></g></g><g style="fill:#ffffff;fill-opacity:1;"><g transform="translate(6.21994, 100.02338)"><path style="stroke:none" d="M 58.609375 -13.765625 L 58.609375 0 L 3.4375 0 L 3.4375 -10.953125 L 31.59375 -37.546875 C 34.582031 -40.390625 36.597656 -42.835938 37.640625 -44.890625 C 38.679688 -46.941406 39.203125 -48.976562 39.203125 -51 C 39.203125 -53.914062 38.210938 -56.15625 36.234375 -57.71875 C 34.253906 -59.28125 31.351562 -60.0625 27.53125 -60.0625 C 24.332031 -60.0625 21.445312 -59.453125 18.875 -58.234375 C 16.300781 -57.023438 14.144531 -55.203125 12.40625 -52.765625 L 0.109375 -60.6875 C 2.953125 -64.925781 6.875 -68.242188 11.875 -70.640625 C 16.882812 -73.046875 22.625 -74.25 29.09375 -74.25 C 34.519531 -74.25 39.265625 -73.363281 43.328125 -71.59375 C 47.390625 -69.820312 50.550781 -67.316406 52.8125 -64.078125 C 55.070312 -60.847656 56.203125 -57.039062 56.203125 -52.65625 C 56.203125 -48.695312 55.367188 -44.976562 53.703125 -41.5 C 52.035156 -38.03125 48.800781 -34.066406 44 -29.609375 L 27.21875 -13.765625 Z M 58.609375 -13.765625 "/></g></g></g></g><g transform="matrix(1,0,0,1,1259,77)"><g clip-path="url(#27549a5fd7)"><g style="fill:#808080;fill-opacity:1;"><g transform="translate(7.32133, 100.762197)"><path style="stroke:none" d="M 38.796875 -47.136719 C 46.082031 -45.949219 51.738281 -43.160156 55.753906 -38.773438 C 59.84375 -34.308594 61.890625 -28.820312 61.890625 -22.316406 C 61.890625 -17.332031 60.582031 -12.734375 57.964844 -8.519531 C 55.335938 -4.289062 51.394531 -0.929688 46.148438 1.554688 C 41.066406 3.960938 34.929688 5.160156 27.738281 5.160156 C 22.246094 5.160156 16.84375 4.4375 11.535156 2.992188 C 6.113281 1.511719 1.46875 -0.617188 -2.390625 -3.394531 L -5.109375 -5.355469 L 5.085938 -25.421875 L 8.8125 -22.628906 C 11.234375 -20.8125 14.058594 -19.394531 17.285156 -18.382812 C 20.550781 -17.355469 23.898438 -16.839844 27.320312 -16.839844 C 30.769531 -16.839844 33.378906 -17.4375 35.152344 -18.628906 C 35.820312 -19.078125 36.308594 -19.589844 36.609375 -20.160156 C 36.917969 -20.746094 37.070312 -21.464844 37.070312 -22.316406 C 37.070312 -23.1875 36.929688 -23.90625 36.640625 -24.46875 C 36.386719 -24.972656 35.980469 -25.40625 35.421875 -25.773438 C 33.796875 -26.839844 31.09375 -27.375 27.320312 -27.375 L 15.695312 -27.375 L 15.695312 -43.921875 L 31.691406 -62.027344 L 34.621094 -59.441406 L 34.621094 -55.527344 L -0.363281 -55.527344 L -0.363281 -76.90625 L 58.554688 -76.90625 L 58.554688 -60.574219 L 41.105469 -40.695312 L 38.167969 -43.277344 Z M 30.570312 -40.550781 L 51.703125 -64.625 L 54.644531 -62.046875 L 50.730469 -62.046875 L 50.730469 -72.996094 L 54.644531 -72.996094 L 54.644531 -69.085938 L 3.546875 -69.085938 L 3.546875 -72.996094 L 7.457031 -72.996094 L 7.457031 -59.441406 L 3.546875 -59.441406 L 3.546875 -63.351562 L 43.292969 -63.351562 L 22.535156 -39.851562 L 19.605469 -42.441406 L 23.515625 -42.441406 L 23.515625 -31.285156 L 19.605469 -31.285156 L 19.605469 -35.195312 L 27.320312 -35.195312 C 32.652344 -35.195312 36.785156 -34.234375 39.714844 -32.3125 C 41.429688 -31.183594 42.730469 -29.75 43.613281 -28.011719 C 44.464844 -26.332031 44.890625 -24.433594 44.890625 -22.316406 C 44.890625 -20.175781 44.4375 -18.246094 43.53125 -16.519531 C 42.613281 -14.78125 41.277344 -13.320312 39.511719 -12.132812 C 36.417969 -10.058594 32.355469 -9.019531 27.320312 -9.019531 C 23.097656 -9.019531 18.96875 -9.652344 14.9375 -10.921875 C 10.863281 -12.203125 7.257812 -14.019531 4.117188 -16.371094 L 6.464844 -19.5 L 9.953125 -17.730469 L 3.382812 -4.796875 L -0.105469 -6.570312 L 2.179688 -9.742188 C 5.273438 -7.515625 9.078125 -5.785156 13.59375 -4.554688 C 18.226562 -3.292969 22.941406 -2.660156 27.738281 -2.660156 C 33.757812 -2.660156 38.777344 -3.613281 42.800781 -5.515625 C 46.664062 -7.34375 49.5 -9.71875 51.320312 -12.648438 C 53.152344 -15.597656 54.070312 -18.820312 54.070312 -22.316406 C 54.070312 -26.792969 52.707031 -30.519531 49.984375 -33.492188 C 47.191406 -36.542969 43.039062 -38.519531 37.539062 -39.417969 Z M 30.570312 -40.550781 "/></g></g><g style="fill:#ffffff;fill-opacity:1;"><g transform="translate(7.32133, 100.762197)"><path style="stroke:none" d="M 38.171875 -43.28125 C 44.566406 -42.238281 49.46875 -39.851562 52.875 -36.125 C 56.28125 -32.40625 57.984375 -27.800781 57.984375 -22.3125 C 57.984375 -18.070312 56.867188 -14.160156 54.640625 -10.578125 C 52.421875 -7.003906 49.03125 -4.140625 44.46875 -1.984375 C 39.914062 0.171875 34.335938 1.25 27.734375 1.25 C 22.585938 1.25 17.53125 0.570312 12.5625 -0.78125 C 7.59375 -2.132812 3.367188 -4.0625 -0.109375 -6.5625 L 6.46875 -19.5 C 9.25 -17.414062 12.460938 -15.800781 16.109375 -14.65625 C 19.765625 -13.507812 23.503906 -12.9375 27.328125 -12.9375 C 31.566406 -12.9375 34.898438 -13.75 37.328125 -15.375 C 39.765625 -17.007812 40.984375 -19.320312 40.984375 -22.3125 C 40.984375 -28.289062 36.429688 -31.28125 27.328125 -31.28125 L 19.609375 -31.28125 L 19.609375 -42.4375 L 34.625 -59.4375 L 3.546875 -59.4375 L 3.546875 -73 L 54.640625 -73 L 54.640625 -62.046875 Z M 38.171875 -43.28125 "/></g></g></g></g><g transform="matrix(1,0,0,1,90,399)"><g clip-path="url(#97d33c1e1a)"><g style="fill:#231f20;fill-opacity:1;"><g transform="translate(1.31045, 48.692475)"><path style="stroke:none" d="M 3.15625 0 L 20.828125 -17.828125 C 22.335938 -19.328125 23.09375 -21.164062 23.09375 -23.34375 C 23.09375 -25.488281 22.320312 -27.3125 20.78125 -28.8125 C 19.207031 -30.320312 17.332031 -31.078125 15.15625 -31.078125 C 12.914062 -31.078125 11.023438 -30.238281 9.484375 -28.5625 C 7.847656 -26.820312 7.128906 -24.898438 7.328125 -22.796875 L 3.765625 -22.796875 C 3.628906 -26.078125 4.703125 -28.867188 6.984375 -31.171875 C 9.253906 -33.515625 12.03125 -34.6875 15.3125 -34.6875 C 18.457031 -34.6875 21.1875 -33.582031 23.5 -31.375 C 25.738281 -29.164062 26.859375 -26.472656 26.859375 -23.296875 C 26.859375 -20.179688 25.753906 -17.519531 23.546875 -15.3125 L 11.640625 -3.515625 L 27.203125 -3.515625 L 27.203125 0 Z M 3.15625 0 "/></g></g><g style="fill:#231f20;fill-opacity:1;"><g transform="translate(32.179644, 48.692475)"><path style="stroke:none" d="M 16.8125 -30.171875 C 15.976562 -30.671875 15.007812 -30.921875 13.90625 -30.921875 C 12.769531 -30.921875 11.800781 -30.6875 11 -30.21875 C 10.15625 -29.71875 9.453125 -29.066406 8.890625 -28.265625 C 8.285156 -27.460938 7.800781 -26.554688 7.4375 -25.546875 C 7.0625 -24.546875 6.773438 -23.546875 6.578125 -22.546875 C 6.210938 -20.671875 6.03125 -19.097656 6.03125 -17.828125 C 6.03125 -16.554688 6.078125 -15.429688 6.171875 -14.453125 C 6.242188 -13.484375 6.378906 -12.484375 6.578125 -11.453125 C 6.773438 -10.410156 7.078125 -9.40625 7.484375 -8.4375 C 7.847656 -7.425781 8.332031 -6.535156 8.9375 -5.765625 C 10.238281 -3.992188 11.925781 -3.109375 14 -3.109375 C 15.875 -3.109375 17.46875 -3.992188 18.78125 -5.765625 C 20.28125 -7.878906 21.234375 -10.796875 21.640625 -14.515625 C 21.734375 -15.453125 21.78125 -16.269531 21.78125 -16.96875 C 21.78125 -19.976562 21.296875 -22.835938 20.328125 -25.546875 C 19.554688 -27.660156 18.382812 -29.203125 16.8125 -30.171875 Z M 14.0625 0.453125 C 10.007812 0.453125 6.976562 -1.535156 4.96875 -5.515625 C 3.332031 -8.660156 2.515625 -12.53125 2.515625 -17.125 C 2.515625 -21.707031 3.332031 -25.585938 4.96875 -28.765625 C 6.976562 -32.710938 10.007812 -34.6875 14.0625 -34.6875 C 18.101562 -34.6875 21.144531 -32.710938 23.1875 -28.765625 C 24.800781 -25.585938 25.609375 -21.707031 25.609375 -17.125 C 25.609375 -12.53125 24.800781 -8.660156 23.1875 -5.515625 C 21.144531 -1.535156 18.101562 0.453125 14.0625 0.453125 Z M 14.0625 0.453125 "/></g></g><g style="fill:#231f20;fill-opacity:1;"><g transform="translate(60.288175, 48.692475)"><path style="stroke:none" d="M 3.15625 0 L 20.828125 -17.828125 C 22.335938 -19.328125 23.09375 -21.164062 23.09375 -23.34375 C 23.09375 -25.488281 22.320312 -27.3125 20.78125 -28.8125 C 19.207031 -30.320312 17.332031 -31.078125 15.15625 -31.078125 C 12.914062 -31.078125 11.023438 -30.238281 9.484375 -28.5625 C 7.847656 -26.820312 7.128906 -24.898438 7.328125 -22.796875 L 3.765625 -22.796875 C 3.628906 -26.078125 4.703125 -28.867188 6.984375 -31.171875 C 9.253906 -33.515625 12.03125 -34.6875 15.3125 -34.6875 C 18.457031 -34.6875 21.1875 -33.582031 23.5 -31.375 C 25.738281 -29.164062 26.859375 -26.472656 26.859375 -23.296875 C 26.859375 -20.179688 25.753906 -17.519531 23.546875 -15.3125 L 11.640625 -3.515625 L 27.203125 -3.515625 L 27.203125 0 Z M 3.15625 0 "/></g></g><g style="fill:#231f20;fill-opacity:1;"><g transform="translate(91.157368, 48.692475)"><path style="stroke:none" d="M 8.984375 -21.484375 C 10.691406 -22.023438 12.28125 -22.296875 13.75 -22.296875 C 15.226562 -22.296875 16.648438 -22.007812 18.015625 -21.4375 C 19.390625 -20.832031 20.597656 -20.03125 21.640625 -19.03125 C 23.847656 -16.882812 24.953125 -14.222656 24.953125 -11.046875 C 24.953125 -7.867188 23.832031 -5.140625 21.59375 -2.859375 C 19.34375 -0.546875 16.597656 0.609375 13.359375 0.609375 C 10.941406 0.609375 8.734375 -0.09375 6.734375 -1.5 C 4.722656 -2.875 3.296875 -4.679688 2.453125 -6.921875 L 5.875 -8.03125 C 6.445312 -6.519531 7.414062 -5.300781 8.78125 -4.375 C 10.15625 -3.4375 11.546875 -2.96875 12.953125 -2.96875 C 14.328125 -2.96875 15.5 -3.179688 16.46875 -3.609375 C 17.40625 -4.015625 18.242188 -4.566406 18.984375 -5.265625 C 20.554688 -6.773438 21.34375 -8.617188 21.34375 -10.796875 C 21.34375 -12.898438 20.570312 -14.753906 19.03125 -16.359375 C 17.519531 -17.929688 15.757812 -18.71875 13.75 -18.71875 C 11.707031 -18.71875 9.96875 -18.1875 8.53125 -17.125 L 4.71875 -18.828125 L 8.640625 -34.140625 L 23.640625 -34.140625 L 23.640625 -30.625 L 11.296875 -30.625 Z M 8.984375 -21.484375 "/></g></g></g></g><g transform="matrix(1,0,0,1,657,99)"><g clip-path="url(#ff79532038)"><g style="fill:#231f20;fill-opacity:1;"><g transform="translate(1.150475, 48.787517)"><path style="stroke:none" d="M 3.15625 0 L 20.828125 -17.828125 C 22.335938 -19.328125 23.09375 -21.164062 23.09375 -23.34375 C 23.09375 -25.488281 22.320312 -27.3125 20.78125 -28.8125 C 19.207031 -30.320312 17.332031 -31.078125 15.15625 -31.078125 C 12.914062 -31.078125 11.023438 -30.238281 9.484375 -28.5625 C 7.847656 -26.820312 7.128906 -24.898438 7.328125 -22.796875 L 3.765625 -22.796875 C 3.628906 -26.078125 4.703125 -28.867188 6.984375 -31.171875 C 9.253906 -33.515625 12.03125 -34.6875 15.3125 -34.6875 C 18.457031 -34.6875 21.1875 -33.582031 23.5 -31.375 C 25.738281 -29.164062 26.859375 -26.472656 26.859375 -23.296875 C 26.859375 -20.179688 25.753906 -17.519531 23.546875 -15.3125 L 11.640625 -3.515625 L 27.203125 -3.515625 L 27.203125 0 Z M 3.15625 0 "/></g></g><g style="fill:#231f20;fill-opacity:1;"><g transform="translate(32.019669, 48.787517)"><path style="stroke:none" d="M 16.8125 -30.171875 C 15.976562 -30.671875 15.007812 -30.921875 13.90625 -30.921875 C 12.769531 -30.921875 11.800781 -30.6875 11 -30.21875 C 10.15625 -29.71875 9.453125 -29.066406 8.890625 -28.265625 C 8.285156 -27.460938 7.800781 -26.554688 7.4375 -25.546875 C 7.0625 -24.546875 6.773438 -23.546875 6.578125 -22.546875 C 6.210938 -20.671875 6.03125 -19.097656 6.03125 -17.828125 C 6.03125 -16.554688 6.078125 -15.429688 6.171875 -14.453125 C 6.242188 -13.484375 6.378906 -12.484375 6.578125 -11.453125 C 6.773438 -10.410156 7.078125 -9.40625 7.484375 -8.4375 C 7.847656 -7.425781 8.332031 -6.535156 8.9375 -5.765625 C 10.238281 -3.992188 11.925781 -3.109375 14 -3.109375 C 15.875 -3.109375 17.46875 -3.992188 18.78125 -5.765625 C 20.28125 -7.878906 21.234375 -10.796875 21.640625 -14.515625 C 21.734375 -15.453125 21.78125 -16.269531 21.78125 -16.96875 C 21.78125 -19.976562 21.296875 -22.835938 20.328125 -25.546875 C 19.554688 -27.660156 18.382812 -29.203125 16.8125 -30.171875 Z M 14.0625 0.453125 C 10.007812 0.453125 6.976562 -1.535156 4.96875 -5.515625 C 3.332031 -8.660156 2.515625 -12.53125 2.515625 -17.125 C 2.515625 -21.707031 3.332031 -25.585938 4.96875 -28.765625 C 6.976562 -32.710938 10.007812 -34.6875 14.0625 -34.6875 C 18.101562 -34.6875 21.144531 -32.710938 23.1875 -28.765625 C 24.800781 -25.585938 25.609375 -21.707031 25.609375 -17.125 C 25.609375 -12.53125 24.800781 -8.660156 23.1875 -5.515625 C 21.144531 -1.535156 18.101562 0.453125 14.0625 0.453125 Z M 14.0625 0.453125 "/></g></g><g style="fill:#231f20;fill-opacity:1;"><g transform="translate(60.1282, 48.787517)"><path style="stroke:none" d="M 3.15625 0 L 20.828125 -17.828125 C 22.335938 -19.328125 23.09375 -21.164062 23.09375 -23.34375 C 23.09375 -25.488281 22.320312 -27.3125 20.78125 -28.8125 C 19.207031 -30.320312 17.332031 -31.078125 15.15625 -31.078125 C 12.914062 -31.078125 11.023438 -30.238281 9.484375 -28.5625 C 7.847656 -26.820312 7.128906 -24.898438 7.328125 -22.796875 L 3.765625 -22.796875 C 3.628906 -26.078125 4.703125 -28.867188 6.984375 -31.171875 C 9.253906 -33.515625 12.03125 -34.6875 15.3125 -34.6875 C 18.457031 -34.6875 21.1875 -33.582031 23.5 -31.375 C 25.738281 -29.164062 26.859375 -26.472656 26.859375 -23.296875 C 26.859375 -20.179688 25.753906 -17.519531 23.546875 -15.3125 L 11.640625 -3.515625 L 27.203125 -3.515625 L 27.203125 0 Z M 3.15625 0 "/></g></g><g style="fill:#231f20;fill-opacity:1;"><g transform="translate(90.997393, 48.787517)"><path style="stroke:none" d="M 12.953125 -18.625 C 11.847656 -18.625 10.8125 -18.421875 9.84375 -18.015625 C 8.875 -17.585938 8.019531 -17.019531 7.28125 -16.3125 C 5.707031 -14.8125 4.921875 -12.988281 4.921875 -10.84375 C 4.921875 -8.664062 5.707031 -6.828125 7.28125 -5.328125 C 8.882812 -3.753906 10.757812 -2.96875 12.90625 -2.96875 C 15.113281 -2.96875 16.96875 -3.71875 18.46875 -5.21875 C 20.007812 -6.757812 20.78125 -8.582031 20.78125 -10.6875 C 20.78125 -12.832031 20.03125 -14.691406 18.53125 -16.265625 C 16.988281 -17.835938 15.128906 -18.625 12.953125 -18.625 Z M 24.34375 -10.9375 C 24.34375 -9.269531 24.039062 -7.75 23.4375 -6.375 C 22.84375 -5 22.023438 -3.796875 20.984375 -2.765625 C 18.773438 -0.554688 16.066406 0.546875 12.859375 0.546875 C 9.710938 0.546875 7 -0.570312 4.71875 -2.8125 C 2.476562 -4.988281 1.359375 -7.664062 1.359375 -10.84375 C 1.359375 -13.582031 2.210938 -15.972656 3.921875 -18.015625 L 17.265625 -34.140625 L 21.890625 -34.140625 L 11.453125 -21.59375 L 12.453125 -22.234375 C 15.867188 -22.109375 18.660156 -21.054688 20.828125 -19.078125 C 23.171875 -16.972656 24.34375 -14.257812 24.34375 -10.9375 Z M 24.34375 -10.9375 "/></g></g></g></g><g transform="matrix(1,0,0,1,1231,399)"><g clip-path="url(#7859a32b51)"><g style="fill:#231f20;fill-opacity:1;"><g transform="translate(1.636347, 48.692475)"><path style="stroke:none" d="M 3.15625 0 L 20.828125 -17.828125 C 22.335938 -19.328125 23.09375 -21.164062 23.09375 -23.34375 C 23.09375 -25.488281 22.320312 -27.3125 20.78125 -28.8125 C 19.207031 -30.320312 17.332031 -31.078125 15.15625 -31.078125 C 12.914062 -31.078125 11.023438 -30.238281 9.484375 -28.5625 C 7.847656 -26.820312 7.128906 -24.898438 7.328125 -22.796875 L 3.765625 -22.796875 C 3.628906 -26.078125 4.703125 -28.867188 6.984375 -31.171875 C 9.253906 -33.515625 12.03125 -34.6875 15.3125 -34.6875 C 18.457031 -34.6875 21.1875 -33.582031 23.5 -31.375 C 25.738281 -29.164062 26.859375 -26.472656 26.859375 -23.296875 C 26.859375 -20.179688 25.753906 -17.519531 23.546875 -15.3125 L 11.640625 -3.515625 L 27.203125 -3.515625 L 27.203125 0 Z M 3.15625 0 "/></g></g><g style="fill:#231f20;fill-opacity:1;"><g transform="translate(32.505541, 48.692475)"><path style="stroke:none" d="M 16.8125 -30.171875 C 15.976562 -30.671875 15.007812 -30.921875 13.90625 -30.921875 C 12.769531 -30.921875 11.800781 -30.6875 11 -30.21875 C 10.15625 -29.71875 9.453125 -29.066406 8.890625 -28.265625 C 8.285156 -27.460938 7.800781 -26.554688 7.4375 -25.546875 C 7.0625 -24.546875 6.773438 -23.546875 6.578125 -22.546875 C 6.210938 -20.671875 6.03125 -19.097656 6.03125 -17.828125 C 6.03125 -16.554688 6.078125 -15.429688 6.171875 -14.453125 C 6.242188 -13.484375 6.378906 -12.484375 6.578125 -11.453125 C 6.773438 -10.410156 7.078125 -9.40625 7.484375 -8.4375 C 7.847656 -7.425781 8.332031 -6.535156 8.9375 -5.765625 C 10.238281 -3.992188 11.925781 -3.109375 14 -3.109375 C 15.875 -3.109375 17.46875 -3.992188 18.78125 -5.765625 C 20.28125 -7.878906 21.234375 -10.796875 21.640625 -14.515625 C 21.734375 -15.453125 21.78125 -16.269531 21.78125 -16.96875 C 21.78125 -19.976562 21.296875 -22.835938 20.328125 -25.546875 C 19.554688 -27.660156 18.382812 -29.203125 16.8125 -30.171875 Z M 14.0625 0.453125 C 10.007812 0.453125 6.976562 -1.535156 4.96875 -5.515625 C 3.332031 -8.660156 2.515625 -12.53125 2.515625 -17.125 C 2.515625 -21.707031 3.332031 -25.585938 4.96875 -28.765625 C 6.976562 -32.710938 10.007812 -34.6875 14.0625 -34.6875 C 18.101562 -34.6875 21.144531 -32.710938 23.1875 -28.765625 C 24.800781 -25.585938 25.609375 -21.707031 25.609375 -17.125 C 25.609375 -12.53125 24.800781 -8.660156 23.1875 -5.515625 C 21.144531 -1.535156 18.101562 0.453125 14.0625 0.453125 Z M 14.0625 0.453125 "/></g></g><g style="fill:#231f20;fill-opacity:1;"><g transform="translate(60.614072, 48.692475)"><path style="stroke:none" d="M 3.15625 0 L 20.828125 -17.828125 C 22.335938 -19.328125 23.09375 -21.164062 23.09375 -23.34375 C 23.09375 -25.488281 22.320312 -27.3125 20.78125 -28.8125 C 19.207031 -30.320312 17.332031 -31.078125 15.15625 -31.078125 C 12.914062 -31.078125 11.023438 -30.238281 9.484375 -28.5625 C 7.847656 -26.820312 7.128906 -24.898438 7.328125 -22.796875 L 3.765625 -22.796875 C 3.628906 -26.078125 4.703125 -28.867188 6.984375 -31.171875 C 9.253906 -33.515625 12.03125 -34.6875 15.3125 -34.6875 C 18.457031 -34.6875 21.1875 -33.582031 23.5 -31.375 C 25.738281 -29.164062 26.859375 -26.472656 26.859375 -23.296875 C 26.859375 -20.179688 25.753906 -17.519531 23.546875 -15.3125 L 11.640625 -3.515625 L 27.203125 -3.515625 L 27.203125 0 Z M 3.15625 0 "/></g></g><g style="fill:#231f20;fill-opacity:1;"><g transform="translate(91.483265, 48.692475)"><path style="stroke:none" d="M 7.9375 0 L 4.015625 0 L 17.46875 -30.46875 L 1.5 -30.46875 L 1.5 -33.984375 L 22.9375 -33.984375 Z M 7.9375 0 "/></g></g></g></g></g></svg>