<svg xmlns="http://www.w3.org/2000/svg" xmlns:xlink="http://www.w3.org/1999/xlink" width="1920" zoomAndPan="magnify" viewBox="0 0 1440 809.999993" height="1080" preserveAspectRatio="xMidYMid meet" version="1.2"><defs><clipPath id="47b586c0bf"><path d="M 847 546 L 864 546 L 864 562 L 847 562 Z M 847 546 "/></clipPath><clipPath id="146b8ff32a"><path d="M 866.199219 555.667969 L 853.511719 565.003906 L 844.175781 552.316406 L 856.863281 542.984375 Z M 866.199219 555.667969 "/></clipPath><clipPath id="343791c828"><path d="M 866.195312 555.667969 L 853.542969 564.976562 L 844.230469 552.324219 L 856.886719 543.011719 Z M 866.195312 555.667969 "/></clipPath><clipPath id="d5adccc522"><path d="M 859.941406 560.269531 C 863.398438 557.726562 864.128906 552.855469 861.574219 549.386719 C 859.023438 545.917969 854.15625 545.167969 850.703125 547.707031 C 847.246094 550.25 846.515625 555.121094 849.070312 558.589844 C 851.621094 562.058594 856.488281 562.808594 859.941406 560.269531 Z M 859.941406 560.269531 "/></clipPath><clipPath id="203d442e51"><path d="M 1218 358 L 1235 358 L 1235 374 L 1218 374 Z M 1218 358 "/></clipPath><clipPath id="31ce75e4ab"><path d="M 1236.1875 370.941406 L 1221.246094 375.921875 L 1216.265625 360.980469 L 1231.207031 356 Z M 1236.1875 370.941406 "/></clipPath><clipPath id="f0c1b9cdad"><path d="M 1236.1875 370.941406 L 1221.28125 375.910156 L 1216.3125 361.003906 L 1231.21875 356.035156 Z M 1236.1875 370.941406 "/></clipPath><clipPath id="b3c01e01de"><path d="M 1228.820312 373.394531 C 1232.890625 372.039062 1235.082031 367.628906 1233.722656 363.542969 C 1232.359375 359.460938 1227.957031 357.246094 1223.890625 358.601562 C 1219.824219 359.957031 1217.628906 364.371094 1218.992188 368.453125 C 1220.351562 372.539062 1224.753906 374.753906 1228.820312 373.394531 Z M 1228.820312 373.394531 "/></clipPath><clipPath id="42495c3fe9"><path d="M 816 496 L 822 496 L 822 503 L 816 503 Z M 816 496 "/></clipPath><clipPath id="ba55a2abfe"><path d="M 821.96875 497.777344 L 819.027344 502.921875 L 815.273438 500.773438 L 818.214844 495.632812 Z M 821.96875 497.777344 "/></clipPath><clipPath id="6ca3df6e0a"><path d="M 820.5 500.34375 C 821.308594 498.925781 821.128906 497.296875 820.089844 496.703125 C 819.054688 496.109375 817.558594 496.78125 816.75 498.195312 C 815.9375 499.613281 816.121094 501.242188 817.15625 501.835938 C 818.191406 502.429688 819.6875 501.761719 820.5 500.34375 Z M 820.5 500.34375 "/></clipPath><clipPath id="e4252b03ab"><path d="M 0 0.078125 L 5.519531 0.078125 L 5.519531 6.558594 L 0 6.558594 Z M 0 0.078125 "/></clipPath><clipPath id="b02d60a9db"><path d="M 5.96875 1.777344 L 3.027344 6.921875 L -0.726562 4.773438 L 2.214844 -0.367188 Z M 5.96875 1.777344 "/></clipPath><clipPath id="9673a48202"><path d="M 4.5 4.34375 C 5.308594 2.925781 5.128906 1.296875 4.089844 0.703125 C 3.054688 0.109375 1.558594 0.78125 0.75 2.195312 C -0.0625 3.613281 0.121094 5.242188 1.15625 5.835938 C 2.191406 6.429688 3.6875 5.761719 4.5 4.34375 Z M 4.5 4.34375 "/></clipPath><clipPath id="67049da461"><rect x="0" width="6" y="0" height="7"/></clipPath><clipPath id="a140facf63"><path d="M 1204 308 L 1209 308 L 1209 315 L 1204 315 Z M 1204 308 "/></clipPath><clipPath id="44e2786c25"><path d="M 1209.886719 310.117188 L 1206.945312 315.261719 L 1203.191406 313.117188 L 1206.132812 307.972656 Z M 1209.886719 310.117188 "/></clipPath><clipPath id="6b31c3d74d"><path d="M 1208.417969 312.683594 C 1209.226562 311.265625 1209.046875 309.636719 1208.007812 309.042969 C 1206.972656 308.453125 1205.476562 309.121094 1204.667969 310.539062 C 1203.855469 311.957031 1204.039062 313.585938 1205.074219 314.175781 C 1206.109375 314.769531 1207.605469 314.101562 1208.417969 312.683594 Z M 1208.417969 312.683594 "/></clipPath><clipPath id="06f4b92aa2"><path d="M 0 0.398438 L 5 0.398438 L 5 6.878906 L 0 6.878906 Z M 0 0.398438 "/></clipPath><clipPath id="9555875777"><path d="M 5.886719 2.117188 L 2.945312 7.261719 L -0.808594 5.117188 L 2.132812 -0.0273438 Z M 5.886719 2.117188 "/></clipPath><clipPath id="864c261d57"><path d="M 4.417969 4.683594 C 5.226562 3.265625 5.046875 1.636719 4.007812 1.042969 C 2.972656 0.453125 1.476562 1.121094 0.667969 2.539062 C -0.144531 3.957031 0.0390625 5.585938 1.074219 6.175781 C 2.109375 6.769531 3.605469 6.101562 4.417969 4.683594 Z M 4.417969 4.683594 "/></clipPath><clipPath id="038c0fd7de"><rect x="0" width="5" y="0" height="7"/></clipPath><clipPath id="c3f6f33799"><path d="M 934 208 L 950 208 L 950 224 L 934 224 Z M 934 208 "/></clipPath><clipPath id="fb27f54c66"><path d="M 950.992188 222.199219 L 936.253906 224.984375 L 933.46875 210.246094 L 948.207031 207.460938 Z M 950.992188 222.199219 "/></clipPath><clipPath id="4bf22ab330"><path d="M 950.988281 222.203125 L 936.160156 225 L 933.359375 210.171875 L 948.1875 207.371094 Z M 950.988281 222.203125 "/></clipPath><clipPath id="7d6c6fe604"><path d="M 943.585938 223.597656 C 947.675781 222.828125 950.371094 218.925781 949.609375 214.882812 C 948.84375 210.839844 944.914062 208.191406 940.824219 208.964844 C 936.734375 209.734375 934.039062 213.636719 934.804688 217.679688 C 935.566406 221.71875 939.5 224.371094 943.585938 223.597656 Z M 943.585938 223.597656 "/></clipPath><clipPath id="9db3538292"><path d="M 954 270 L 961 270 L 961 276 L 954 276 Z M 954 270 "/></clipPath><clipPath id="31440838b5"><path d="M 954.617188 271.140625 L 960.191406 270.402344 L 960.757812 274.6875 L 955.183594 275.425781 Z M 954.617188 271.140625 "/></clipPath><clipPath id="4fe68f10c3"><path d="M 957.398438 270.773438 C 955.863281 270.976562 954.746094 272.097656 954.902344 273.28125 C 955.058594 274.464844 956.429688 275.261719 957.964844 275.058594 C 959.5 274.855469 960.617188 273.730469 960.460938 272.546875 C 960.304688 271.363281 958.933594 270.570312 957.398438 270.773438 Z M 957.398438 270.773438 "/></clipPath><clipPath id="20bb586e8d"><path d="M 0.71875 0.480469 L 6.71875 0.480469 L 6.71875 5.28125 L 0.71875 5.28125 Z M 0.71875 0.480469 "/></clipPath><clipPath id="460c6d8a27"><path d="M 0.617188 1.140625 L 6.191406 0.402344 L 6.757812 4.6875 L 1.183594 5.425781 Z M 0.617188 1.140625 "/></clipPath><clipPath id="1452feeb6d"><path d="M 3.398438 0.773438 C 1.863281 0.976562 0.746094 2.097656 0.902344 3.28125 C 1.058594 4.464844 2.429688 5.261719 3.964844 5.058594 C 5.5 4.855469 6.617188 3.730469 6.460938 2.546875 C 6.304688 1.363281 4.933594 0.570312 3.398438 0.773438 Z M 3.398438 0.773438 "/></clipPath><clipPath id="1217b8df01"><rect x="0" width="7" y="0" height="6"/></clipPath><clipPath id="01069fc305"><path d="M 523 540 L 529 540 L 529 546 L 523 546 Z M 523 540 "/></clipPath><clipPath id="1a387252bf"><path d="M 529.203125 541.605469 L 526.261719 546.75 L 522.511719 544.605469 L 525.453125 539.460938 Z M 529.203125 541.605469 "/></clipPath><clipPath id="21562298b5"><path d="M 527.738281 544.171875 C 528.546875 542.753906 528.363281 541.125 527.328125 540.53125 C 526.292969 539.941406 524.796875 540.609375 523.984375 542.027344 C 523.175781 543.445312 523.355469 545.074219 524.394531 545.664062 C 525.429688 546.257812 526.925781 545.589844 527.738281 544.171875 Z M 527.738281 544.171875 "/></clipPath><clipPath id="c4deaf5a55"><path d="M 0 0 L 5.71875 0 L 5.71875 6 L 0 6 Z M 0 0 "/></clipPath><clipPath id="326f33cfd0"><path d="M 6.203125 1.605469 L 3.261719 6.75 L -0.488281 4.605469 L 2.453125 -0.539062 Z M 6.203125 1.605469 "/></clipPath><clipPath id="8f902b2505"><path d="M 4.738281 4.171875 C 5.546875 2.753906 5.363281 1.125 4.328125 0.53125 C 3.292969 -0.0585938 1.796875 0.609375 0.984375 2.027344 C 0.175781 3.445312 0.355469 5.074219 1.394531 5.664062 C 2.429688 6.257812 3.925781 5.589844 4.738281 4.171875 Z M 4.738281 4.171875 "/></clipPath><clipPath id="35ba4cac89"><rect x="0" width="6" y="0" height="6"/></clipPath><clipPath id="5e6af10e91"><path d="M 481 480 L 498 480 L 498 497 L 481 497 Z M 481 480 "/></clipPath><clipPath id="3eb8bd6587"><path d="M 500.164062 490.066406 L 487.476562 499.398438 L 478.144531 486.714844 L 490.828125 477.378906 Z M 500.164062 490.066406 "/></clipPath><clipPath id="3f983963c5"><path d="M 500.160156 490.0625 L 487.507812 499.375 L 478.195312 486.722656 L 490.851562 477.410156 Z M 500.160156 490.0625 "/></clipPath><clipPath id="ae2e38b731"><path d="M 493.910156 494.664062 C 497.363281 492.125 498.09375 487.253906 495.539062 483.785156 C 492.988281 480.316406 488.121094 479.5625 484.667969 482.105469 C 481.214844 484.644531 480.480469 489.519531 483.035156 492.984375 C 485.585938 496.453125 490.453125 497.207031 493.910156 494.664062 Z M 493.910156 494.664062 "/></clipPath></defs><g id="9258e1c3a8"><g clip-rule="nonzero" clip-path="url(#47b586c0bf)"><g clip-rule="nonzero" clip-path="url(#146b8ff32a)"><g clip-rule="nonzero" clip-path="url(#343791c828)"><g clip-rule="nonzero" clip-path="url(#d5adccc522)"><path style="fill:none;stroke-width:4;stroke-linecap:butt;stroke-linejoin:miter;stroke:#ffbd59;stroke-opacity:1;stroke-miterlimit:4;" d="M 10.354495 0.000242388 C 4.632373 -0.000463502 -0.00122835 4.653638 0.00139102 10.397605 C -0.000184725 16.138486 4.634288 20.789976 10.349128 20.791791 C 16.07125 20.792497 20.704852 16.138395 20.702232 10.394428 C 20.703808 4.653547 16.069335 0.0020567 10.354495 0.000242388 Z M 10.354495 0.000242388 " transform="matrix(-0.604097,0.444485,-0.444485,-0.604097,866.196635,555.667264)"/></g></g></g></g><g clip-rule="nonzero" clip-path="url(#203d442e51)"><g clip-rule="nonzero" clip-path="url(#31ce75e4ab)"><g clip-rule="nonzero" clip-path="url(#f0c1b9cdad)"><g clip-rule="nonzero" clip-path="url(#b3c01e01de)"><path style="fill:none;stroke-width:4;stroke-linecap:butt;stroke-linejoin:miter;stroke:#ffbd59;stroke-opacity:1;stroke-miterlimit:4;" d="M 10.35203 0.00279504 C 4.631931 0.0012468 0.000591784 4.655805 -0.00260311 10.397315 C 0.000790022 16.135532 4.635584 20.793224 10.350742 20.793125 C 16.065901 20.793027 20.703828 16.135175 20.700435 10.396958 C 20.70363 4.655447 16.068836 -0.00224474 10.35203 0.00279504 Z M 10.35203 0.00279504 " transform="matrix(-0.711517,0.237159,-0.237159,-0.711517,1236.186616,370.941448)"/></g></g></g></g><path style="fill:none;stroke-width:2;stroke-linecap:butt;stroke-linejoin:miter;stroke:#ffbd59;stroke-opacity:1;stroke-miterlimit:4;" d="M -0.00265573 0.999716 L 77.512514 1.001552 " transform="matrix(0.412031,0.626682,-0.626682,0.412031,819.389317,498.722563)"/><path style="fill:none;stroke-width:2;stroke-linecap:butt;stroke-linejoin:miter;stroke:#ffbd59;stroke-opacity:1;stroke-miterlimit:4;" d="M -0.00216166 1.000994 L 66.900337 1.001557 " transform="matrix(0.25726,0.704498,-0.704498,0.25726,1207.385441,311.216664)"/><g clip-rule="nonzero" clip-path="url(#42495c3fe9)"><g clip-rule="nonzero" clip-path="url(#ba55a2abfe)"><g clip-rule="nonzero" clip-path="url(#6ca3df6e0a)"><g transform="matrix(1,0,0,1,816,496)"><g clip-path="url(#67049da461)"><g clip-rule="nonzero" clip-path="url(#e4252b03ab)"><g clip-rule="nonzero" clip-path="url(#b02d60a9db)"><g clip-rule="nonzero" clip-path="url(#9673a48202)"><path style=" stroke:none;fill-rule:nonzero;fill:#ffbd59;fill-opacity:1;" d="M 5.96875 1.777344 L 3.035156 6.90625 L -0.71875 4.761719 L 2.214844 -0.367188 Z M 5.96875 1.777344 "/></g></g></g></g></g></g></g></g><g clip-rule="nonzero" clip-path="url(#a140facf63)"><g clip-rule="nonzero" clip-path="url(#44e2786c25)"><g clip-rule="nonzero" clip-path="url(#6b31c3d74d)"><g transform="matrix(1,0,0,1,1204,308)"><g clip-path="url(#038c0fd7de)"><g clip-rule="nonzero" clip-path="url(#06f4b92aa2)"><g clip-rule="nonzero" clip-path="url(#9555875777)"><g clip-rule="nonzero" clip-path="url(#864c261d57)"><path style=" stroke:none;fill-rule:nonzero;fill:#ffbd59;fill-opacity:1;" d="M 5.886719 2.117188 L 2.953125 7.246094 L -0.800781 5.101562 L 2.132812 -0.0273438 Z M 5.886719 2.117188 "/></g></g></g></g></g></g></g></g><path style="fill:none;stroke-width:2;stroke-linecap:butt;stroke-linejoin:miter;stroke:#ffbd59;stroke-opacity:1;stroke-miterlimit:4;" d="M -0.00121908 0.996956 L 68.303923 0.998055 " transform="matrix(-0.20343,-0.721884,0.721884,-0.20343,956.760534,273.115993)"/><g clip-rule="nonzero" clip-path="url(#c3f6f33799)"><g clip-rule="nonzero" clip-path="url(#fb27f54c66)"><g clip-rule="nonzero" clip-path="url(#4bf22ab330)"><g clip-rule="nonzero" clip-path="url(#7d6c6fe604)"><path style="fill:none;stroke-width:4;stroke-linecap:butt;stroke-linejoin:miter;stroke:#ffbd59;stroke-opacity:1;stroke-miterlimit:4;" d="M 10.046126 0.00220014 C 4.497313 -0.00140244 0.000529606 4.44455 -0.00171188 9.930015 C 0.00116453 15.416447 4.494539 19.858581 10.044318 19.857066 C 15.593131 19.860668 20.089915 15.414716 20.087039 9.928284 C 20.088314 4.447937 15.590788 -0.000281586 10.046126 0.00220014 Z M 10.046126 0.00220014 " transform="matrix(-0.736976,0.139162,-0.139162,-0.736976,950.989998,222.201234)"/></g></g></g></g><g clip-rule="nonzero" clip-path="url(#9db3538292)"><g clip-rule="nonzero" clip-path="url(#31440838b5)"><g clip-rule="nonzero" clip-path="url(#4fe68f10c3)"><g transform="matrix(1,0,0,1,954,270)"><g clip-path="url(#1217b8df01)"><g clip-rule="nonzero" clip-path="url(#20bb586e8d)"><g clip-rule="nonzero" clip-path="url(#460c6d8a27)"><g clip-rule="nonzero" clip-path="url(#1452feeb6d)"><path style=" stroke:none;fill-rule:nonzero;fill:#ffbd59;fill-opacity:1;" d="M 0.617188 1.140625 L 6.175781 0.40625 L 6.742188 4.691406 L 1.183594 5.425781 Z M 0.617188 1.140625 "/></g></g></g></g></g></g></g></g><path style=" stroke:none;fill-rule:nonzero;fill:#ffbd59;fill-opacity:1;" d="M 524.65625 544.542969 L 520.332031 545.792969 L 519.917969 544.351562 L 524.242188 543.105469 M 518.890625 546.210938 L 514.570312 547.457031 L 514.152344 546.015625 L 518.476562 544.769531 M 513.128906 547.875 L 508.804688 549.121094 L 508.386719 547.679688 L 512.710938 546.433594 M 507.363281 549.539062 L 503.039062 550.785156 L 502.625 549.34375 L 506.945312 548.097656 M 501.597656 551.203125 L 497.273438 552.449219 L 496.859375 551.007812 L 501.183594 549.761719 M 495.832031 552.867188 L 491.511719 554.113281 L 491.09375 552.675781 L 495.417969 551.425781 M 490.070312 554.53125 L 485.746094 555.78125 L 485.328125 554.339844 L 489.652344 553.089844 M 484.304688 556.195312 L 479.980469 557.445312 L 479.566406 556.003906 L 483.890625 554.753906 M 478.539062 557.859375 L 474.21875 559.109375 L 473.800781 557.667969 L 478.125 556.417969 M 472.777344 559.523438 L 468.453125 560.773438 L 468.035156 559.332031 L 472.359375 558.082031 M 467.011719 561.1875 L 462.6875 562.4375 L 462.273438 560.996094 L 466.59375 559.746094 M 461.246094 562.851562 L 456.921875 564.101562 L 456.507812 562.660156 L 460.832031 561.410156 M 455.480469 564.515625 L 451.160156 565.765625 L 450.742188 564.324219 L 455.066406 563.078125 M 449.71875 566.183594 L 445.394531 567.429688 L 444.976562 565.988281 L 449.300781 564.742188 M 443.953125 567.847656 L 439.628906 569.09375 L 439.214844 567.652344 L 443.535156 566.40625 M 438.1875 569.511719 L 433.863281 570.757812 L 433.449219 569.316406 L 437.773438 568.070312 M 432.425781 571.175781 L 428.101562 572.421875 L 427.683594 570.980469 L 432.007812 569.734375 M 426.660156 572.839844 L 422.335938 574.085938 L 421.921875 572.648438 L 426.242188 571.398438 M 420.894531 574.503906 L 416.570312 575.753906 L 416.15625 574.3125 L 420.480469 573.0625 M 415.128906 576.167969 L 410.808594 577.417969 L 410.390625 575.976562 L 414.714844 574.726562 M 409.367188 577.832031 L 405.042969 579.082031 L 404.625 577.640625 L 408.949219 576.390625 M 403.601562 579.496094 L 399.277344 580.746094 L 398.863281 579.304688 L 403.183594 578.054688 M 397.835938 581.160156 L 393.511719 582.410156 L 393.097656 580.96875 L 397.421875 579.71875 M 392.074219 582.824219 L 387.75 584.074219 L 387.332031 582.632812 L 391.65625 581.382812 M 386.308594 584.488281 L 381.984375 585.738281 L 381.566406 584.296875 L 385.890625 583.050781 M 380.542969 586.15625 L 376.21875 587.402344 L 375.804688 585.960938 L 380.128906 584.714844 M 374.777344 587.820312 L 370.457031 589.066406 L 370.039062 587.625 L 374.363281 586.378906 M 369.015625 589.484375 L 364.691406 590.730469 L 364.273438 589.289062 L 368.597656 588.042969 M 363.25 591.148438 L 358.925781 592.394531 L 358.511719 590.953125 L 362.832031 589.707031 M 357.484375 592.8125 L 353.160156 594.058594 L 352.746094 592.621094 L 357.070312 591.371094 M 351.71875 594.476562 L 347.398438 595.726562 L 346.980469 594.285156 L 351.304688 593.035156 M 345.957031 596.140625 L 341.632812 597.390625 L 341.214844 595.949219 L 345.539062 594.699219 M 340.191406 597.804688 L 335.867188 599.054688 L 335.453125 597.613281 L 339.777344 596.363281 M 334.425781 599.46875 L 330.105469 600.71875 L 329.6875 599.277344 L 334.011719 598.027344 M 328.664062 601.132812 L 324.339844 602.382812 L 323.921875 600.941406 L 328.246094 599.691406 M 322.898438 602.796875 L 318.574219 604.046875 L 318.160156 602.605469 L 322.480469 601.355469 M 317.132812 604.460938 L 312.808594 605.710938 L 312.394531 604.269531 L 316.71875 603.023438 M 311.367188 606.128906 L 307.046875 607.375 L 306.628906 605.933594 L 310.953125 604.6875 M 305.605469 607.792969 L 301.28125 609.039062 L 300.863281 607.597656 L 305.1875 606.351562 M 299.839844 609.457031 L 295.515625 610.703125 L 295.101562 609.261719 L 299.421875 608.015625 M 294.074219 611.121094 L 289.75 612.367188 L 289.335938 610.925781 L 293.660156 609.679688 M 288.3125 612.785156 L 283.988281 614.03125 L 283.570312 612.59375 L 287.894531 611.34375 M 282.546875 614.449219 L 278.222656 615.699219 L 277.808594 614.257812 L 282.128906 613.007812 M 276.78125 616.113281 L 272.457031 617.363281 L 272.042969 615.921875 L 276.367188 614.671875 M 271.015625 617.777344 L 266.695312 619.027344 L 266.277344 617.585938 L 270.601562 616.335938 M 265.253906 619.441406 L 260.929688 620.691406 L 260.511719 619.25 L 264.835938 618 M 259.488281 621.105469 L 255.164062 622.355469 L 254.75 620.914062 L 259.070312 619.664062 M 253.722656 622.769531 L 249.398438 624.019531 L 248.984375 622.578125 L 253.308594 621.328125 M 247.960938 624.433594 L 243.636719 625.683594 L 243.21875 624.242188 L 247.542969 622.996094 M 242.195312 626.101562 L 237.871094 627.347656 L 237.453125 625.90625 L 241.777344 624.660156 M 236.429688 627.765625 L 232.105469 629.011719 L 231.691406 627.570312 L 236.015625 626.324219 M 230.664062 629.429688 L 226.34375 630.675781 L 225.925781 629.234375 L 230.25 627.988281 M 224.902344 631.09375 L 220.578125 632.339844 L 220.160156 630.898438 L 224.484375 629.652344 M 219.136719 632.757812 L 214.8125 634.003906 L 214.398438 632.5625 L 218.71875 631.316406 M 213.371094 634.421875 L 209.046875 635.671875 L 208.632812 634.230469 L 212.957031 632.980469 M 207.605469 636.085938 L 203.285156 637.335938 L 202.867188 635.894531 L 207.191406 634.644531 M 201.84375 637.75 L 197.519531 639 L 197.101562 637.558594 L 201.425781 636.308594 M 196.078125 639.414062 L 191.753906 640.664062 L 191.339844 639.222656 L 195.664062 637.972656 M 190.3125 641.078125 L 185.992188 642.328125 L 185.574219 640.886719 L 189.898438 639.636719 M 184.550781 642.742188 L 180.226562 643.992188 L 179.808594 642.550781 L 184.132812 641.300781 M 178.785156 644.40625 L 174.460938 645.65625 L 174.046875 644.214844 L 178.367188 642.96875 M 173.019531 646.074219 L 168.695312 647.320312 L 168.28125 645.878906 L 172.605469 644.632812 M 167.253906 647.738281 L 162.933594 648.984375 L 162.515625 647.542969 L 166.839844 646.296875 M 161.492188 649.402344 L 157.167969 650.648438 L 156.75 649.207031 L 161.074219 647.960938 M 155.726562 651.066406 L 151.402344 652.3125 L 150.988281 650.871094 L 155.308594 649.625 M 149.960938 652.730469 L 145.636719 653.976562 L 145.222656 652.535156 L 149.546875 651.289062 M 144.199219 654.394531 L 139.875 655.644531 L 139.457031 654.203125 L 143.78125 652.953125 M 138.433594 656.058594 L 134.109375 657.308594 L 133.695312 655.867188 L 138.015625 654.617188 M 132.667969 657.722656 L 128.34375 658.972656 L 127.929688 657.53125 L 132.253906 656.28125 M 126.902344 659.386719 L 122.582031 660.636719 L 122.164062 659.195312 L 126.488281 657.945312 M 121.140625 661.050781 L 116.816406 662.300781 L 116.398438 660.859375 L 120.722656 659.609375 M 115.375 662.714844 L 111.050781 663.964844 L 110.636719 662.523438 L 114.957031 661.273438 M 109.609375 664.378906 L 105.285156 665.628906 L 104.871094 664.1875 L 109.195312 662.941406 M 103.847656 666.046875 L 99.523438 667.292969 L 99.105469 665.851562 L 103.429688 664.605469 M 98.082031 667.710938 L 93.757812 668.957031 L 93.339844 667.515625 L 97.664062 666.269531 M 92.316406 669.375 L 87.992188 670.621094 L 87.578125 669.179688 L 91.902344 667.933594 M 86.550781 671.039062 L 82.230469 672.285156 L 81.8125 670.84375 L 86.136719 669.597656 M 80.789062 672.703125 L 76.464844 673.949219 L 76.046875 672.507812 L 80.371094 671.261719 M 75.023438 674.367188 L 70.699219 675.613281 L 70.285156 674.175781 L 74.605469 672.925781 M 69.257812 676.03125 L 64.933594 677.28125 L 64.519531 675.839844 L 68.84375 674.589844 M 63.492188 677.695312 L 59.171875 678.945312 L 58.753906 677.503906 L 63.078125 676.253906 M 57.730469 679.359375 L 53.40625 680.609375 L 52.988281 679.167969 L 57.3125 677.917969 M 51.964844 681.023438 L 47.640625 682.273438 L 47.226562 680.832031 L 51.550781 679.582031 M 46.199219 682.6875 L 41.878906 683.9375 L 41.460938 682.496094 L 45.785156 681.246094 M 40.4375 684.351562 L 36.113281 685.601562 L 35.695312 684.160156 L 40.019531 682.914062 M 34.671875 686.019531 L 30.347656 687.265625 L 29.933594 685.824219 L 34.253906 684.578125 M 28.90625 687.683594 L 24.582031 688.929688 L 24.167969 687.488281 L 28.492188 686.242188 M 23.140625 689.347656 L 18.820312 690.59375 L 18.402344 689.152344 L 22.726562 687.90625 M 17.378906 691.011719 L 13.054688 692.257812 L 12.636719 690.816406 L 16.960938 689.570312 M 11.613281 692.675781 L 7.289062 693.921875 L 6.875 692.480469 L 11.195312 691.234375 M 5.847656 694.339844 L 1.523438 695.585938 L 1.109375 694.148438 L 5.433594 692.898438 "/><path style=" stroke:none;fill-rule:nonzero;fill:#ffbd59;fill-opacity:1;" d="M 816.617188 499.449219 L 812.171875 500.132812 L 811.941406 498.648438 L 816.390625 497.964844 M 810.6875 500.359375 L 806.238281 501.039062 L 806.011719 499.558594 L 810.460938 498.875 M 804.757812 501.269531 L 800.308594 501.949219 L 800.082031 500.46875 L 804.53125 499.785156 M 798.828125 502.175781 L 794.378906 502.859375 L 794.152344 501.378906 L 798.597656 500.695312 M 792.894531 503.085938 L 788.449219 503.769531 L 788.21875 502.285156 L 792.667969 501.605469 M 786.964844 503.996094 L 782.515625 504.679688 L 782.289062 503.195312 L 786.738281 502.515625 M 781.035156 504.90625 L 776.585938 505.589844 L 776.359375 504.105469 L 780.808594 503.421875 M 775.105469 505.816406 L 770.65625 506.496094 L 770.429688 505.015625 L 774.875 504.332031 M 769.171875 506.726562 L 764.726562 507.40625 L 764.496094 505.925781 L 768.945312 505.242188 M 763.242188 507.636719 L 758.792969 508.316406 L 758.566406 506.835938 L 763.015625 506.152344 M 757.3125 508.542969 L 752.863281 509.226562 L 752.636719 507.742188 L 757.085938 507.0625 M 751.382812 509.453125 L 746.933594 510.136719 L 746.707031 508.652344 L 751.152344 507.972656 M 745.449219 510.363281 L 741.003906 511.046875 L 740.773438 509.5625 L 745.222656 508.878906 M 739.519531 511.273438 L 735.070312 511.957031 L 734.84375 510.472656 L 739.292969 509.789062 M 733.589844 512.183594 L 729.140625 512.863281 L 728.914062 511.382812 L 733.363281 510.699219 M 727.660156 513.09375 L 723.210938 513.773438 L 722.984375 512.292969 L 727.429688 511.609375 M 721.726562 514 L 717.28125 514.683594 L 717.050781 513.199219 L 721.5 512.519531 M 715.796875 514.910156 L 711.347656 515.59375 L 711.121094 514.109375 L 715.570312 513.429688 M 709.867188 515.820312 L 705.417969 516.503906 L 705.191406 515.019531 L 709.640625 514.339844 M 703.9375 516.730469 L 699.488281 517.414062 L 699.261719 515.929688 L 703.707031 515.246094 M 698.003906 517.640625 L 693.558594 518.320312 L 693.328125 516.839844 L 697.777344 516.15625 M 692.074219 518.550781 L 687.625 519.230469 L 687.398438 517.75 L 691.847656 517.066406 M 686.144531 519.457031 L 681.695312 520.140625 L 681.46875 518.660156 L 685.917969 517.976562 M 680.214844 520.367188 L 675.765625 521.050781 L 675.539062 519.566406 L 679.984375 518.886719 M 674.28125 521.277344 L 669.835938 521.960938 L 669.605469 520.476562 L 674.054688 519.796875 M 668.351562 522.1875 L 663.902344 522.871094 L 663.675781 521.386719 L 668.125 520.703125 M 662.421875 523.097656 L 657.972656 523.777344 L 657.746094 522.296875 L 662.195312 521.613281 M 656.492188 524.007812 L 652.042969 524.6875 L 651.816406 523.207031 L 656.261719 522.523438 M 650.558594 524.917969 L 646.113281 525.597656 L 645.882812 524.117188 L 650.332031 523.433594 M 644.628906 525.824219 L 640.179688 526.507812 L 639.953125 525.023438 L 644.402344 524.34375 M 638.699219 526.734375 L 634.25 527.417969 L 634.023438 525.933594 L 638.472656 525.253906 M 632.769531 527.644531 L 628.320312 528.328125 L 628.09375 526.84375 L 632.539062 526.164062 M 626.835938 528.554688 L 622.390625 529.238281 L 622.160156 527.753906 L 626.609375 527.070312 M 620.90625 529.464844 L 616.457031 530.144531 L 616.230469 528.664062 L 620.679688 527.980469 M 614.976562 530.375 L 610.527344 531.054688 L 610.300781 529.574219 L 614.75 528.890625 M 609.046875 531.28125 L 604.597656 531.964844 L 604.371094 530.484375 L 608.816406 529.800781 M 603.113281 532.191406 L 598.667969 532.875 L 598.4375 531.390625 L 602.886719 530.710938 M 597.183594 533.101562 L 592.734375 533.785156 L 592.507812 532.300781 L 596.957031 531.621094 M 591.253906 534.011719 L 586.804688 534.695312 L 586.578125 533.210938 L 591.027344 532.527344 M 585.324219 534.921875 L 580.875 535.601562 L 580.648438 534.121094 L 585.09375 533.4375 M 579.390625 535.832031 L 574.945312 536.511719 L 574.714844 535.03125 L 579.164062 534.347656 M 573.460938 536.738281 L 569.011719 537.421875 L 568.785156 535.941406 L 573.234375 535.257812 M 567.53125 537.648438 L 563.082031 538.332031 L 562.855469 536.847656 L 567.304688 536.167969 M 561.601562 538.558594 L 557.152344 539.242188 L 556.925781 537.757812 L 561.371094 537.078125 M 555.667969 539.46875 L 551.222656 540.152344 L 550.992188 538.667969 L 555.441406 537.984375 M 549.738281 540.378906 L 545.289062 541.0625 L 545.0625 539.578125 L 549.511719 538.894531 M 543.808594 541.289062 L 539.359375 541.96875 L 539.132812 540.488281 L 543.582031 539.804688 M 537.878906 542.199219 L 533.429688 542.878906 L 533.203125 541.398438 L 537.648438 540.714844 M 531.945312 543.105469 L 527.5 543.789062 L 527.269531 542.304688 L 531.71875 541.625 "/><path style=" stroke:none;fill-rule:nonzero;fill:#ffbd59;fill-opacity:1;" d="M 957.078125 275.324219 L 954.722656 279.15625 L 953.445312 278.371094 L 955.800781 274.539062 M 953.9375 280.433594 L 951.582031 284.269531 L 950.304688 283.484375 L 952.660156 279.648438 M 950.796875 285.546875 L 948.441406 289.382812 L 947.164062 288.597656 L 949.519531 284.761719 M 947.65625 290.660156 L 945.300781 294.492188 L 944.023438 293.707031 L 946.378906 289.875 M 944.515625 295.773438 L 942.160156 299.605469 L 940.882812 298.820312 L 943.238281 294.988281 M 941.375 300.882812 L 939.019531 304.71875 L 937.742188 303.933594 L 940.097656 300.097656 M 938.234375 305.996094 L 935.878906 309.832031 L 934.601562 309.046875 L 936.957031 305.210938 M 935.09375 311.109375 L 932.738281 314.945312 L 931.460938 314.160156 L 933.816406 310.324219 M 931.953125 316.222656 L 929.597656 320.054688 L 928.320312 319.269531 L 930.675781 315.4375 M 928.8125 321.335938 L 926.457031 325.167969 L 925.179688 324.382812 L 927.535156 320.550781 M 925.671875 326.445312 L 923.320312 330.28125 L 922.039062 329.496094 L 924.394531 325.660156 M 922.535156 331.558594 L 920.179688 335.394531 L 918.898438 334.609375 L 921.253906 330.773438 M 919.394531 336.671875 L 917.039062 340.507812 L 915.757812 339.722656 L 918.113281 335.886719 M 916.253906 341.785156 L 913.898438 345.617188 L 912.617188 344.832031 L 914.972656 341 M 913.113281 346.898438 L 910.757812 350.730469 L 909.476562 349.945312 L 911.832031 346.113281 M 909.972656 352.007812 L 907.617188 355.84375 L 906.335938 355.058594 L 908.691406 351.222656 M 906.832031 357.121094 L 904.476562 360.957031 L 903.199219 360.171875 L 905.550781 356.335938 M 903.691406 362.234375 L 901.335938 366.070312 L 900.058594 365.285156 L 902.414062 361.449219 M 900.550781 367.347656 L 898.195312 371.179688 L 896.917969 370.394531 L 899.273438 366.5625 M 897.410156 372.460938 L 895.054688 376.292969 L 893.777344 375.507812 L 896.132812 371.675781 M 894.269531 377.570312 L 891.914062 381.40625 L 890.636719 380.621094 L 892.992188 376.785156 M 891.128906 382.683594 L 888.773438 386.519531 L 887.496094 385.734375 L 889.851562 381.898438 M 887.988281 387.796875 L 885.632812 391.628906 L 884.355469 390.84375 L 886.710938 387.011719 M 884.847656 392.910156 L 882.492188 396.742188 L 881.214844 395.957031 L 883.570312 392.125 M 881.707031 398.019531 L 879.351562 401.855469 L 878.074219 401.070312 L 880.429688 397.234375 M 878.566406 403.132812 L 876.210938 406.96875 L 874.933594 406.183594 L 877.289062 402.347656 M 875.425781 408.246094 L 873.070312 412.082031 L 871.792969 411.296875 L 874.148438 407.460938 M 872.285156 413.359375 L 869.929688 417.191406 L 868.652344 416.40625 L 871.007812 412.574219 M 869.144531 418.472656 L 866.789062 422.304688 L 865.511719 421.519531 L 867.867188 417.6875 M 866.003906 423.582031 L 863.648438 427.417969 L 862.371094 426.632812 L 864.726562 422.796875 M 862.863281 428.695312 L 860.507812 432.53125 L 859.230469 431.746094 L 861.585938 427.910156 M 859.722656 433.808594 L 857.367188 437.644531 L 856.089844 436.859375 L 858.445312 433.023438 M 856.582031 438.921875 L 854.226562 442.753906 L 852.949219 441.96875 L 855.304688 438.136719 M 853.441406 444.035156 L 851.085938 447.867188 L 849.808594 447.082031 L 852.164062 443.25 M 850.300781 449.144531 L 847.945312 452.980469 L 846.667969 452.195312 L 849.023438 448.359375 M 847.160156 454.257812 L 844.804688 458.09375 L 843.527344 457.308594 L 845.882812 453.472656 M 844.019531 459.371094 L 841.664062 463.207031 L 840.386719 462.421875 L 842.742188 458.585938 M 840.878906 464.484375 L 838.523438 468.316406 L 837.246094 467.53125 L 839.601562 463.699219 M 837.738281 469.597656 L 835.382812 473.429688 L 834.105469 472.644531 L 836.460938 468.8125 M 834.597656 474.707031 L 832.242188 478.542969 L 830.964844 477.757812 L 833.320312 473.921875 M 831.457031 479.820312 L 829.101562 483.65625 L 827.824219 482.871094 L 830.179688 479.035156 M 828.316406 484.933594 L 825.960938 488.765625 L 824.683594 487.980469 L 827.039062 484.148438 M 825.175781 490.046875 L 822.820312 493.878906 L 821.542969 493.09375 L 823.898438 489.261719 M 822.035156 495.15625 L 820.8125 497.152344 L 819.535156 496.367188 L 820.757812 494.371094 "/><path style=" stroke:none;fill-rule:nonzero;fill:#ffbd59;fill-opacity:1;" d="M 1204.222656 312.011719 L 1199.777344 311.320312 L 1200.007812 309.839844 L 1204.453125 310.53125 M 1198.296875 311.089844 L 1193.847656 310.398438 L 1194.078125 308.917969 L 1198.527344 309.609375 M 1192.367188 310.167969 L 1187.917969 309.476562 L 1188.152344 307.996094 L 1192.597656 308.6875 M 1186.4375 309.246094 L 1181.992188 308.554688 L 1182.222656 307.074219 L 1186.667969 307.765625 M 1180.507812 308.324219 L 1176.0625 307.632812 L 1176.292969 306.152344 L 1180.738281 306.84375 M 1174.582031 307.402344 L 1170.132812 306.710938 L 1170.363281 305.230469 L 1174.8125 305.921875 M 1168.652344 306.480469 L 1164.203125 305.789062 L 1164.433594 304.308594 L 1168.882812 305 M 1162.722656 305.558594 L 1158.277344 304.867188 L 1158.507812 303.386719 L 1162.953125 304.078125 M 1156.792969 304.636719 L 1152.347656 303.945312 L 1152.578125 302.464844 L 1157.023438 303.15625 M 1150.867188 303.714844 L 1146.417969 303.023438 L 1146.648438 301.542969 L 1151.097656 302.234375 M 1144.9375 302.792969 L 1140.488281 302.101562 L 1140.71875 300.621094 L 1145.167969 301.3125 M 1139.007812 301.871094 L 1134.5625 301.179688 L 1134.792969 299.699219 L 1139.238281 300.390625 M 1133.078125 300.949219 L 1128.632812 300.257812 L 1128.863281 298.777344 L 1133.308594 299.46875 M 1127.148438 300.027344 L 1122.703125 299.335938 L 1122.933594 297.855469 L 1127.378906 298.546875 M 1121.222656 299.105469 L 1116.773438 298.414062 L 1117.003906 296.933594 L 1121.453125 297.625 M 1115.292969 298.183594 L 1110.847656 297.492188 L 1111.078125 296.011719 L 1115.523438 296.703125 M 1109.363281 297.261719 L 1104.917969 296.570312 L 1105.148438 295.089844 L 1109.59375 295.78125 M 1103.433594 296.339844 L 1098.988281 295.648438 L 1099.21875 294.167969 L 1103.664062 294.859375 M 1097.507812 295.417969 L 1093.058594 294.726562 L 1093.289062 293.246094 L 1097.738281 293.9375 M 1091.578125 294.496094 L 1087.132812 293.804688 L 1087.363281 292.324219 L 1091.808594 293.015625 M 1085.648438 293.574219 L 1081.203125 292.882812 L 1081.433594 291.402344 L 1085.878906 292.09375 M 1079.71875 292.652344 L 1075.273438 291.960938 L 1075.503906 290.480469 L 1079.949219 291.171875 M 1073.792969 291.730469 L 1069.34375 291.039062 L 1069.574219 289.558594 L 1074.023438 290.25 M 1067.863281 290.808594 L 1063.417969 290.117188 L 1063.648438 288.636719 L 1068.09375 289.328125 M 1061.933594 289.886719 L 1057.488281 289.195312 L 1057.71875 287.714844 L 1062.164062 288.40625 M 1056.003906 288.964844 L 1051.558594 288.273438 L 1051.789062 286.792969 L 1056.234375 287.484375 M 1050.078125 288.042969 L 1045.628906 287.351562 L 1045.859375 285.867188 L 1050.308594 286.5625 M 1044.148438 287.121094 L 1039.703125 286.429688 L 1039.933594 284.945312 L 1044.378906 285.636719 M 1038.21875 286.199219 L 1033.773438 285.507812 L 1034.003906 284.023438 L 1038.449219 284.714844 M 1032.289062 285.277344 L 1027.84375 284.585938 L 1028.074219 283.101562 L 1032.519531 283.792969 M 1026.363281 284.355469 L 1021.914062 283.664062 L 1022.144531 282.179688 L 1026.59375 282.871094 M 1020.433594 283.433594 L 1015.984375 282.742188 L 1016.214844 281.257812 L 1020.664062 281.949219 M 1014.503906 282.511719 L 1010.058594 281.820312 L 1010.289062 280.335938 L 1014.734375 281.027344 M 1008.574219 281.589844 L 1004.128906 280.898438 L 1004.359375 279.414062 L 1008.804688 280.105469 M 1002.648438 280.667969 L 998.199219 279.976562 L 998.429688 278.492188 L 1002.878906 279.183594 M 996.71875 279.746094 L 992.269531 279.054688 L 992.5 277.570312 L 996.949219 278.261719 M 990.789062 278.824219 L 986.34375 278.132812 L 986.574219 276.648438 L 991.019531 277.339844 M 984.859375 277.902344 L 980.414062 277.210938 L 980.644531 275.726562 L 985.089844 276.417969 M 978.929688 276.980469 L 974.484375 276.289062 L 974.714844 274.804688 L 979.160156 275.496094 M 973.003906 276.058594 L 968.554688 275.367188 L 968.785156 273.882812 L 973.234375 274.574219 M 967.074219 275.136719 L 962.628906 274.445312 L 962.859375 272.960938 L 967.304688 273.652344 M 961.144531 274.214844 L 960.257812 274.074219 L 960.488281 272.59375 L 961.375 272.730469 "/><path style=" stroke:none;fill-rule:nonzero;fill:#ffbd59;fill-opacity:1;" d="M 1356.050781 97.066406 L 1353.492188 100.769531 L 1352.257812 99.914062 L 1354.816406 96.214844 M 1352.636719 102.003906 L 1350.078125 105.703125 L 1348.84375 104.851562 L 1351.402344 101.148438 M 1349.226562 106.9375 L 1346.664062 110.640625 L 1345.433594 109.785156 L 1347.992188 106.085938 M 1345.8125 111.871094 L 1343.253906 115.574219 L 1342.019531 114.722656 L 1344.578125 111.019531 M 1342.398438 116.808594 L 1339.839844 120.507812 L 1338.605469 119.65625 L 1341.167969 115.953125 M 1338.988281 121.742188 L 1336.429688 125.445312 L 1335.195312 124.589844 L 1337.753906 120.890625 M 1335.574219 126.679688 L 1333.015625 130.378906 L 1331.78125 129.527344 L 1334.339844 125.824219 M 1332.164062 131.613281 L 1329.605469 135.3125 L 1328.371094 134.460938 L 1330.929688 130.761719 M 1328.75 136.546875 L 1326.191406 140.25 L 1324.957031 139.394531 L 1327.515625 135.695312 M 1325.339844 141.484375 L 1322.777344 145.183594 L 1321.546875 144.332031 L 1324.105469 140.628906 M 1321.925781 146.417969 L 1319.367188 150.121094 L 1318.132812 149.265625 L 1320.691406 145.566406 M 1318.511719 151.355469 L 1315.953125 155.054688 L 1314.71875 154.203125 L 1317.28125 150.5 M 1315.101562 156.289062 L 1312.542969 159.988281 L 1311.308594 159.136719 L 1313.867188 155.4375 M 1311.6875 161.222656 L 1309.128906 164.925781 L 1307.894531 164.070312 L 1310.453125 160.371094 M 1308.277344 166.160156 L 1305.71875 169.859375 L 1304.484375 169.007812 L 1307.042969 165.304688 M 1304.863281 171.09375 L 1302.304688 174.796875 L 1301.070312 173.941406 L 1303.628906 170.242188 M 1301.453125 176.027344 L 1298.890625 179.730469 L 1297.660156 178.878906 L 1300.21875 175.175781 M 1298.039062 180.964844 L 1295.480469 184.664062 L 1294.246094 183.8125 L 1296.804688 180.109375 M 1294.625 185.898438 L 1292.066406 189.601562 L 1290.832031 188.746094 L 1293.394531 185.046875 M 1291.214844 190.835938 L 1288.65625 194.535156 L 1287.421875 193.683594 L 1289.980469 189.980469 M 1287.800781 195.769531 L 1285.242188 199.472656 L 1284.007812 198.617188 L 1286.566406 194.917969 M 1284.390625 200.703125 L 1281.828125 204.40625 L 1280.597656 203.554688 L 1283.15625 199.851562 M 1280.976562 205.640625 L 1278.417969 209.339844 L 1277.183594 208.488281 L 1279.742188 204.785156 M 1277.566406 210.574219 L 1275.003906 214.277344 L 1273.769531 213.421875 L 1276.332031 209.722656 M 1274.152344 215.511719 L 1271.59375 219.210938 L 1270.359375 218.359375 L 1272.917969 214.65625 M 1270.738281 220.445312 L 1268.179688 224.148438 L 1266.945312 223.292969 L 1269.507812 219.59375 M 1267.328125 225.378906 L 1264.769531 229.082031 L 1263.535156 228.230469 L 1266.09375 224.527344 M 1263.914062 230.316406 L 1261.355469 234.015625 L 1260.121094 233.164062 L 1262.679688 229.460938 M 1260.503906 235.25 L 1257.941406 238.953125 L 1256.710938 238.097656 L 1259.269531 234.398438 M 1257.089844 240.1875 L 1254.53125 243.886719 L 1253.296875 243.035156 L 1255.855469 239.332031 M 1253.675781 245.121094 L 1251.117188 248.824219 L 1249.882812 247.96875 L 1252.445312 244.269531 M 1250.265625 250.054688 L 1247.707031 253.757812 L 1246.472656 252.90625 L 1249.03125 249.203125 M 1246.851562 254.992188 L 1244.292969 258.691406 L 1243.058594 257.839844 L 1245.617188 254.136719 M 1243.441406 259.925781 L 1240.882812 263.628906 L 1239.648438 262.773438 L 1242.207031 259.074219 M 1240.027344 264.863281 L 1237.46875 268.5625 L 1236.234375 267.710938 L 1238.792969 264.007812 M 1236.617188 269.796875 L 1234.054688 273.496094 L 1232.824219 272.644531 L 1235.382812 268.945312 M 1233.203125 274.730469 L 1230.644531 278.433594 L 1229.410156 277.578125 L 1231.96875 273.878906 M 1229.789062 279.667969 L 1227.230469 283.367188 L 1225.996094 282.515625 L 1228.558594 278.8125 M 1226.378906 284.601562 L 1223.820312 288.304688 L 1222.585938 287.449219 L 1225.144531 283.75 M 1222.964844 289.539062 L 1220.40625 293.238281 L 1219.171875 292.386719 L 1221.730469 288.683594 M 1219.554688 294.472656 L 1216.996094 298.171875 L 1215.761719 297.320312 L 1218.320312 293.621094 M 1216.140625 299.40625 L 1213.582031 303.109375 L 1212.347656 302.253906 L 1214.90625 298.554688 M 1212.730469 304.34375 L 1210.167969 308.042969 L 1208.9375 307.191406 L 1211.496094 303.488281 M 1209.316406 309.277344 L 1208.988281 309.75 L 1207.753906 308.898438 L 1208.082031 308.425781 "/><g style="fill:#ffbd59;fill-opacity:1;"><g transform="translate(1191.646818, 371.694729)"><path style="stroke:none" d="M 10.640625 -5.65625 C 10.640625 -4.488281 10.453125 -3.484375 10.078125 -2.640625 C 9.703125 -1.796875 9.179688 -1.132812 8.515625 -0.65625 L 10.671875 1.03125 L 9.59375 2.046875 L 7.046875 0.015625 C 6.640625 0.117188 6.21875 0.171875 5.78125 0.171875 C 4.820312 0.171875 3.972656 -0.0625 3.234375 -0.53125 C 2.503906 -1 1.9375 -1.664062 1.53125 -2.53125 C 1.125 -3.394531 0.914062 -4.398438 0.90625 -5.546875 L 0.90625 -6.421875 C 0.90625 -7.578125 1.101562 -8.597656 1.5 -9.484375 C 1.90625 -10.378906 2.476562 -11.0625 3.21875 -11.53125 C 3.957031 -12.007812 4.804688 -12.25 5.765625 -12.25 C 6.734375 -12.25 7.585938 -12.015625 8.328125 -11.546875 C 9.066406 -11.078125 9.632812 -10.398438 10.03125 -9.515625 C 10.4375 -8.628906 10.640625 -7.597656 10.640625 -6.421875 Z M 9.046875 -6.4375 C 9.046875 -7.851562 8.757812 -8.945312 8.1875 -9.71875 C 7.625 -10.488281 6.816406 -10.875 5.765625 -10.875 C 4.765625 -10.875 3.972656 -10.488281 3.390625 -9.71875 C 2.816406 -8.957031 2.519531 -7.898438 2.5 -6.546875 L 2.5 -5.65625 C 2.5 -4.269531 2.785156 -3.175781 3.359375 -2.375 C 3.941406 -1.582031 4.75 -1.1875 5.78125 -1.1875 C 6.8125 -1.1875 7.609375 -1.5625 8.171875 -2.3125 C 8.734375 -3.0625 9.023438 -4.132812 9.046875 -5.53125 Z M 9.046875 -6.4375 "/></g></g><g style="fill:#ffbd59;fill-opacity:1;"><g transform="translate(1203.328947, 371.694729)"><path style="stroke:none" d="M 7.484375 -4.0625 L 9.171875 -4.0625 L 9.171875 -2.8125 L 7.484375 -2.8125 L 7.484375 0 L 5.9375 0 L 5.9375 -2.8125 L 0.4375 -2.8125 L 0.4375 -3.703125 L 5.859375 -12.09375 L 7.484375 -12.09375 Z M 2.1875 -4.0625 L 5.9375 -4.0625 L 5.9375 -9.984375 L 5.765625 -9.65625 Z M 2.1875 -4.0625 "/></g></g><g style="fill:#ffbd59;fill-opacity:1;"><g transform="translate(1212.881192, 371.694729)"><path style="stroke:none" d=""/></g></g><g style="fill:#ffbd59;fill-opacity:1;"><g transform="translate(1238.531536, 371.558497)"><path style="stroke:none" d="M 8.921875 0 L 1 0 L 1 -1.109375 L 5.1875 -5.75 C 5.8125 -6.457031 6.238281 -7.03125 6.46875 -7.46875 C 6.707031 -7.90625 6.828125 -8.359375 6.828125 -8.828125 C 6.828125 -9.460938 6.632812 -9.976562 6.25 -10.375 C 5.863281 -10.78125 5.351562 -10.984375 4.71875 -10.984375 C 3.957031 -10.984375 3.363281 -10.765625 2.9375 -10.328125 C 2.519531 -9.898438 2.3125 -9.300781 2.3125 -8.53125 L 0.765625 -8.53125 C 0.765625 -9.632812 1.125 -10.53125 1.84375 -11.21875 C 2.5625 -11.90625 3.519531 -12.25 4.71875 -12.25 C 5.84375 -12.25 6.734375 -11.953125 7.390625 -11.359375 C 8.046875 -10.773438 8.375 -9.992188 8.375 -9.015625 C 8.375 -7.828125 7.613281 -6.410156 6.09375 -4.765625 L 2.859375 -1.25 L 8.921875 -1.25 Z M 8.921875 0 "/></g></g><g style="fill:#ffbd59;fill-opacity:1;"><g transform="translate(1248.073047, 371.558497)"><path style="stroke:none" d="M 8.578125 -5.15625 C 8.578125 -3.351562 8.269531 -2.015625 7.65625 -1.140625 C 7.039062 -0.265625 6.082031 0.171875 4.78125 0.171875 C 3.488281 0.171875 2.53125 -0.253906 1.90625 -1.109375 C 1.289062 -1.972656 0.972656 -3.253906 0.953125 -4.953125 L 0.953125 -7 C 0.953125 -8.769531 1.257812 -10.085938 1.875 -10.953125 C 2.488281 -11.816406 3.453125 -12.25 4.765625 -12.25 C 6.066406 -12.25 7.023438 -11.832031 7.640625 -11 C 8.253906 -10.164062 8.566406 -8.878906 8.578125 -7.140625 Z M 7.046875 -7.25 C 7.046875 -8.550781 6.863281 -9.5 6.5 -10.09375 C 6.132812 -10.6875 5.554688 -10.984375 4.765625 -10.984375 C 3.984375 -10.984375 3.410156 -10.6875 3.046875 -10.09375 C 2.679688 -9.507812 2.492188 -8.601562 2.484375 -7.375 L 2.484375 -4.921875 C 2.484375 -3.609375 2.671875 -2.640625 3.046875 -2.015625 C 3.429688 -1.398438 4.007812 -1.09375 4.78125 -1.09375 C 5.539062 -1.09375 6.101562 -1.382812 6.46875 -1.96875 C 6.832031 -2.550781 7.023438 -3.472656 7.046875 -4.734375 Z M 7.046875 -7.25 "/></g></g><g style="fill:#ffbd59;fill-opacity:1;"><g transform="translate(1257.614558, 371.558497)"><path style="stroke:none" d="M 8.921875 0 L 1 0 L 1 -1.109375 L 5.1875 -5.75 C 5.8125 -6.457031 6.238281 -7.03125 6.46875 -7.46875 C 6.707031 -7.90625 6.828125 -8.359375 6.828125 -8.828125 C 6.828125 -9.460938 6.632812 -9.976562 6.25 -10.375 C 5.863281 -10.78125 5.351562 -10.984375 4.71875 -10.984375 C 3.957031 -10.984375 3.363281 -10.765625 2.9375 -10.328125 C 2.519531 -9.898438 2.3125 -9.300781 2.3125 -8.53125 L 0.765625 -8.53125 C 0.765625 -9.632812 1.125 -10.53125 1.84375 -11.21875 C 2.5625 -11.90625 3.519531 -12.25 4.71875 -12.25 C 5.84375 -12.25 6.734375 -11.953125 7.390625 -11.359375 C 8.046875 -10.773438 8.375 -9.992188 8.375 -9.015625 C 8.375 -7.828125 7.613281 -6.410156 6.09375 -4.765625 L 2.859375 -1.25 L 8.921875 -1.25 Z M 8.921875 0 "/></g></g><g style="fill:#ffbd59;fill-opacity:1;"><g transform="translate(1267.156069, 371.558497)"><path style="stroke:none" d="M 8.328125 -8.9375 C 8.328125 -8.332031 8.164062 -7.789062 7.84375 -7.3125 C 7.53125 -6.84375 7.101562 -6.476562 6.5625 -6.21875 C 7.195312 -5.945312 7.695312 -5.550781 8.0625 -5.03125 C 8.425781 -4.507812 8.609375 -3.921875 8.609375 -3.265625 C 8.609375 -2.210938 8.253906 -1.375 7.546875 -0.75 C 6.847656 -0.132812 5.921875 0.171875 4.765625 0.171875 C 3.609375 0.171875 2.679688 -0.140625 1.984375 -0.765625 C 1.285156 -1.390625 0.9375 -2.222656 0.9375 -3.265625 C 0.9375 -3.910156 1.113281 -4.492188 1.46875 -5.015625 C 1.820312 -5.546875 2.316406 -5.945312 2.953125 -6.21875 C 2.410156 -6.488281 1.984375 -6.859375 1.671875 -7.328125 C 1.367188 -7.796875 1.21875 -8.332031 1.21875 -8.9375 C 1.21875 -9.945312 1.539062 -10.75 2.1875 -11.34375 C 2.84375 -11.945312 3.703125 -12.25 4.765625 -12.25 C 5.828125 -12.25 6.6875 -11.945312 7.34375 -11.34375 C 8 -10.75 8.328125 -9.945312 8.328125 -8.9375 Z M 7.078125 -3.296875 C 7.078125 -3.972656 6.863281 -4.523438 6.4375 -4.953125 C 6.007812 -5.378906 5.445312 -5.59375 4.75 -5.59375 C 4.0625 -5.59375 3.507812 -5.378906 3.09375 -4.953125 C 2.675781 -4.535156 2.46875 -3.984375 2.46875 -3.296875 C 2.46875 -2.609375 2.671875 -2.066406 3.078125 -1.671875 C 3.484375 -1.285156 4.046875 -1.09375 4.765625 -1.09375 C 5.492188 -1.09375 6.0625 -1.289062 6.46875 -1.6875 C 6.875 -2.082031 7.078125 -2.617188 7.078125 -3.296875 Z M 4.765625 -10.984375 C 4.171875 -10.984375 3.6875 -10.796875 3.3125 -10.421875 C 2.9375 -10.054688 2.75 -9.550781 2.75 -8.90625 C 2.75 -8.289062 2.929688 -7.789062 3.296875 -7.40625 C 3.671875 -7.03125 4.160156 -6.84375 4.765625 -6.84375 C 5.378906 -6.84375 5.867188 -7.03125 6.234375 -7.40625 C 6.609375 -7.789062 6.796875 -8.289062 6.796875 -8.90625 C 6.796875 -9.519531 6.601562 -10.019531 6.21875 -10.40625 C 5.84375 -10.789062 5.359375 -10.984375 4.765625 -10.984375 Z M 4.765625 -10.984375 "/></g></g><g style="fill:#ffbd59;fill-opacity:1;"><g transform="translate(908.801097, 220.705982)"><path style="stroke:none" d="M 10.640625 -5.65625 C 10.640625 -4.488281 10.453125 -3.484375 10.078125 -2.640625 C 9.703125 -1.796875 9.179688 -1.132812 8.515625 -0.65625 L 10.671875 1.03125 L 9.59375 2.046875 L 7.046875 0.015625 C 6.640625 0.117188 6.21875 0.171875 5.78125 0.171875 C 4.820312 0.171875 3.972656 -0.0625 3.234375 -0.53125 C 2.503906 -1 1.9375 -1.664062 1.53125 -2.53125 C 1.125 -3.394531 0.914062 -4.398438 0.90625 -5.546875 L 0.90625 -6.421875 C 0.90625 -7.578125 1.101562 -8.597656 1.5 -9.484375 C 1.90625 -10.378906 2.476562 -11.0625 3.21875 -11.53125 C 3.957031 -12.007812 4.804688 -12.25 5.765625 -12.25 C 6.734375 -12.25 7.585938 -12.015625 8.328125 -11.546875 C 9.066406 -11.078125 9.632812 -10.398438 10.03125 -9.515625 C 10.4375 -8.628906 10.640625 -7.597656 10.640625 -6.421875 Z M 9.046875 -6.4375 C 9.046875 -7.851562 8.757812 -8.945312 8.1875 -9.71875 C 7.625 -10.488281 6.816406 -10.875 5.765625 -10.875 C 4.765625 -10.875 3.972656 -10.488281 3.390625 -9.71875 C 2.816406 -8.957031 2.519531 -7.898438 2.5 -6.546875 L 2.5 -5.65625 C 2.5 -4.269531 2.785156 -3.175781 3.359375 -2.375 C 3.941406 -1.582031 4.75 -1.1875 5.78125 -1.1875 C 6.8125 -1.1875 7.609375 -1.5625 8.171875 -2.3125 C 8.734375 -3.0625 9.023438 -4.132812 9.046875 -5.53125 Z M 9.046875 -6.4375 "/></g></g><g style="fill:#ffbd59;fill-opacity:1;"><g transform="translate(920.483225, 220.705982)"><path style="stroke:none" d="M 3.234375 -6.796875 L 4.390625 -6.796875 C 5.117188 -6.804688 5.6875 -6.992188 6.09375 -7.359375 C 6.507812 -7.734375 6.71875 -8.234375 6.71875 -8.859375 C 6.71875 -10.273438 6.015625 -10.984375 4.609375 -10.984375 C 3.941406 -10.984375 3.410156 -10.796875 3.015625 -10.421875 C 2.617188 -10.046875 2.421875 -9.546875 2.421875 -8.921875 L 0.890625 -8.921875 C 0.890625 -9.867188 1.238281 -10.660156 1.9375 -11.296875 C 2.632812 -11.929688 3.523438 -12.25 4.609375 -12.25 C 5.742188 -12.25 6.632812 -11.945312 7.28125 -11.34375 C 7.9375 -10.738281 8.265625 -9.898438 8.265625 -8.828125 C 8.265625 -8.304688 8.09375 -7.796875 7.75 -7.296875 C 7.40625 -6.804688 6.941406 -6.441406 6.359375 -6.203125 C 7.023438 -5.992188 7.535156 -5.644531 7.890625 -5.15625 C 8.253906 -4.664062 8.4375 -4.070312 8.4375 -3.375 C 8.4375 -2.289062 8.082031 -1.425781 7.375 -0.78125 C 6.664062 -0.144531 5.742188 0.171875 4.609375 0.171875 C 3.472656 0.171875 2.550781 -0.132812 1.84375 -0.75 C 1.132812 -1.363281 0.78125 -2.175781 0.78125 -3.1875 L 2.328125 -3.1875 C 2.328125 -2.550781 2.53125 -2.039062 2.9375 -1.65625 C 3.351562 -1.28125 3.910156 -1.09375 4.609375 -1.09375 C 5.359375 -1.09375 5.925781 -1.285156 6.3125 -1.671875 C 6.707031 -2.054688 6.90625 -2.613281 6.90625 -3.34375 C 6.90625 -4.039062 6.6875 -4.578125 6.25 -4.953125 C 5.820312 -5.328125 5.203125 -5.519531 4.390625 -5.53125 L 3.234375 -5.53125 Z M 3.234375 -6.796875 "/></g></g><g style="fill:#ffbd59;fill-opacity:1;"><g transform="translate(930.03547, 220.705982)"><path style="stroke:none" d=""/></g></g><g style="fill:#ffbd59;fill-opacity:1;"><g transform="translate(955.685886, 220.569722)"><path style="stroke:none" d="M 8.921875 0 L 1 0 L 1 -1.109375 L 5.1875 -5.75 C 5.8125 -6.457031 6.238281 -7.03125 6.46875 -7.46875 C 6.707031 -7.90625 6.828125 -8.359375 6.828125 -8.828125 C 6.828125 -9.460938 6.632812 -9.976562 6.25 -10.375 C 5.863281 -10.78125 5.351562 -10.984375 4.71875 -10.984375 C 3.957031 -10.984375 3.363281 -10.765625 2.9375 -10.328125 C 2.519531 -9.898438 2.3125 -9.300781 2.3125 -8.53125 L 0.765625 -8.53125 C 0.765625 -9.632812 1.125 -10.53125 1.84375 -11.21875 C 2.5625 -11.90625 3.519531 -12.25 4.71875 -12.25 C 5.84375 -12.25 6.734375 -11.953125 7.390625 -11.359375 C 8.046875 -10.773438 8.375 -9.992188 8.375 -9.015625 C 8.375 -7.828125 7.613281 -6.410156 6.09375 -4.765625 L 2.859375 -1.25 L 8.921875 -1.25 Z M 8.921875 0 "/></g></g><g style="fill:#ffbd59;fill-opacity:1;"><g transform="translate(965.227397, 220.569722)"><path style="stroke:none" d="M 8.578125 -5.15625 C 8.578125 -3.351562 8.269531 -2.015625 7.65625 -1.140625 C 7.039062 -0.265625 6.082031 0.171875 4.78125 0.171875 C 3.488281 0.171875 2.53125 -0.253906 1.90625 -1.109375 C 1.289062 -1.972656 0.972656 -3.253906 0.953125 -4.953125 L 0.953125 -7 C 0.953125 -8.769531 1.257812 -10.085938 1.875 -10.953125 C 2.488281 -11.816406 3.453125 -12.25 4.765625 -12.25 C 6.066406 -12.25 7.023438 -11.832031 7.640625 -11 C 8.253906 -10.164062 8.566406 -8.878906 8.578125 -7.140625 Z M 7.046875 -7.25 C 7.046875 -8.550781 6.863281 -9.5 6.5 -10.09375 C 6.132812 -10.6875 5.554688 -10.984375 4.765625 -10.984375 C 3.984375 -10.984375 3.410156 -10.6875 3.046875 -10.09375 C 2.679688 -9.507812 2.492188 -8.601562 2.484375 -7.375 L 2.484375 -4.921875 C 2.484375 -3.609375 2.671875 -2.640625 3.046875 -2.015625 C 3.429688 -1.398438 4.007812 -1.09375 4.78125 -1.09375 C 5.539062 -1.09375 6.101562 -1.382812 6.46875 -1.96875 C 6.832031 -2.550781 7.023438 -3.472656 7.046875 -4.734375 Z M 7.046875 -7.25 "/></g></g><g style="fill:#ffbd59;fill-opacity:1;"><g transform="translate(974.768908, 220.569722)"><path style="stroke:none" d="M 8.921875 0 L 1 0 L 1 -1.109375 L 5.1875 -5.75 C 5.8125 -6.457031 6.238281 -7.03125 6.46875 -7.46875 C 6.707031 -7.90625 6.828125 -8.359375 6.828125 -8.828125 C 6.828125 -9.460938 6.632812 -9.976562 6.25 -10.375 C 5.863281 -10.78125 5.351562 -10.984375 4.71875 -10.984375 C 3.957031 -10.984375 3.363281 -10.765625 2.9375 -10.328125 C 2.519531 -9.898438 2.3125 -9.300781 2.3125 -8.53125 L 0.765625 -8.53125 C 0.765625 -9.632812 1.125 -10.53125 1.84375 -11.21875 C 2.5625 -11.90625 3.519531 -12.25 4.71875 -12.25 C 5.84375 -12.25 6.734375 -11.953125 7.390625 -11.359375 C 8.046875 -10.773438 8.375 -9.992188 8.375 -9.015625 C 8.375 -7.828125 7.613281 -6.410156 6.09375 -4.765625 L 2.859375 -1.25 L 8.921875 -1.25 Z M 8.921875 0 "/></g></g><g style="fill:#ffbd59;fill-opacity:1;"><g transform="translate(984.310419, 220.569722)"><path style="stroke:none" d="M 8.8125 -11.21875 L 3.796875 0 L 2.1875 0 L 7.1875 -10.828125 L 0.640625 -10.828125 L 0.640625 -12.09375 L 8.8125 -12.09375 Z M 8.8125 -11.21875 "/></g></g><g style="fill:#ffbd59;fill-opacity:1;"><g transform="translate(821.976181, 560.577112)"><path style="stroke:none" d="M 10.640625 -5.65625 C 10.640625 -4.488281 10.453125 -3.484375 10.078125 -2.640625 C 9.703125 -1.796875 9.179688 -1.132812 8.515625 -0.65625 L 10.671875 1.03125 L 9.59375 2.046875 L 7.046875 0.015625 C 6.640625 0.117188 6.21875 0.171875 5.78125 0.171875 C 4.820312 0.171875 3.972656 -0.0625 3.234375 -0.53125 C 2.503906 -1 1.9375 -1.664062 1.53125 -2.53125 C 1.125 -3.394531 0.914062 -4.398438 0.90625 -5.546875 L 0.90625 -6.421875 C 0.90625 -7.578125 1.101562 -8.597656 1.5 -9.484375 C 1.90625 -10.378906 2.476562 -11.0625 3.21875 -11.53125 C 3.957031 -12.007812 4.804688 -12.25 5.765625 -12.25 C 6.734375 -12.25 7.585938 -12.015625 8.328125 -11.546875 C 9.066406 -11.078125 9.632812 -10.398438 10.03125 -9.515625 C 10.4375 -8.628906 10.640625 -7.597656 10.640625 -6.421875 Z M 9.046875 -6.4375 C 9.046875 -7.851562 8.757812 -8.945312 8.1875 -9.71875 C 7.625 -10.488281 6.816406 -10.875 5.765625 -10.875 C 4.765625 -10.875 3.972656 -10.488281 3.390625 -9.71875 C 2.816406 -8.957031 2.519531 -7.898438 2.5 -6.546875 L 2.5 -5.65625 C 2.5 -4.269531 2.785156 -3.175781 3.359375 -2.375 C 3.941406 -1.582031 4.75 -1.1875 5.78125 -1.1875 C 6.8125 -1.1875 7.609375 -1.5625 8.171875 -2.3125 C 8.734375 -3.0625 9.023438 -4.132812 9.046875 -5.53125 Z M 9.046875 -6.4375 "/></g></g><g style="fill:#ffbd59;fill-opacity:1;"><g transform="translate(833.658309, 560.577112)"><path style="stroke:none" d="M 8.921875 0 L 1 0 L 1 -1.109375 L 5.1875 -5.75 C 5.8125 -6.457031 6.238281 -7.03125 6.46875 -7.46875 C 6.707031 -7.90625 6.828125 -8.359375 6.828125 -8.828125 C 6.828125 -9.460938 6.632812 -9.976562 6.25 -10.375 C 5.863281 -10.78125 5.351562 -10.984375 4.71875 -10.984375 C 3.957031 -10.984375 3.363281 -10.765625 2.9375 -10.328125 C 2.519531 -9.898438 2.3125 -9.300781 2.3125 -8.53125 L 0.765625 -8.53125 C 0.765625 -9.632812 1.125 -10.53125 1.84375 -11.21875 C 2.5625 -11.90625 3.519531 -12.25 4.71875 -12.25 C 5.84375 -12.25 6.734375 -11.953125 7.390625 -11.359375 C 8.046875 -10.773438 8.375 -9.992188 8.375 -9.015625 C 8.375 -7.828125 7.613281 -6.410156 6.09375 -4.765625 L 2.859375 -1.25 L 8.921875 -1.25 Z M 8.921875 0 "/></g></g><g style="fill:#ffbd59;fill-opacity:1;"><g transform="translate(843.210555, 560.577112)"><path style="stroke:none" d=""/></g></g><g style="fill:#ffbd59;fill-opacity:1;"><g transform="translate(868.860971, 560.44084)"><path style="stroke:none" d="M 8.921875 0 L 1 0 L 1 -1.109375 L 5.1875 -5.75 C 5.8125 -6.457031 6.238281 -7.03125 6.46875 -7.46875 C 6.707031 -7.90625 6.828125 -8.359375 6.828125 -8.828125 C 6.828125 -9.460938 6.632812 -9.976562 6.25 -10.375 C 5.863281 -10.78125 5.351562 -10.984375 4.71875 -10.984375 C 3.957031 -10.984375 3.363281 -10.765625 2.9375 -10.328125 C 2.519531 -9.898438 2.3125 -9.300781 2.3125 -8.53125 L 0.765625 -8.53125 C 0.765625 -9.632812 1.125 -10.53125 1.84375 -11.21875 C 2.5625 -11.90625 3.519531 -12.25 4.71875 -12.25 C 5.84375 -12.25 6.734375 -11.953125 7.390625 -11.359375 C 8.046875 -10.773438 8.375 -9.992188 8.375 -9.015625 C 8.375 -7.828125 7.613281 -6.410156 6.09375 -4.765625 L 2.859375 -1.25 L 8.921875 -1.25 Z M 8.921875 0 "/></g></g><g style="fill:#ffbd59;fill-opacity:1;"><g transform="translate(878.402482, 560.44084)"><path style="stroke:none" d="M 8.578125 -5.15625 C 8.578125 -3.351562 8.269531 -2.015625 7.65625 -1.140625 C 7.039062 -0.265625 6.082031 0.171875 4.78125 0.171875 C 3.488281 0.171875 2.53125 -0.253906 1.90625 -1.109375 C 1.289062 -1.972656 0.972656 -3.253906 0.953125 -4.953125 L 0.953125 -7 C 0.953125 -8.769531 1.257812 -10.085938 1.875 -10.953125 C 2.488281 -11.816406 3.453125 -12.25 4.765625 -12.25 C 6.066406 -12.25 7.023438 -11.832031 7.640625 -11 C 8.253906 -10.164062 8.566406 -8.878906 8.578125 -7.140625 Z M 7.046875 -7.25 C 7.046875 -8.550781 6.863281 -9.5 6.5 -10.09375 C 6.132812 -10.6875 5.554688 -10.984375 4.765625 -10.984375 C 3.984375 -10.984375 3.410156 -10.6875 3.046875 -10.09375 C 2.679688 -9.507812 2.492188 -8.601562 2.484375 -7.375 L 2.484375 -4.921875 C 2.484375 -3.609375 2.671875 -2.640625 3.046875 -2.015625 C 3.429688 -1.398438 4.007812 -1.09375 4.78125 -1.09375 C 5.539062 -1.09375 6.101562 -1.382812 6.46875 -1.96875 C 6.832031 -2.550781 7.023438 -3.472656 7.046875 -4.734375 Z M 7.046875 -7.25 "/></g></g><g style="fill:#ffbd59;fill-opacity:1;"><g transform="translate(887.943993, 560.44084)"><path style="stroke:none" d="M 8.921875 0 L 1 0 L 1 -1.109375 L 5.1875 -5.75 C 5.8125 -6.457031 6.238281 -7.03125 6.46875 -7.46875 C 6.707031 -7.90625 6.828125 -8.359375 6.828125 -8.828125 C 6.828125 -9.460938 6.632812 -9.976562 6.25 -10.375 C 5.863281 -10.78125 5.351562 -10.984375 4.71875 -10.984375 C 3.957031 -10.984375 3.363281 -10.765625 2.9375 -10.328125 C 2.519531 -9.898438 2.3125 -9.300781 2.3125 -8.53125 L 0.765625 -8.53125 C 0.765625 -9.632812 1.125 -10.53125 1.84375 -11.21875 C 2.5625 -11.90625 3.519531 -12.25 4.71875 -12.25 C 5.84375 -12.25 6.734375 -11.953125 7.390625 -11.359375 C 8.046875 -10.773438 8.375 -9.992188 8.375 -9.015625 C 8.375 -7.828125 7.613281 -6.410156 6.09375 -4.765625 L 2.859375 -1.25 L 8.921875 -1.25 Z M 8.921875 0 "/></g></g><g style="fill:#ffbd59;fill-opacity:1;"><g transform="translate(897.485504, 560.44084)"><path style="stroke:none" d="M 8.8125 -11.21875 L 3.796875 0 L 2.1875 0 L 7.1875 -10.828125 L 0.640625 -10.828125 L 0.640625 -12.09375 L 8.8125 -12.09375 Z M 8.8125 -11.21875 "/></g></g><g clip-rule="nonzero" clip-path="url(#01069fc305)"><g clip-rule="nonzero" clip-path="url(#1a387252bf)"><g clip-rule="nonzero" clip-path="url(#21562298b5)"><g transform="matrix(1,0,0,1,523,540)"><g clip-path="url(#35ba4cac89)"><g clip-rule="nonzero" clip-path="url(#c4deaf5a55)"><g clip-rule="nonzero" clip-path="url(#326f33cfd0)"><g clip-rule="nonzero" clip-path="url(#8f902b2505)"><path style=" stroke:none;fill-rule:nonzero;fill:#ffbd59;fill-opacity:1;" d="M 6.203125 1.605469 L 3.269531 6.734375 L -0.480469 4.589844 L 2.453125 -0.539062 Z M 6.203125 1.605469 "/></g></g></g></g></g></g></g></g><path style="fill:none;stroke-width:2;stroke-linecap:butt;stroke-linejoin:miter;stroke:#ffbd59;stroke-opacity:1;stroke-miterlimit:4;" d="M -0.00308238 1.000051 L 77.514949 0.997535 " transform="matrix(0.412031,0.626682,-0.626682,0.412031,493.928765,493.707067)"/><g style="fill:#ffbd59;fill-opacity:1;"><g transform="translate(454.291663, 493.186747)"><path style="stroke:none" d="M 10.640625 -5.65625 C 10.640625 -4.488281 10.453125 -3.484375 10.078125 -2.640625 C 9.703125 -1.796875 9.179688 -1.132812 8.515625 -0.65625 L 10.671875 1.03125 L 9.59375 2.046875 L 7.046875 0.015625 C 6.640625 0.117188 6.21875 0.171875 5.78125 0.171875 C 4.820312 0.171875 3.972656 -0.0625 3.234375 -0.53125 C 2.503906 -1 1.9375 -1.664062 1.53125 -2.53125 C 1.125 -3.394531 0.914062 -4.398438 0.90625 -5.546875 L 0.90625 -6.421875 C 0.90625 -7.578125 1.101562 -8.597656 1.5 -9.484375 C 1.90625 -10.378906 2.476562 -11.0625 3.21875 -11.53125 C 3.957031 -12.007812 4.804688 -12.25 5.765625 -12.25 C 6.734375 -12.25 7.585938 -12.015625 8.328125 -11.546875 C 9.066406 -11.078125 9.632812 -10.398438 10.03125 -9.515625 C 10.4375 -8.628906 10.640625 -7.597656 10.640625 -6.421875 Z M 9.046875 -6.4375 C 9.046875 -7.851562 8.757812 -8.945312 8.1875 -9.71875 C 7.625 -10.488281 6.816406 -10.875 5.765625 -10.875 C 4.765625 -10.875 3.972656 -10.488281 3.390625 -9.71875 C 2.816406 -8.957031 2.519531 -7.898438 2.5 -6.546875 L 2.5 -5.65625 C 2.5 -4.269531 2.785156 -3.175781 3.359375 -2.375 C 3.941406 -1.582031 4.75 -1.1875 5.78125 -1.1875 C 6.8125 -1.1875 7.609375 -1.5625 8.171875 -2.3125 C 8.734375 -3.0625 9.023438 -4.132812 9.046875 -5.53125 Z M 9.046875 -6.4375 "/></g></g><g style="fill:#ffbd59;fill-opacity:1;"><g transform="translate(465.973792, 493.186747)"><path style="stroke:none" d="M 8.921875 0 L 1 0 L 1 -1.109375 L 5.1875 -5.75 C 5.8125 -6.457031 6.238281 -7.03125 6.46875 -7.46875 C 6.707031 -7.90625 6.828125 -8.359375 6.828125 -8.828125 C 6.828125 -9.460938 6.632812 -9.976562 6.25 -10.375 C 5.863281 -10.78125 5.351562 -10.984375 4.71875 -10.984375 C 3.957031 -10.984375 3.363281 -10.765625 2.9375 -10.328125 C 2.519531 -9.898438 2.3125 -9.300781 2.3125 -8.53125 L 0.765625 -8.53125 C 0.765625 -9.632812 1.125 -10.53125 1.84375 -11.21875 C 2.5625 -11.90625 3.519531 -12.25 4.71875 -12.25 C 5.84375 -12.25 6.734375 -11.953125 7.390625 -11.359375 C 8.046875 -10.773438 8.375 -9.992188 8.375 -9.015625 C 8.375 -7.828125 7.613281 -6.410156 6.09375 -4.765625 L 2.859375 -1.25 L 8.921875 -1.25 Z M 8.921875 0 "/></g></g><g style="fill:#ffbd59;fill-opacity:1;"><g transform="translate(475.526037, 493.186747)"><path style="stroke:none" d=""/></g></g><g style="fill:#ffbd59;fill-opacity:1;"><g transform="translate(501.176477, 493.050475)"><path style="stroke:none" d="M 8.921875 0 L 1 0 L 1 -1.109375 L 5.1875 -5.75 C 5.8125 -6.457031 6.238281 -7.03125 6.46875 -7.46875 C 6.707031 -7.90625 6.828125 -8.359375 6.828125 -8.828125 C 6.828125 -9.460938 6.632812 -9.976562 6.25 -10.375 C 5.863281 -10.78125 5.351562 -10.984375 4.71875 -10.984375 C 3.957031 -10.984375 3.363281 -10.765625 2.9375 -10.328125 C 2.519531 -9.898438 2.3125 -9.300781 2.3125 -8.53125 L 0.765625 -8.53125 C 0.765625 -9.632812 1.125 -10.53125 1.84375 -11.21875 C 2.5625 -11.90625 3.519531 -12.25 4.71875 -12.25 C 5.84375 -12.25 6.734375 -11.953125 7.390625 -11.359375 C 8.046875 -10.773438 8.375 -9.992188 8.375 -9.015625 C 8.375 -7.828125 7.613281 -6.410156 6.09375 -4.765625 L 2.859375 -1.25 L 8.921875 -1.25 Z M 8.921875 0 "/></g></g><g style="fill:#ffbd59;fill-opacity:1;"><g transform="translate(510.717988, 493.050475)"><path style="stroke:none" d="M 8.578125 -5.15625 C 8.578125 -3.351562 8.269531 -2.015625 7.65625 -1.140625 C 7.039062 -0.265625 6.082031 0.171875 4.78125 0.171875 C 3.488281 0.171875 2.53125 -0.253906 1.90625 -1.109375 C 1.289062 -1.972656 0.972656 -3.253906 0.953125 -4.953125 L 0.953125 -7 C 0.953125 -8.769531 1.257812 -10.085938 1.875 -10.953125 C 2.488281 -11.816406 3.453125 -12.25 4.765625 -12.25 C 6.066406 -12.25 7.023438 -11.832031 7.640625 -11 C 8.253906 -10.164062 8.566406 -8.878906 8.578125 -7.140625 Z M 7.046875 -7.25 C 7.046875 -8.550781 6.863281 -9.5 6.5 -10.09375 C 6.132812 -10.6875 5.554688 -10.984375 4.765625 -10.984375 C 3.984375 -10.984375 3.410156 -10.6875 3.046875 -10.09375 C 2.679688 -9.507812 2.492188 -8.601562 2.484375 -7.375 L 2.484375 -4.921875 C 2.484375 -3.609375 2.671875 -2.640625 3.046875 -2.015625 C 3.429688 -1.398438 4.007812 -1.09375 4.78125 -1.09375 C 5.539062 -1.09375 6.101562 -1.382812 6.46875 -1.96875 C 6.832031 -2.550781 7.023438 -3.472656 7.046875 -4.734375 Z M 7.046875 -7.25 "/></g></g><g style="fill:#ffbd59;fill-opacity:1;"><g transform="translate(520.259499, 493.050475)"><path style="stroke:none" d="M 8.921875 0 L 1 0 L 1 -1.109375 L 5.1875 -5.75 C 5.8125 -6.457031 6.238281 -7.03125 6.46875 -7.46875 C 6.707031 -7.90625 6.828125 -8.359375 6.828125 -8.828125 C 6.828125 -9.460938 6.632812 -9.976562 6.25 -10.375 C 5.863281 -10.78125 5.351562 -10.984375 4.71875 -10.984375 C 3.957031 -10.984375 3.363281 -10.765625 2.9375 -10.328125 C 2.519531 -9.898438 2.3125 -9.300781 2.3125 -8.53125 L 0.765625 -8.53125 C 0.765625 -9.632812 1.125 -10.53125 1.84375 -11.21875 C 2.5625 -11.90625 3.519531 -12.25 4.71875 -12.25 C 5.84375 -12.25 6.734375 -11.953125 7.390625 -11.359375 C 8.046875 -10.773438 8.375 -9.992188 8.375 -9.015625 C 8.375 -7.828125 7.613281 -6.410156 6.09375 -4.765625 L 2.859375 -1.25 L 8.921875 -1.25 Z M 8.921875 0 "/></g></g><g style="fill:#ffbd59;fill-opacity:1;"><g transform="translate(529.80101, 493.050475)"><path style="stroke:none" d="M 8.8125 -11.21875 L 3.796875 0 L 2.1875 0 L 7.1875 -10.828125 L 0.640625 -10.828125 L 0.640625 -12.09375 L 8.8125 -12.09375 Z M 8.8125 -11.21875 "/></g></g><g clip-rule="nonzero" clip-path="url(#5e6af10e91)"><g clip-rule="nonzero" clip-path="url(#3eb8bd6587)"><g clip-rule="nonzero" clip-path="url(#3f983963c5)"><g clip-rule="nonzero" clip-path="url(#ae2e38b731)"><path style="fill:none;stroke-width:4;stroke-linecap:butt;stroke-linejoin:miter;stroke:#ffbd59;stroke-opacity:1;stroke-miterlimit:4;" d="M 10.348638 -0.000120653 C 4.633798 -0.00193496 0.000196434 4.652166 0.00281581 10.396134 C 0.00124006 16.137015 4.632626 20.7927 10.350553 20.790319 C 16.065393 20.792133 20.706276 16.136924 20.70057 10.397151 C 20.702146 4.65627 16.07076 0.000585237 10.348638 -0.000120653 Z M 10.348638 -0.000120653 " transform="matrix(-0.604097,0.444485,-0.444485,-0.604097,500.161685,490.064179)"/></g></g></g></g></g></svg>